<svg version="1.2" xmlns="http://www.w3.org/2000/svg" viewBox="0 -0.392 312.077 217.392" width="90" height="63"><style>.s0{fill:#fefefe}</style><g id="Layer 1"><g id="&lt;Group&gt;"><g id="&lt;Group&gt;"><path id="&lt;Compound Path&gt;" class="s0" d="M6.3 138.27c0-5.93-3.11-5.54-6.07-5.61v-1.7c2.57.12 5.21.12 7.79.12 2.77 0 6.53-.12 11.41-.12 17.09 0 26.4 11.4 26.4 23.09 0 6.54-3.83 22.96-27.19 22.96-3.36 0-6.47-.12-9.57-.12-2.97 0-5.88.07-8.84.12v-1.72c3.95-.39 5.87-.52 6.07-5.01zm6.46 30.96c0 5.08 3.64 5.67 6.87 5.67 14.26 0 18.93-10.75 18.93-20.59 0-12.33-7.91-21.24-20.65-21.24-2.71 0-3.95.19-5.15.26zM48.14 175.3h1.25c1.85 0 3.17 0 3.17-2.19v-17.87c0-2.91-.99-3.31-3.44-4.62v-1.05c3.11-.93 6.8-2.18 7.07-2.39.46-.25.85-.32 1.19-.32.33 0 .46.39.46.92v25.33c0 2.19 1.46 2.19 3.3 2.19h1.12v1.72c-2.25 0-4.55-.13-6.93-.13-2.37 0-4.75.06-7.19.13zm7.06-38.6c-1.72 0-3.23-1.59-3.23-3.3 0-1.65 1.58-3.18 3.23-3.18 1.71 0 3.24 1.39 3.24 3.18 0 1.78-1.46 3.3-3.24 3.3z"/><path id="&lt;Path&gt;" class="s0" d="M68.53 155.63c0-2.44-.73-3.1-3.82-4.34v-1.27c2.83-.92 5.53-1.78 8.7-3.16.2 0 .39.13.39.65v4.3c3.77-2.71 7.01-4.95 11.43-4.95 5.61 0 7.59 4.09 7.59 9.23v17.02c0 2.19 1.45 2.19 3.3 2.19h1.18v1.71c-2.31 0-4.62-.12-6.99-.12-2.38 0-4.75.07-7.13.12v-1.71h1.19c1.85 0 3.16 0 3.16-2.19v-17.08c0-3.77-2.3-5.61-6.07-5.61-2.11 0-5.47 1.71-7.66 3.17v19.52c0 2.19 1.47 2.19 3.31 2.19h1.19v1.71c-2.31 0-4.63-.12-7-.12s-4.75.07-7.13.12v-1.71h1.2c1.84 0 3.16 0 3.16-2.19z"/><path id="&lt;Compound Path&gt;" class="s0" d="M102.32 158.81c-.13.59-.13 1.57 0 3.82.39 6.27 4.42 11.42 9.7 11.42 3.63 0 6.48-1.99 8.91-4.42l.92.92c-3.03 4.02-6.79 7.45-12.2 7.45-10.5 0-12.6-10.16-12.6-14.38 0-12.93 8.7-16.76 13.32-16.76 5.35 0 11.09 3.36 11.15 10.35 0 .41 0 .8-.06 1.2l-.6.4zm11.68-2.12c1.64 0 1.84-.86 1.84-1.65 0-3.37-2.05-6.07-5.74-6.07-4.02 0-6.79 2.96-7.59 7.72z"/><path id="&lt;Path&gt;" class="s0" d="M123.04 175.3h1.79c1.84 0 3.15 0 3.15-2.19v-18.54c0-2.04-2.43-2.43-3.42-2.97v-.98c4.81-2.05 7.46-3.76 8.06-3.76.39 0 .58.19.58.86v5.93h.15c1.64-2.57 4.41-6.79 8.43-6.79 1.65 0 3.76 1.11 3.76 3.49 0 1.79-1.24 3.38-3.1 3.38-2.05 0-2.05-1.59-4.35-1.59-1.12 0-4.82 1.51-4.82 5.48v15.49c0 2.19 1.32 2.19 3.16 2.19h3.7v1.72c-3.63-.07-6.39-.13-9.23-.13-2.71 0-5.48.06-7.86.13zM148.44 167.84c.87 4.35 3.51 8.06 8.32 8.06 3.89 0 5.34-2.38 5.34-4.69 0-7.79-14.37-5.29-14.37-15.91 0-3.7 2.97-8.44 10.23-8.44 2.1 0 4.94.59 7.51 1.91l.47 6.73h-1.52c-.66-4.15-2.97-6.54-7.19-6.54-2.65 0-5.15 1.53-5.15 4.36 0 7.73 15.31 5.35 15.31 15.71 0 4.35-3.5 8.97-11.35 8.97-2.65 0-5.75-.92-8.05-2.23l-.73-7.6zM226.97 142.9h-1.65c-1.25-7.72-6.73-10.82-14.11-10.82-7.6 0-18.62 5.07-18.62 20.9 0 13.34 9.52 22.92 19.67 22.92 6.53 0 11.95-4.49 13.27-11.42l1.51.39-1.51 9.64c-2.77 1.72-10.24 3.49-14.6 3.49-15.43 0-25.19-9.96-25.19-24.81 0-13.53 12.07-23.23 25.01-23.23 5.34 0 10.48 1.72 15.56 3.5zM229.35 175.3h1.26c1.85 0 3.17 0 3.17-2.19v-36.74c0-4.29-.99-4.43-3.5-5.15v-1.06c2.63-.86 5.41-2.04 6.8-2.84.72-.39 1.25-.73 1.45-.73.4 0 .52.4.52.93v45.59c0 2.19 1.46 2.19 3.31 2.19h1.12v1.72c-2.24 0-4.55-.13-6.94-.13-2.36 0-4.74.06-7.19.13zM271.73 173.38c0 1.2.71 1.26 1.84 1.26.79 0 1.79-.06 2.65-.06v1.39c-2.85.26-8.26 1.64-9.52 2.04l-.32-.2v-5.34c-3.96 3.23-7 5.54-11.69 5.54-3.56 0-7.25-2.31-7.25-7.85v-16.9c0-1.72-.27-3.37-3.96-3.69v-1.26c2.38-.07 7.65-.46 8.51-.46.73 0 .73.46.73 1.91v17.02c0 1.98 0 7.66 5.74 7.66 2.24 0 5.21-1.72 7.98-4.01v-17.77c0-1.31-3.17-2.04-5.54-2.7v-1.19c5.94-.4 9.64-.92 10.3-.92.53 0 .53.46.53 1.19z"/><path id="&lt;Compound Path&gt;" class="s0" d="M284.85 151.6c2.64-2.23 6.21-4.74 9.84-4.74 7.65 0 12.27 6.67 12.27 13.85 0 8.65-6.33 17.29-15.78 17.29-4.88 0-7.44-1.58-9.16-2.3l-1.98 1.51-1.38-.72c.58-3.89.91-7.73.91-11.75v-28.37c0-4.29-.98-4.43-3.49-5.15v-1.06c2.64-.86 5.41-2.04 6.8-2.84.72-.39 1.25-.73 1.45-.73.4 0 .52.4.52.93zm0 17.96c0 2.51 2.38 6.73 6.8 6.73 7.07 0 10.04-6.93 10.04-12.81 0-7.12-5.42-13.06-10.56-13.06-2.45 0-4.49 1.59-6.28 3.11z"/><path id="&lt;Path&gt;" class="s0" d="M.16 215.38h.5c1.29 0 2.66-.17 2.66-2.04v-18.81c0-1.88-1.37-2.05-2.66-2.05h-.5v-1.09c1.4 0 3.55.15 5.32.15 1.79 0 3.94-.15 5.63-.15v1.09h-.51c-1.29 0-2.65.17-2.65 2.05v18.81c0 1.87 1.36 2.04 2.65 2.04h.51v1.08c-1.72 0-3.88-.14-5.67-.14-1.77 0-3.88.14-5.28.14z"/><path id="&lt;Compound Path&gt;" class="s0" d="M11.11 216.62c-1.74 0-3.89-.14-5.67-.14-1.76 0-3.87.14-5.28.14H0v-1.39h.66c1.3-.03 2.49-.14 2.5-1.9v-18.8c-.01-1.76-1.2-1.88-2.5-1.9H0v-1.38h.16c1.41 0 3.56.14 5.32.14 1.78 0 3.93-.14 5.63-.14h.15v1.38h-.65c-1.31.02-2.5.14-2.51 1.9v18.8c.01 1.76 1.2 1.87 2.51 1.9h.65v1.39zm-.15-.31v-.77h-.34c-1.28 0-2.82-.22-2.82-2.21v-18.8c0-1.99 1.54-2.21 2.82-2.21h.34v-.76c-1.66 0-3.74.14-5.48.14-1.7 0-3.77-.14-5.16-.14v.76h.35c1.28 0 2.81.22 2.81 2.21v18.8c0 1.99-1.53 2.21-2.81 2.21H.32v.77c1.39-.02 3.42-.15 5.12-.15 1.75 0 3.83.14 5.52.15z"/><path id="&lt;Path&gt;" class="s0" d="m35.78 209.39.07-.07v-13.47c0-2.94-2.05-3.37-3.13-3.37h-.78v-1.09c1.68 0 3.34.15 5.02.15 1.47 0 2.95-.15 4.41-.15v1.09h-.53c-1.51 0-3.2.28-3.2 4.56v16.34c0 1.25.04 2.51.22 3.62h-1.37L18 196.39v14.79c0 3.13.61 4.2 3.37 4.2h.61v1.08c-1.54 0-3.08-.14-4.63-.14-1.61 0-3.26.14-4.88.14v-1.08h.5c2.48 0 3.24-1.68 3.24-4.55v-15.12c0-2.02-1.66-3.23-3.27-3.23h-.47v-1.09c1.36 0 2.76.15 4.12.15 1.09 0 2.13-.15 3.2-.15z"/><path id="&lt;Compound Path&gt;" class="s0" d="m37.85 217.16-1.47-.06-18.23-20.3v14.38c.05 3.13.52 4.01 3.22 4.05h.77v1.39h-.16c-1.55 0-3.1-.14-4.63-.14-1.6 0-3.25.14-4.88.14h-.16v-1.39h.66c2.38-.02 3.05-1.54 3.09-4.4v-15.12c-.01-1.91-1.58-3.08-3.12-3.08h-.63v-1.38h.16c1.37 0 2.77.14 4.13.14 1.06 0 2.1-.14 3.31-.09l15.78 17.76v-13.21c-.02-2.85-1.92-3.2-2.97-3.22h-.95v-1.38h.16c1.7 0 3.35.14 5.03.14 1.46 0 2.93-.14 4.41-.14h.17v1.38H40.84c-1.49.04-3 .18-3.04 4.4v16.35c0 1.25.03 2.5.2 3.6l.04.18zm-1.37-.32h1.19c-.16-1.07-.19-2.27-.19-3.46v-16.35c0-4.3 1.81-4.71 3.35-4.71h.38v-.76c-1.41.01-2.83.14-4.26.14-1.64 0-3.24-.13-4.87-.14v.76h.63c1.11 0 3.28.49 3.28 3.53l-.04 13.58-.08.06-.12.12-15.96-18.05c-1.07 0-2.11.14-3.2.14-1.32 0-2.67-.13-3.97-.14l-.01.76h.32c1.68 0 3.42 1.29 3.42 3.39v15.12c0 2.87-.8 4.7-3.38 4.72l-.35-.02v.78c1.55-.02 3.15-.15 4.72-.15 1.5 0 3 .13 4.48.15v-.76h-.46c-2.82-.02-3.53-1.24-3.53-4.37v-15.19zm-.71-7.46.12-.1zm-.09-.07v-.01l-.03-.03z"/><path id="&lt;Path&gt;" class="s0" d="M46.75 193.19c-2.69 0-2.79.65-3.34 3.27h-1.07c.15-1 .32-2.01.43-3.06q.21-1.49.22-3.04h.86c.29 1.08 1.18 1.03 2.16 1.03h18.52c.97 0 1.87-.03 1.94-1.11l.86.15q-.21 1.45-.39 2.91c-.07.96-.07 1.94-.07 2.91l-1.08.4c-.07-1.34-.25-3.46-2.66-3.46h-5.88v19.11c0 2.77 1.25 3.08 2.98 3.08h.67v1.08c-1.39 0-3.91-.14-5.85-.14-2.15 0-4.67.14-6.07.14v-1.08h.68c1.98 0 2.98-.17 2.98-3v-19.19z"/><path id="&lt;Path&gt;" class="s0" d="M60.91 216.62c-1.42 0-3.93-.15-5.86-.15-2.15 0-4.65.15-6.07.15h-.15v-1.39h.84c1.98-.05 2.77-.07 2.81-2.86v-19.02h-5.73v-.31h6.05v19.33c0 2.88-1.16 3.18-3.13 3.18h-.53v.75c1.42-.01 3.83-.14 5.91-.14 1.88 0 4.28.13 5.7.14v-.75h-.53c-1.73 0-3.14-.43-3.14-3.25v-19.26h6.05c2.41.01 2.73 2.05 2.8 3.38l.79-.29q-.01-1.39.06-2.82.16-1.37.37-2.75l-.54-.09c-.18 1.04-1.18 1.1-2.08 1.09H45.82c-.85 0-1.76-.05-2.08-1.04h-.6q0 1.48-.22 2.91c-.1.98-.26 1.94-.39 2.87h.76c.48-2.49.79-3.3 3.46-3.26v.31c-2.65.05-2.59.49-3.18 3.15l-.02.12H42.16l.02-.19c.14-1 .33-2 .44-3.05q.21-1.48.21-3.02v-.16h1.14l.03.12c.25.9.9.91 1.82.93h18.71c.99-.02 1.73-.04 1.79-.98l.01-.16.16.03 1.01.16-.02.15q-.22 1.45-.38 2.9c-.08.96-.08 1.93-.08 2.9v.11l-.1.04-1.27.46-.01-.21c-.1-1.35-.24-3.3-2.51-3.3H57.4v18.95c.04 2.71 1.11 2.9 2.82 2.93h.84v1.39zM68.48 215.38h.5c1.29 0 2.66-.17 2.66-2.04v-18.81c0-1.88-1.37-2.05-2.66-2.05h-.5v-1.09c2.18 0 5.93.15 8.94.15 3.02 0 6.75-.15 9.18-.15-.06 1.55-.02 3.93.09 5.51l-1.09.28c-.17-2.33-.6-4.19-4.38-4.19h-4.97v9.39h4.26c2.15 0 2.62-1.21 2.83-3.15h1.08q-.11 2.1-.11 4.2 0 2.05.11 4.09l-1.08.22c-.21-2.16-.32-3.56-2.8-3.56h-4.29v8.37c0 2.33 2.07 2.33 4.36 2.33 4.32 0 6.22-.29 7.29-4.38l1.01.26c-.47 1.91-.9 3.8-1.22 5.7-2.29 0-6.43-.14-9.66-.14-3.24 0-7.51.14-9.55.14z"/><path id="&lt;Compound Path&gt;" class="s0" d="M87.69 216.62c-2.31 0-6.43-.15-9.66-.15-3.24 0-7.5.15-9.55.15h-.16v-1.39h.66c1.3-.02 2.49-.14 2.5-1.89v-18.82c-.01-1.74-1.2-1.86-2.5-1.89h-.66v-1.38h.16c2.19 0 5.93.14 8.94.14s6.74-.14 9.18-.14h.16v.15q-.04.83-.04 1.87c0 1.23.04 2.59.11 3.61v.13l-.11.04-1.27.33v-.19c-.21-2.33-.52-4.02-4.23-4.05h-4.83v9.09h4.11c2.08-.02 2.44-1.08 2.69-3.02l.01-.14h1.38v.16q-.11 2.1-.12 4.2.01 2.04.12 4.09v.12l-.13.04-1.25.24-.01-.17c-.25-2.19-.26-3.39-2.65-3.41l-4.15-.01v8.22c0 2.18 1.88 2.17 4.22 2.18 4.33-.02 6.06-.24 7.14-4.27l.04-.15.15.04 1.15.29-.03.15c-.47 1.9-.9 3.8-1.22 5.7l-.02.13zm-.13-.32c.31-1.81.72-3.62 1.16-5.43l-.71-.18c-1.08 4.02-3.16 4.38-7.4 4.35-2.26 0-4.52 0-4.53-2.49v-8.52h4.46c2.51-.03 2.76 1.49 2.94 3.53l.78-.16q-.1-1.99-.1-3.97 0-2.01.1-4.05h-.78c-.2 1.88-.78 3.19-2.98 3.16h-4.42v-9.72h5.14c3.74-.02 4.36 1.91 4.52 4.16l.77-.21c-.06-1.01-.09-2.3-.09-3.5q0-.95.02-1.71c-2.43.01-6.07.14-9.02.14-2.95 0-6.59-.13-8.79-.14v.76h.35c1.28 0 2.81.22 2.82 2.2v18.82c-.01 1.98-1.54 2.19-2.82 2.21h-.35v.75c2.09 0 6.25-.14 9.4-.14 3.17 0 7.21.14 9.53.14zM93.76 195.2c0-2.62-1.44-2.72-2.55-2.72h-.66v-1.09c1.15 0 3.38.15 5.58.15 2.14 0 3.87-.15 5.78-.15 4.51 0 8.53 1.23 8.53 6.33 0 3.23-2.14 5.2-4.98 6.33l6.14 9.18c1.01 1.52 1.72 1.94 3.48 2.15v1.08c-1.18 0-2.33-.14-3.52-.14-1.12 0-2.26.14-3.37.14-2.76-3.62-5.14-7.5-7.47-11.64h-2.37v7.69c0 2.77 1.29 2.87 2.94 2.87h.66v1.08c-2.06 0-4.14-.14-6.19-.14-1.72 0-3.41.14-5.21.14v-1.08h.66c1.32 0 2.55-.6 2.55-1.94zm4.59 8.33h1.76c3.59 0 5.53-1.35 5.53-5.6 0-3.18-2.05-5.24-5.25-5.24-1.08 0-1.54.12-2.04.15z"/><path id="&lt;Compound Path&gt;" class="s0" d="M115.08 216.61c-1.2 0-2.34-.13-3.53-.13-1.09 0-2.24.13-3.49.08-2.75-3.62-5.11-7.47-7.43-11.58h-2.12v7.53c.04 2.7 1.12 2.68 2.78 2.72h.81v1.38h-.17c-2.05 0-4.14-.13-6.17-.13-1.72 0-3.4.13-5.21.13h-.14v-1.38h.8c1.29-.01 2.37-.57 2.38-1.78v-18.24c-.02-2.55-1.27-2.55-2.38-2.58h-.8v-1.38h.14c1.17 0 3.39.14 5.58.14 2.14 0 3.86-.14 5.78-.14 4.52 0 8.69 1.26 8.7 6.46 0 3.25-2.15 5.27-4.91 6.4l6.03 9.03c1 1.49 1.62 1.87 3.37 2.09l.13.01v1.37zm-16.73-11.94h2.45l.05.08c2.33 4.13 4.69 8 7.34 11.56 1.09 0 2.25-.15 3.36-.15 1.15 0 2.26.13 3.38.14v-.79c-1.69-.2-2.48-.7-3.46-2.19l-6.25-9.35.18-.08c2.81-1.1 4.89-3.02 4.89-6.18 0-4.97-3.87-6.13-8.38-6.15-1.9 0-3.63.14-5.78.14-2.12 0-4.25-.14-5.42-.14v.76h.5c1.11 0 2.69.19 2.69 2.89v18.24c0 1.44-1.34 2.09-2.69 2.09h-.5v.76c1.73 0 3.36-.14 5.05-.14 2.01 0 4.03.14 6.02.14v-.76h-.49c-1.64 0-3.1-.2-3.1-3.03v-7.84zm0-.99h-.15v-10.99l.13-.01c.5-.04.98-.14 2.07-.14 3.26 0 5.4 2.13 5.4 5.4-.01 4.28-2.07 5.74-5.69 5.74zm1.76-.3c3.55-.04 5.35-1.27 5.38-5.44-.01-3.13-1.97-5.08-5.09-5.1-.97 0-1.43.09-1.88.14v10.4z"/><path id="&lt;Path&gt;" class="s0" d="m139.46 209.39.06-.07v-13.47c0-2.94-2.04-3.37-3.11-3.37h-.8v-1.09c1.7 0 3.34.15 5.03.15 1.48 0 2.95-.15 4.42-.15v1.09h-.53c-1.51 0-3.2.28-3.2 4.56v16.34c0 1.25.03 2.51.21 3.62h-1.36l-18.49-20.61v14.79c0 3.13.61 4.2 3.37 4.2h.62v1.08c-1.55 0-3.1-.14-4.64-.14-1.62 0-3.27.14-4.88.14v-1.08h.49c2.49 0 3.24-1.68 3.24-4.55v-15.12c0-2.02-1.66-3.23-3.27-3.23h-.46v-1.09c1.36 0 2.77.15 4.13.15 1.07 0 2.11-.15 3.19-.15z"/><path id="&lt;Compound Path&gt;" class="s0" d="m141.54 217.16-1.48-.06-18.22-20.3v14.38c.04 3.14.52 4.01 3.22 4.05h.77v1.39h-.16c-1.55 0-3.1-.15-4.63-.15-1.61 0-3.27.15-4.88.15h-.17v-1.39h.66c2.37-.01 3.06-1.54 3.08-4.41v-15.11c-.01-1.92-1.57-3.08-3.11-3.08h-.63v-1.38h.17c1.36 0 2.77.14 4.13.14 1.05 0 2.09-.14 3.29-.1l15.79 17.77v-13.21c0-2.85-1.92-3.2-2.96-3.22h-.95v-1.38h.15c1.71 0 3.36.14 5.04.14 1.46 0 2.93-.14 4.41-.14h.15v1.38h-.68c-1.48.04-3.01.18-3.05 4.4v16.35c0 1.25.03 2.49.21 3.6l.02.18zm-1.36-.32h1.18c-.15-1.07-.19-2.27-.19-3.46v-16.35c0-4.3 1.82-4.7 3.36-4.71h.38v-.76c-1.42.01-2.84.14-4.26.14-1.65 0-3.26-.13-4.87-.14v.76h.63c1.11.01 3.28.49 3.28 3.53l-.05 13.58-.06.06-.12.13-15.98-18.06c-1.06 0-2.11.14-3.19.14-1.33 0-2.68-.13-3.98-.14v.76h.31c1.69.01 3.43 1.28 3.43 3.39v15.11c0 2.88-.82 4.71-3.4 4.73h-.34v.75c1.56-.01 3.16-.14 4.73-.14 1.5 0 2.99.13 4.48.14v-.75h-.45c-2.83 0-3.54-1.23-3.55-4.37v-15.19zm-.72-7.46.12-.1zm-.09-.07v-.01l-.02-.03zM150.85 211.33c-.37 1.22-.81 2.16-.81 2.8 0 1.08 1.52 1.25 2.7 1.25h.4v1.08c-1.44-.07-2.91-.14-4.35-.14-1.3 0-2.58.07-3.87.14v-1.08h.21c1.4 0 2.59-.82 3.11-2.33l5.76-16.47c.46-1.34 1.12-3.13 1.33-4.47 1.14-.39 2.58-1.1 3.27-1.54.11-.04.16-.06.28-.06.1 0 .18 0 .25.1.11.29.22.61.33.9l6.6 18.78c.43 1.25.87 2.59 1.33 3.67.43 1 1.19 1.42 2.37 1.42h.21v1.08c-1.61-.07-3.23-.14-4.95-.14-1.75 0-3.55.07-5.38.14v-1.08h.4c.82 0 2.22-.13 2.22-1.03 0-.47-.32-1.44-.73-2.59l-1.4-4.17h-8.15zm5.24-15.91h-.07l-3.34 10.17h6.71z"/><path id="&lt;Compound Path&gt;" class="s0" d="M169.96 216.62c-1.6-.07-3.22-.15-4.94-.15-1.75 0-3.54.08-5.38.15l-.16.01v-1.41h.55c.83 0 2.06-.18 2.06-.87.01-.41-.3-1.4-.7-2.54l-1.37-4.06h-7.92l-1.12 3.62c-.37 1.23-.79 2.18-.79 2.76.01.88 1.36 1.09 2.55 1.09h.55v1.41l-.16-.01c-1.44-.07-2.91-.15-4.34-.15-1.29 0-2.58.08-3.87.15l-.16.01v-1.41h.36c1.34 0 2.45-.77 2.97-2.22l5.75-16.48c.48-1.33 1.12-3.12 1.43-4.55 1.13-.39 2.57-1.11 3.27-1.54.1-.04.19-.09.34-.09.09-.01.28.02.39.22q.17.45.33.9l6.61 18.78c.43 1.25.86 2.58 1.32 3.64.42.96 1.08 1.34 2.23 1.34h.37v1.41zm-10.17-.33c1.77-.05 3.52-.13 5.23-.13 1.67 0 3.23.08 4.8.13v-.74h-.06q-1.84.03-2.52-1.53c-.46-1.09-.9-2.42-1.32-3.68l-6.61-18.78c-.11-.29-.22-.61-.31-.87-.03-.03-.02-.03-.05-.03h-.07c-.07 0-.12.02-.21.04-.69.45-2.14 1.16-3.2 1.44-.22 1.36-.86 3.15-1.33 4.48l-5.74 16.49c-.55 1.55-1.81 2.44-3.28 2.44h-.05v.74c1.23-.05 2.47-.13 3.72-.13 1.39 0 2.81.08 4.18.13v-.74h-.23c-1.17-.02-2.81-.14-2.85-1.42 0-.71.44-1.64.8-2.84l.16.04-.16-.05 1.18-3.84h8.37l1.44 4.27c.4 1.16.73 2.11.73 2.64-.06 1.1-1.57 1.18-2.38 1.2h-.24zm-7.34-10.55 3.44-10.48h.19v.15l-.03.02.03-.02v-.15h.11l3.41 10.48zm.43-.31h6.28l-3.12-9.63zm3.04-9.96.09-.03z"/><path id="&lt;Path&gt;" class="s0" d="M171.56 193.19c-2.7 0-2.8.65-3.34 3.27h-1.08c.14-1 .32-2.01.43-3.06q.22-1.49.22-3.04h.86c.28 1.08 1.18 1.03 2.15 1.03h18.53c.97 0 1.86-.03 1.93-1.11l.87.15q-.22 1.45-.4 2.91c-.08.96-.08 1.94-.08 2.91l-1.07.4c-.06-1.34-.25-3.46-2.65-3.46h-5.89v19.11c0 2.77 1.26 3.08 2.98 3.08h.68v1.08c-1.4 0-3.91-.14-5.85-.14-2.15 0-4.67.14-6.08.14v-1.08h.69c1.98 0 2.99-.17 2.99-3v-19.19z"/><path id="&lt;Path&gt;" class="s0" d="M185.7 216.62c-1.4 0-3.92-.15-5.85-.15-2.15 0-4.66.15-6.08.15h-.15v-1.39h.84c1.98-.05 2.77-.07 2.82-2.86v-19.02h-5.72v-.31h6.03v19.33c0 2.88-1.15 3.16-3.13 3.18h-.53v.76c1.42-.02 3.83-.15 5.92-.15 1.87 0 4.28.13 5.7.15l-.01-.76h-.53c-1.72-.02-3.12-.43-3.12-3.25v-19.26h6.04c2.41.01 2.72 2.05 2.79 3.38l.78-.29c0-.93 0-1.87.08-2.81q.16-1.38.37-2.75l-.54-.1c-.17 1.04-1.18 1.1-2.08 1.09h-18.71c-.85 0-1.76-.05-2.09-1.06h-.59q-.01 1.5-.22 2.93c-.1.99-.27 1.94-.41 2.87h.78c.47-2.49.78-3.31 3.47-3.26v.31c-2.67.04-2.61.49-3.19 3.15l-.03.12H166.95l.03-.19c.14-1 .32-2 .43-3.04q.22-1.5.21-3.03v-.16h1.14l.03.12c.25.9.92.91 1.83.93h18.71c.99-.02 1.72-.04 1.78-.98v-.16l.18.03 1.02.16-.03.15q-.23 1.45-.39 2.9c-.07.96-.07 1.93-.07 2.9v.11l-.11.04-1.27.46v-.21c-.1-1.35-.24-3.3-2.51-3.3h-5.74v18.95c.04 2.71 1.12 2.9 2.82 2.93h.84v1.39zM193.45 215.38h.5c1.3 0 2.66-.17 2.66-2.04v-18.81c0-1.88-1.36-2.05-2.66-2.05h-.5v-1.09c1.4 0 3.55.15 5.31.15 1.8 0 3.95-.15 5.65-.15v1.09h-.5c-1.31 0-2.68.17-2.68 2.05v18.81c0 1.87 1.37 2.04 2.68 2.04h.5v1.08c-1.73 0-3.89-.14-5.68-.14-1.76 0-3.88.14-5.28.14z"/><path id="&lt;Compound Path&gt;" class="s0" d="M204.41 216.62c-1.74 0-3.89-.15-5.68-.15-1.76 0-3.88.15-5.28.15h-.15v-1.39h.65c1.3-.02 2.49-.14 2.49-1.89v-18.82c0-1.74-1.19-1.87-2.49-1.89h-.65v-1.38h.15c1.4 0 3.56.14 5.31.14 1.8 0 3.95-.14 5.65-.14h.14v1.38h-.64c-1.32.02-2.5.15-2.51 1.89v18.82c.01 1.75 1.19 1.87 2.51 1.89h.64v1.39zm-.16-.32v-.75h-.34c-1.29 0-2.82-.23-2.82-2.21v-18.82c0-1.98 1.53-2.2 2.82-2.2h.34v-.76c-1.66.01-3.73.14-5.48.14-1.71 0-3.77-.13-5.16-.14v.76h.35c1.27 0 2.81.22 2.81 2.2v18.82c0 1.98-1.54 2.21-2.81 2.21h-.35v.75c1.39-.02 3.42-.14 5.12-.14 1.75 0 3.83.13 5.52.14zM218.73 190.86c7.65 0 13.75 4.74 13.75 12.39 0 8.26-5.92 13.75-13.57 13.75-7.62 0-13.42-5.16-13.42-12.89 0-7.46 5.77-13.25 13.24-13.25zm.53 24.56c6.98 0 8.18-6.14 8.18-11.37 0-5.25-2.82-11.61-8.78-11.61-6.29 0-8.15 5.6-8.15 10.41 0 6.43 2.94 12.57 8.75 12.57z"/><path id="&lt;Compound Path&gt;" class="s0" d="M205.32 204.11c.02-7.55 5.86-13.39 13.41-13.41v.32c-7.39 0-13.11 5.7-13.11 13.09.01 7.63 5.75 12.73 13.29 12.73 7.57 0 13.4-5.41 13.42-13.59 0-7.56-6.01-12.22-13.6-12.23v-.32c7.7.02 13.89 4.81 13.9 12.55 0 8.34-6 13.89-13.72 13.91-7.68-.02-13.57-5.25-13.59-13.05zm5.02-1.26c.02-4.83 1.91-10.57 8.31-10.57 6.11.01 8.95 6.49 8.95 11.77 0 5.23-1.24 11.52-8.34 11.52v-.3c6.84-.01 8.02-5.99 8.03-11.22 0-5.21-2.8-11.44-8.64-11.45-6.15.01-7.98 5.47-7.99 10.25.01 6.4 2.92 12.4 8.6 12.42v.3c-5.95-.01-8.9-6.26-8.92-12.72z"/><path id="&lt;Path&gt;" class="s0" d="m256.68 209.39.07-.07v-13.47c0-2.94-2.04-3.37-3.13-3.37h-.78v-1.09c1.68 0 3.34.15 5.02.15 1.49 0 2.95-.15 4.42-.15v1.09h-.54c-1.51 0-3.2.28-3.2 4.56v16.34c0 1.25.04 2.51.22 3.62h-1.37l-18.49-20.61v14.79c0 3.13.61 4.2 3.38 4.2h.61v1.08c-1.54 0-3.08-.14-4.63-.14-1.62 0-3.27.14-4.89.14v-1.08h.51c2.48 0 3.22-1.68 3.22-4.55v-15.12c0-2.02-1.64-3.23-3.27-3.23h-.46v-1.09c1.37 0 2.76.15 4.13.15 1.08 0 2.12-.15 3.2-.15z"/><path id="&lt;Compound Path&gt;" class="s0" d="m258.76 217.16-1.49-.06-18.22-20.3v14.38c.05 3.14.52 4.01 3.22 4.04h.78v1.4h-.16c-1.55 0-3.1-.14-4.63-.14-1.61 0-3.26.14-4.89.14h-.15v-1.4h.66c2.36-.01 3.05-1.53 3.07-4.39v-15.12c0-1.92-1.57-3.08-3.12-3.08h-.61v-1.38h.15c1.37 0 2.77.14 4.13.14 1.06 0 2.1-.14 3.32-.09l15.77 17.76v-13.21c-.01-2.85-1.91-3.2-2.97-3.22h-.94v-1.38h.16c1.69 0 3.35.14 5.01.14 1.48 0 2.94-.14 4.43-.14h.15v1.38H261.74c-1.47.04-3 .18-3.03 4.4v16.35c0 1.25.03 2.5.19 3.6l.03.18zm-1.37-.32h1.19c-.16-1.07-.19-2.27-.19-3.46v-16.35c0-4.31 1.82-4.7 3.36-4.71h.38v-.76c-1.42.01-2.84.14-4.27.14-1.63 0-3.23-.13-4.86-.14v.76h.62c1.12.01 3.29.5 3.29 3.53l-.05 13.58-.06.06-.12.13-15.98-18.06c-1.06 0-2.11.14-3.19.14-1.33 0-2.68-.13-3.98-.14v.76h.31c1.69.01 3.42 1.28 3.42 3.39v15.12c0 2.87-.8 4.7-3.38 4.72h-.35v.75c1.56-.01 3.15-.14 4.73-.14 1.5 0 2.99.13 4.48.14v-.75h-.47c-2.82 0-3.52-1.23-3.52-4.37v-15.19zm-.71-7.46.12-.1zm-.09-.07v-.01l-.04-.03zM268.05 211.33c-.35 1.22-.78 2.16-.78 2.8 0 1.08 1.52 1.25 2.68 1.25h.41v1.08c-1.44-.07-2.91-.14-4.35-.14-1.31 0-2.59.07-3.87.14v-1.08h.19c1.41 0 2.6-.82 3.14-2.33l5.75-16.47c.47-1.34 1.11-3.13 1.32-4.47 1.15-.39 2.59-1.1 3.27-1.54.11-.04.18-.06.29-.06.1 0 .17 0 .25.1.11.29.21.61.33.9l6.6 18.78c.42 1.25.87 2.59 1.33 3.67.43 1 1.19 1.42 2.37 1.42h.22v1.08c-1.62-.07-3.24-.14-4.96-.14-1.76 0-3.56.07-5.39.14v-1.08h.4c.82 0 2.23-.13 2.23-1.03 0-.47-.33-1.44-.73-2.59l-1.39-4.17h-8.14zm5.24-15.91h-.07l-3.34 10.17h6.72z"/><path id="&lt;Compound Path&gt;" class="s0" d="M287.19 216.62c-1.62-.07-3.24-.15-4.95-.15-1.75 0-3.55.08-5.38.15l-.16.01v-1.39h.54c.84 0 2.08-.2 2.08-.89.01-.41-.31-1.4-.72-2.54l-1.36-4.06h-7.93l-1.1 3.62c-.36 1.24-.8 2.18-.79 2.76 0 .88 1.35 1.11 2.53 1.11h.56V216.63l-.17-.01c-1.43-.07-2.9-.15-4.33-.15-1.29 0-2.58.08-3.87.15l-.16.01v-1.39h.36c1.34-.02 2.46-.79 2.98-2.24l5.75-16.48c.46-1.33 1.11-3.12 1.42-4.55 1.13-.39 2.57-1.11 3.26-1.54q.14-.07.35-.08c.09-.02.28.01.4.21.1.28.2.61.32.9l6.61 18.78c.42 1.25.86 2.58 1.33 3.65.42.95 1.06 1.33 2.22 1.35h.37V216.63zm-10.18-.32c1.77-.06 3.52-.14 5.23-.14 1.67 0 3.23.08 4.79.13v-.74h-.05c-1.22 0-2.07-.48-2.52-1.53-.48-1.09-.9-2.42-1.33-3.68l-6.6-18.78c-.11-.29-.23-.61-.31-.86-.03-.04-.03-.04-.06-.04h-.06c-.08 0-.12.02-.21.04-.69.44-2.13 1.16-3.2 1.44-.22 1.36-.87 3.15-1.33 4.48l-5.75 16.49c-.55 1.55-1.79 2.44-3.27 2.44h-.06v.74c1.24-.05 2.48-.13 3.73-.13 1.39 0 2.8.08 4.19.13v-.74h-.25c-1.16-.02-2.8-.14-2.84-1.42 0-.71.45-1.63.8-2.84l.14.04-.14-.05 1.18-3.84h8.38l1.43 4.27c.4 1.16.72 2.11.72 2.64-.05 1.1-1.56 1.18-2.38 1.2h-.23zm-7.35-10.57 3.46-10.46h.17v.15l-.03.01.03-.01v-.15h.12l3.39 10.46zm.44-.31h6.29l-3.13-9.61zm3.05-9.95.07-.02z"/><path id="&lt;Path&gt;" class="s0" d="M296.25 212.94c0 1.44 1 1.87 2.15 2.02 1.47.11 3.08.11 4.74-.07 1.5-.18 2.8-1.05 3.44-1.95.57-.79.89-1.79 1.12-2.58h1.04c-.4 2.04-.9 4.06-1.34 6.1-3.15 0-6.32-.14-9.47-.14-3.16 0-6.33.14-9.48.14v-1.08h.49c1.31 0 2.7-.17 2.7-2.4v-18.45c0-1.88-1.39-2.05-2.7-2.05h-.49v-1.09c1.9 0 3.77.15 5.67.15 1.83 0 3.63-.15 5.46-.15v1.09h-.9c-1.36 0-2.43.04-2.43 1.94z"/><path id="&lt;Compound Path&gt;" class="s0" d="M307.4 216.62c-3.16 0-6.32-.15-9.47-.15-3.16 0-6.32.15-9.49.15h-.14v-1.39h.64c1.3-.03 2.54-.12 2.56-2.26v-18.45c-.02-1.74-1.24-1.87-2.56-1.89h-.64v-1.38h.14c1.92 0 3.78.14 5.68.14 1.83 0 3.62-.14 5.46-.14h.15v1.38h-1.05c-1.39.04-2.26-.03-2.29 1.79v18.53c.01 1.33.89 1.69 2.02 1.85q.94.07 1.98.07 1.32 0 2.73-.14c1.46-.17 2.71-1.01 3.34-1.87.55-.77.87-1.76 1.07-2.54l.04-.12H308.93l-.04.19c-.4 2.05-.89 4.06-1.33 6.11l-.04.12zm-.12-.32c.41-1.94.89-3.85 1.26-5.79h-.74c-.21.79-.53 1.75-1.1 2.53-.67.93-2 1.81-3.56 2q-1.42.15-2.75.14-1.05 0-2.02-.07c-1.16-.13-2.3-.63-2.29-2.16v-18.53c0-2 1.26-2.1 2.6-2.1h.74v-.76c-1.77.01-3.52.14-5.3.14-1.87 0-3.69-.13-5.52-.14v.76h.34c1.29 0 2.85.22 2.85 2.2v18.45c0 2.33-1.56 2.58-2.85 2.58h-.34v.75c3.1 0 6.21-.14 9.33-.14s6.23.14 9.35.14zM308.3 190.38c2.16 0 3.78 1.67 3.78 3.79s-1.62 3.77-3.78 3.77c-2.16 0-3.79-1.65-3.79-3.77s1.63-3.79 3.79-3.79zm0 6.86c1.69 0 2.99-1.44 2.99-3.07s-1.28-3.08-2.99-3.08c-1.71 0-3 1.45-3 3.08 0 1.63 1.29 3.07 3 3.07zm-1.88-1.07v-.19c.46-.07.55-.05.55-.34v-2.8c0-.39-.05-.53-.54-.5v-.2h1.94c.66 0 1.27.32 1.27 1 0 .57-.36.98-.89 1.15l.62.87c.29.38.62.75.84.88v.13h-.74c-.35 0-.66-.75-1.36-1.74h-.41v1.25c0 .25.08.23.54.3v.19zm1.28-2h.44c.49 0 .72-.37.72-.96 0-.61-.36-.81-.74-.81h-.42z"/></g><g id="&lt;Group&gt;"><path id="&lt;Path&gt;" class="s0" d="M84.13 63.69c0-33.59 27.23-60.82 60.82-60.82s60.82 27.23 60.82 60.82-27.23 60.81-60.82 60.81-60.82-27.22-60.82-60.81z"/><path id="&lt;Compound Path&gt;" d="M145.03 125.59c-34.85.16-63.53-28.07-63.53-62.44 0-37.57 28.68-63.55 63.53-63.54h16.34c34.44-.01 65.87 25.96 65.87 63.54 0 34.35-31.43 62.44-65.87 62.44zm.14-120.77c-31.85.01-57.65 25.82-57.65 57.67s25.8 57.65 57.65 57.65c31.86 0 57.67-25.8 57.68-57.65-.01-31.85-25.82-57.66-57.68-57.67zm-13.09 91.77V28.38c-13.7 5.28-23.42 18.54-23.46 34.11.04 15.56 9.76 28.83 23.46 34.1zm49.65-34.1c-.03-15.58-9.76-28.86-23.48-34.12v68.24c13.72-5.27 23.45-18.54 23.48-34.12z" style="fill:#084f96"/></g></g></g></svg>