<svg version="1.2" xmlns="http://www.w3.org/2000/svg" viewBox="0 0.15 95.69 62.85" width="90" height="59"><defs><clipPath clipPathUnits="userSpaceOnUse" id="cp1"><path d="M53.91 31.43c0 3.62-2.93 6.56-6.56 6.56-3.62 0-6.55-2.94-6.55-6.56 0-3.62 2.93-6.55 6.55-6.55 3.63 0 6.56 2.93 6.56 6.55z"/></clipPath><clipPath clipPathUnits="userSpaceOnUse" id="cp2"><path d="M93.39 5.45V57.7c0 1.66-1.34 3-3 3H5.3c-1.66 0-3-1.34-3-3V5.45c0-1.66 1.34-3 3-3h85.09c1.66 0 3 1.34 3 3zm-4.48 26.13c0-15.54-12.6-28.13-28.13-28.13H5.3c-1.11 0-2 .89-2 2V57.7c0 1.11.89 2 2 2h55.48c15.53 0 28.13-12.59 28.13-28.12z"/></clipPath><clipPath clipPathUnits="userSpaceOnUse" id="cp3"><path d="M101.91 31.58c0 29.84-24.19 54.03-54.03 54.03-29.85 0-54.04-24.19-54.04-54.03 0-29.85 24.19-54.04 54.04-54.04 29.84 0 54.03 24.19 54.03 54.04z"/></clipPath><linearGradient id="g1" x2="1" gradientUnits="userSpaceOnUse" gradientTransform="scale(-11.643) rotate(57.44 1.51 -5.347)"><stop offset="0" stop-color="#ff9200"/><stop offset=".62" stop-color="#ff7100"/><stop offset="1" stop-color="#ff5200"/></linearGradient><linearGradient id="g2" x2="1" gradientUnits="userSpaceOnUse" gradientTransform="scale(-19.596) rotate(62.905 .67 -2.877)"><stop offset="0" stop-color="#ff7100" stop-opacity="0"/><stop offset=".982" stop-color="#ff2b00" stop-opacity=".74"/></linearGradient></defs><style>.s1{fill:#261f20}.s233{fill:#e45716}</style><g id="Mark"><path id="&lt;Path&gt;" d="M3.3 5.45V57.7c0 1.11.89 2 2 2h55.48c15.53 0 28.13-12.59 28.13-28.12 0-15.54-12.6-28.13-28.13-28.13H5.3c-1.11 0-2 .89-2 2z" style="fill:#fff"/><g id="&lt;Group&gt;"><g id="&lt;Group&gt;"><path id="&lt;Compound Path&gt;" class="s1" d="M10.06 25.25H6.51v12.38h3.53c1.87 0 3.23-.44 4.42-1.43a6.197 6.197 0 0 0 2.24-4.75c0-3.65-2.73-6.2-6.64-6.2zm2.82 9.3c-.76.69-1.75.99-3.31.99h-.64v-8.19h.64c1.56 0 2.51.28 3.31 1 .83.75 1.34 1.9 1.34 3.08 0 1.19-.51 2.38-1.34 3.12z"/><path id="&lt;Path&gt;" class="s1" d="M17.82 37.63h2.41V25.25h-2.41zM26.13 30c-1.45-.53-1.87-.89-1.87-1.55 0-.78.76-1.38 1.8-1.38.72 0 1.32.3 1.94 1.01l1.27-1.66a5.41 5.41 0 0 0-3.64-1.37c-2.19 0-3.86 1.52-3.86 3.55 0 1.7.78 2.58 3.05 3.39.94.33 1.42.56 1.66.71q.73.48.73 1.28c0 1-.8 1.74-1.88 1.74-1.15 0-2.08-.57-2.63-1.65l-1.56 1.5c1.11 1.64 2.45 2.36 4.28 2.36 2.51 0 4.27-1.67 4.27-4.06 0-1.97-.81-2.86-3.56-3.87zM30.46 31.45c0 3.64 2.85 6.46 6.53 6.46 1.04 0 1.93-.2 3.03-.72v-2.84c-.97.96-1.82 1.35-2.92 1.35-2.43 0-4.16-1.76-4.16-4.27 0-2.37 1.79-4.25 4.05-4.25 1.15 0 2.02.41 3.03 1.4v-2.84c-1.06-.54-1.93-.77-2.97-.77-3.66 0-6.59 2.88-6.59 6.48zM59.16 33.57l-3.3-8.32h-2.64l5.26 12.7h1.3l5.34-12.7h-2.61zM66.22 37.63h6.84v-2.09h-4.43V32.2h4.27v-2.1h-4.27v-2.75h4.43v-2.1h-6.84z"/><path id="&lt;Compound Path&gt;" class="s1" d="M82.63 28.91c0-2.32-1.6-3.66-4.39-3.66h-3.58v12.38h2.41v-4.97h.32l3.34 4.97h2.97l-3.9-5.21c1.82-.37 2.83-1.62 2.83-3.51zm-4.85 2.04h-.71V27.2h.75c1.5 0 2.32.63 2.32 1.84 0 1.24-.82 1.91-2.36 1.91zM84.55 25.9q-.01-.33-.41-.33h-.35v1.09h.26v-.42l.3.42h.32l-.36-.45q.23-.07.24-.31zm-.46.15h-.04v-.28h.04q.2 0 .2.14t-.2.14z"/><path id="&lt;Compound Path&gt;" class="s1" d="M84.19 25.16c-.53 0-.95.42-.95.95s.42.95.95.95c.51 0 .94-.43.94-.95s-.43-.95-.94-.95zm-.01 1.73c-.41 0-.75-.34-.75-.78 0-.43.33-.78.75-.78s.76.36.76.78c0 .43-.34.78-.76.78z"/><g id="&lt;Group&gt;"><path id="&lt;Path&gt;" d="M53.91 31.43c0 3.62-2.93 6.56-6.55 6.56-3.62 0-6.56-2.94-6.56-6.56 0-3.62 2.94-6.55 6.56-6.55 3.62 0 6.55 2.93 6.55 6.55z" style="fill:url(#g1)"/><path id="&lt;Path&gt;" d="M53.91 31.43c0 3.62-2.93 6.56-6.55 6.56-3.62 0-6.56-2.94-6.56-6.56 0-3.62 2.94-6.55 6.56-6.55 3.62 0 6.55 2.93 6.55 6.55z" style="opacity:.65;mix-blend-mode:multiply;fill:url(#g2)"/></g><g id="&lt;Clip Group&gt;" style="opacity:.5;mix-blend-mode:multiply"><g id="&lt;Group&gt;"><path id="&lt;Path&gt;" d="M47.38 24.78c3.7 0 6.69 2.98 6.69 6.68a6.69 6.69 0 0 1-6.69 6.69c-3.69 0-6.68-2.99-6.68-6.69a6.68 6.68 0 0 1 6.68-6.68z" style="fill:#020000"/><path id="&lt;Path&gt;" d="M47.39 24.79c3.69 0 6.69 2.98 6.69 6.67s-3 6.7-6.69 6.7c-3.69 0-6.69-3-6.68-6.69a6.68 6.68 0 0 1 6.68-6.68z" style="fill:#030100"/><path id="&lt;Path&gt;" d="M47.4 24.8c3.69 0 6.69 2.97 6.69 6.67 0 3.69-3 6.7-6.69 6.7-3.69 0-6.69-3-6.69-6.69.01-3.69 3-6.68 6.69-6.68z" style="fill:#050100"/><path id="&lt;Path&gt;" d="M47.4 24.81c3.69 0 6.7 2.97 6.7 6.66s-3 6.7-6.7 6.7a6.68 6.68 0 0 1-6.68-6.68c.01-3.69 3-6.68 6.68-6.68z" style="fill:#070200"/><path id="&lt;Path&gt;" d="M47.41 24.82c3.69.01 6.7 2.96 6.7 6.65 0 3.69-3.01 6.71-6.7 6.71a6.68 6.68 0 0 1-6.68-6.68c.01-3.69 3-6.68 6.68-6.68z" style="fill:#080200"/><path id="&lt;Path&gt;" d="M47.42 24.83c3.69.01 6.7 2.96 6.7 6.65 0 3.69-3.01 6.71-6.7 6.71-3.69 0-6.69-2.99-6.68-6.68 0-3.69 3-6.69 6.68-6.68z" style="fill:#0a0300"/><path id="&lt;Path&gt;" d="M47.43 24.84c3.68.01 6.7 2.95 6.7 6.64 0 3.69-3.02 6.72-6.7 6.72-3.69 0-6.69-2.99-6.68-6.68 0-3.69 3-6.69 6.68-6.68z" style="fill:#0c0300"/><path id="&lt;Path&gt;" d="M47.43 24.85c3.69.01 6.71 2.95 6.71 6.64 0 3.68-3.02 6.72-6.71 6.72s-6.68-2.99-6.67-6.68c0-3.69 3-6.69 6.67-6.68z" style="fill:#0e0400"/><path id="&lt;Path&gt;" d="M47.44 24.86c3.69.01 6.71 2.94 6.71 6.63s-3.02 6.73-6.71 6.73-6.69-2.99-6.68-6.68c.01-3.69 3.01-6.69 6.68-6.68z" style="fill:#0f0400"/><path id="&lt;Path&gt;" d="M47.45 24.88c3.68.01 6.71 2.93 6.71 6.62 0 3.68-3.03 6.73-6.71 6.73-3.69 0-6.69-2.99-6.68-6.68.01-3.69 3.01-6.69 6.68-6.67z" style="fill:#110500"/><path id="&lt;Path&gt;" d="M47.45 24.89c3.69.01 6.72 2.92 6.72 6.61 0 3.69-3.03 6.74-6.72 6.74-3.68 0-6.68-2.99-6.67-6.68.01-3.69 3-6.69 6.67-6.67z" style="fill:#130500"/><path id="&lt;Path&gt;" d="M47.46 24.9c3.69.01 6.72 2.92 6.72 6.6 0 3.69-3.03 6.74-6.72 6.74-3.68 0-6.68-2.98-6.67-6.67.01-3.69 3-6.69 6.67-6.67z" style="fill:#140600"/><path id="&lt;Path&gt;" d="M47.47 24.91c3.68.01 6.72 2.91 6.72 6.6 0 3.68-3.04 6.74-6.72 6.74-3.69 0-6.69-2.98-6.67-6.67.01-3.69 3-6.69 6.67-6.67z" style="fill:#160600"/><path id="&lt;Path&gt;" d="M47.48 24.92c3.68.02 6.72 2.91 6.72 6.59 0 3.69-3.04 6.75-6.72 6.75-3.69 0-6.69-2.99-6.67-6.67.01-3.69 3-6.69 6.67-6.67z" style="fill:#180600"/><path id="&lt;Path&gt;" d="M47.48 24.93c3.69.02 6.73 2.9 6.73 6.59 0 3.68-3.04 6.75-6.73 6.75-3.68 0-6.68-2.99-6.67-6.67.02-3.69 3.01-6.69 6.67-6.67z" style="fill:#190700"/><path id="&lt;Path&gt;" d="M47.49 24.94c3.68.02 6.73 2.9 6.73 6.58s-3.05 6.76-6.73 6.76c-3.68 0-6.68-2.99-6.67-6.67.02-3.69 3.01-6.69 6.67-6.67z" style="fill:#1b0700"/><path id="&lt;Path&gt;" d="M47.5 24.95c3.68.02 6.73 2.89 6.73 6.57 0 3.69-3.05 6.77-6.73 6.77-3.68 0-6.69-2.99-6.67-6.67.02-3.69 3.01-6.69 6.67-6.67z" style="fill:#1d0800"/><path id="&lt;Path&gt;" d="M47.5 24.96c3.69.02 6.74 2.89 6.74 6.57s-3.05 6.77-6.74 6.77c-3.68 0-6.68-2.99-6.66-6.67.02-3.7 3.01-6.69 6.66-6.67z" style="fill:#1f0800"/><path id="&lt;Path&gt;" d="M47.51 24.97c3.68.03 6.74 2.88 6.74 6.56 0 3.68-3.06 6.77-6.74 6.77s-6.68-2.98-6.66-6.66c.02-3.7 3.01-6.69 6.66-6.67z" style="fill:#200900"/><path id="&lt;Path&gt;" d="M47.52 24.99c3.68.02 6.74 2.87 6.74 6.55 0 3.68-3.06 6.77-6.74 6.77s-6.68-2.98-6.66-6.66c.02-3.7 3.01-6.69 6.66-6.66z" style="fill:#220900"/><path id="&lt;Path&gt;" d="M47.53 25c3.67.02 6.74 2.86 6.74 6.54s-3.06 6.78-6.74 6.78-6.69-2.98-6.67-6.66c.03-3.7 3.02-6.69 6.67-6.66z" style="fill:#240a00"/><path id="&lt;Path&gt;" d="M47.53 25.01c3.68.02 6.75 2.86 6.75 6.54s-3.07 6.78-6.75 6.78-6.68-2.98-6.66-6.66c.02-3.7 3.02-6.69 6.66-6.66z" style="fill:#250a00"/><path id="&lt;Path&gt;" d="M47.54 25.02c3.68.03 6.75 2.85 6.75 6.53s-3.07 6.79-6.75 6.79-6.68-2.98-6.66-6.66c.02-3.7 3.02-6.69 6.66-6.66z" style="fill:#270b00"/><path id="&lt;Path&gt;" d="M47.55 25.03c3.67.03 6.75 2.85 6.75 6.52 0 3.68-3.08 6.8-6.75 6.8-3.68 0-6.69-2.98-6.66-6.66.02-3.7 3.01-6.69 6.66-6.66z" style="fill:#290b00"/><path id="&lt;Path&gt;" d="M47.55 25.04c3.68.03 6.76 2.84 6.76 6.52 0 3.68-3.08 6.8-6.76 6.8-3.67 0-6.68-2.98-6.65-6.66.02-3.7 3.01-6.69 6.65-6.66z" style="fill:#2a0c00"/><path id="&lt;Path&gt;" d="M47.56 25.05c3.68.03 6.76 2.84 6.76 6.51 0 3.68-3.08 6.8-6.76 6.8-3.67 0-6.68-2.98-6.65-6.65.02-3.7 3.01-6.69 6.65-6.66z" style="fill:#2c0c00"/><path id="&lt;Path&gt;" d="M47.57 25.06c3.67.03 6.76 2.83 6.76 6.51 0 3.67-3.09 6.8-6.76 6.8-3.68 0-6.68-2.98-6.66-6.65.03-3.7 3.02-6.69 6.66-6.66z" style="fill:#2e0d00"/><path id="&lt;Path&gt;" d="M47.58 25.07c3.67.04 6.76 2.83 6.76 6.5 0 3.68-3.09 6.81-6.76 6.81-3.68 0-6.69-2.98-6.66-6.65.03-3.7 3.02-6.69 6.66-6.66z" style="fill:#300d00"/><path id="&lt;Path&gt;" d="M47.58 25.09c3.68.03 6.77 2.81 6.77 6.49 0 3.67-3.09 6.81-6.77 6.81-3.67 0-6.68-2.98-6.65-6.65.03-3.7 3.02-6.69 6.65-6.65z" style="fill:#310d00"/><path id="&lt;Path&gt;" d="M47.59 25.1c3.67.03 6.77 2.81 6.77 6.48 0 3.67-3.1 6.82-6.77 6.82-3.67 0-6.68-2.98-6.65-6.65.03-3.7 3.02-6.69 6.65-6.65z" style="fill:#330e00"/><path id="&lt;Path&gt;" d="M47.6 25.11c3.67.03 6.77 2.8 6.77 6.47 0 3.68-3.1 6.83-6.77 6.83-3.68 0-6.68-2.98-6.65-6.65.03-3.7 3.02-6.69 6.65-6.65z" style="fill:#350e00"/><path id="&lt;Path&gt;" d="M47.6 25.12c3.68.03 6.78 2.8 6.78 6.47s-3.1 6.83-6.78 6.83c-3.67 0-6.68-2.98-6.64-6.65.03-3.7 3.02-6.69 6.64-6.65z" style="fill:#360f00"/><path id="&lt;Path&gt;" d="M47.61 25.13c3.67.04 6.78 2.79 6.78 6.46s-3.11 6.84-6.78 6.84c-3.67 0-6.68-2.98-6.65-6.65.04-3.7 3.03-6.69 6.65-6.65z" style="fill:#380f00"/><path id="&lt;Path&gt;" d="M47.62 25.14c3.67.04 6.78 2.79 6.78 6.46s-3.11 6.83-6.78 6.83c-3.67 0-6.68-2.97-6.65-6.64.04-3.7 3.03-6.69 6.65-6.65z" style="fill:#3a1000"/><path id="&lt;Path&gt;" d="M47.63 25.15c3.67.04 6.78 2.78 6.78 6.45 0 3.67-3.11 6.84-6.78 6.84-3.67 0-6.68-2.97-6.65-6.64.04-3.7 3.03-6.69 6.65-6.65z" style="fill:#3b1000"/><path id="&lt;Path&gt;" d="M47.63 25.16c3.67.04 6.79 2.78 6.79 6.45 0 3.67-3.12 6.84-6.79 6.84s-6.68-2.97-6.64-6.64c.04-3.7 3.03-6.69 6.64-6.65z" style="fill:#3d1100"/><path id="&lt;Path&gt;" d="M47.64 25.17c3.67.05 6.79 2.77 6.79 6.44 0 3.67-3.12 6.85-6.79 6.85s-6.68-2.97-6.64-6.64c.03-3.7 3.03-6.69 6.64-6.65z" style="fill:#3f1100"/><path id="&lt;Path&gt;" d="M47.65 25.18c3.66.05 6.79 2.77 6.79 6.43 0 3.67-3.12 6.86-6.79 6.86s-6.68-2.98-6.64-6.64c.03-3.7 3.02-6.69 6.64-6.65z" style="fill:#411200"/><path id="&lt;Path&gt;" d="M47.65 25.2c3.67.04 6.8 2.75 6.8 6.42s-3.13 6.86-6.8 6.86c-3.66 0-6.68-2.98-6.64-6.64.04-3.7 3.03-6.69 6.64-6.64z" style="fill:#421200"/><path id="&lt;Path&gt;" d="M47.66 25.21c3.67.04 6.8 2.75 6.8 6.41 0 3.67-3.13 6.87-6.8 6.87s-6.68-2.98-6.64-6.64c.04-3.7 3.03-6.69 6.64-6.64z" style="fill:#441300"/><path id="&lt;Path&gt;" d="M47.67 25.22c3.66.04 6.8 2.74 6.8 6.41 0 3.66-3.14 6.86-6.8 6.86-3.67 0-6.68-2.97-6.64-6.63.04-3.7 3.03-6.69 6.64-6.64z" style="fill:#461300"/><path id="&lt;Path&gt;" d="M47.68 25.23c3.66.05 6.8 2.74 6.8 6.4 0 3.67-3.14 6.87-6.8 6.87-3.67 0-6.68-2.97-6.64-6.63.04-3.7 3.03-6.69 6.64-6.64z" style="fill:#471300"/><path id="&lt;Path&gt;" d="M47.68 25.24c3.67.05 6.81 2.73 6.81 6.39 0 3.67-3.14 6.88-6.81 6.88-3.66 0-6.68-2.97-6.63-6.63.04-3.7 3.03-6.69 6.63-6.64z" style="fill:#491400"/><path id="&lt;Path&gt;" d="M47.69 25.25c3.66.05 6.81 2.72 6.81 6.39 0 3.66-3.15 6.88-6.81 6.88-3.66 0-6.68-2.97-6.63-6.63.04-3.7 3.03-6.69 6.63-6.64z" style="fill:#4b1400"/><path id="&lt;Path&gt;" d="M47.7 25.26c3.66.05 6.81 2.72 6.81 6.38 0 3.67-3.15 6.89-6.81 6.89-3.67 0-6.68-2.97-6.64-6.63.05-3.7 3.04-6.69 6.64-6.64z" style="fill:#4c1500"/><path id="&lt;Path&gt;" d="M47.7 25.27c3.67.06 6.82 2.71 6.82 6.38 0 3.66-3.15 6.89-6.82 6.89-3.66 0-6.67-2.97-6.63-6.63.05-3.7 3.04-6.69 6.63-6.64z" style="fill:#4e1500"/><path id="&lt;Path&gt;" d="M47.71 25.28c3.66.06 6.82 2.71 6.82 6.37s-3.16 6.9-6.82 6.9-6.68-2.97-6.63-6.63c.05-3.7 3.04-6.69 6.63-6.64z" style="fill:#501600"/><path id="&lt;Path&gt;" d="M47.72 25.3c3.66.05 6.82 2.69 6.82 6.36 0 3.66-3.16 6.9-6.82 6.9s-6.68-2.97-6.63-6.63c.05-3.7 3.04-6.69 6.63-6.63z" style="fill:#521600"/><path id="&lt;Path&gt;" d="M47.73 25.31c3.66.05 6.82 2.69 6.82 6.35 0 3.66-3.16 6.9-6.82 6.9-3.67 0-6.68-2.96-6.63-6.63.05-3.69 3.04-6.68 6.63-6.62z" style="fill:#531700"/><path id="&lt;Path&gt;" d="M47.73 25.32c3.66.05 6.83 2.68 6.83 6.34 0 3.67-3.17 6.91-6.83 6.91s-6.67-2.97-6.62-6.63c.05-3.69 3.04-6.68 6.62-6.62z" style="fill:#551700"/><path id="&lt;Path&gt;" d="M47.74 25.33c3.66.06 6.83 2.68 6.83 6.34 0 3.66-3.17 6.91-6.83 6.91s-6.68-2.97-6.63-6.63c.06-3.69 3.04-6.68 6.63-6.62z" style="fill:#571800"/><path id="&lt;Path&gt;" d="M47.75 25.34c3.66.06 6.83 2.67 6.83 6.33s-3.17 6.92-6.83 6.92-6.68-2.97-6.63-6.63c.06-3.69 3.04-6.68 6.63-6.62z" style="fill:#581800"/><path id="&lt;Path&gt;" d="M47.75 25.35c3.66.06 6.84 2.67 6.84 6.33s-3.18 6.92-6.84 6.92c-3.65 0-6.67-2.97-6.62-6.63.05-3.69 3.04-6.68 6.62-6.62z" style="fill:#5a1900"/><path id="&lt;Path&gt;" d="M47.76 25.36c3.66.06 6.84 2.66 6.84 6.32s-3.18 6.93-6.84 6.93c-3.66 0-6.68-2.97-6.62-6.63.05-3.69 3.04-6.68 6.62-6.62z" style="fill:#5c1900"/><path id="&lt;Path&gt;" d="M47.77 25.37c3.65.06 6.84 2.66 6.84 6.32 0 3.65-3.18 6.93-6.84 6.93-3.66 0-6.68-2.97-6.62-6.63.05-3.7 3.04-6.68 6.62-6.62z" style="fill:#5e1a00"/><path id="&lt;Path&gt;" d="M47.78 25.38c3.65.07 6.84 2.65 6.84 6.31 0 3.66-3.19 6.93-6.84 6.93-3.66 0-6.68-2.96-6.62-6.62.05-3.7 3.04-6.68 6.62-6.62z" style="fill:#5f1a00"/><path id="&lt;Path&gt;" d="M47.78 25.39c3.66.07 6.85 2.65 6.85 6.3 0 3.66-3.19 6.94-6.85 6.94-3.65 0-6.67-2.96-6.62-6.62.06-3.7 3.05-6.68 6.62-6.62z" style="fill:#611a00"/><path id="&lt;Path&gt;" d="M47.79 25.41c3.65.06 6.85 2.63 6.85 6.29 0 3.65-3.19 6.94-6.85 6.94-3.66 0-6.68-2.96-6.62-6.62.06-3.7 3.05-6.68 6.62-6.61z" style="fill:#631b00"/><path id="&lt;Path&gt;" d="M47.8 25.42c3.65.06 6.85 2.63 6.85 6.28 0 3.66-3.2 6.95-6.85 6.95-3.66 0-6.68-2.96-6.62-6.62.06-3.7 3.05-6.68 6.62-6.61z" style="fill:#641b00"/><path id="&lt;Path&gt;" d="M47.8 25.43c3.66.07 6.86 2.62 6.86 6.28 0 3.65-3.2 6.95-6.86 6.95-3.65 0-6.67-2.96-6.61-6.62.06-3.7 3.05-6.68 6.61-6.61z" style="fill:#661c00"/><path id="&lt;Path&gt;" d="M47.81 25.44c3.65.07 6.86 2.62 6.86 6.27 0 3.65-3.21 6.96-6.86 6.96-3.65 0-6.67-2.96-6.61-6.62.06-3.7 3.05-6.68 6.61-6.61z" style="fill:#681c00"/><path id="&lt;Path&gt;" d="M47.82 25.45c3.65.07 6.86 2.61 6.86 6.27 0 3.65-3.21 6.96-6.86 6.96-3.65 0-6.68-2.97-6.61-6.62.06-3.7 3.05-6.68 6.61-6.61z" style="fill:#691d00"/><path id="&lt;Path&gt;" d="M47.83 25.46c3.65.07 6.86 2.61 6.86 6.26s-3.21 6.96-6.86 6.96c-3.66 0-6.68-2.96-6.62-6.61.07-3.7 3.06-6.68 6.62-6.61z" style="fill:#6b1d00"/><path id="&lt;Path&gt;" d="M47.83 25.47c3.65.07 6.87 2.6 6.87 6.25 0 3.66-3.22 6.97-6.87 6.97s-6.67-2.96-6.61-6.61c.07-3.7 3.06-6.68 6.61-6.61z" style="fill:#6d1e00"/><path id="&lt;Path&gt;" d="M47.84 25.48c3.65.08 6.87 2.6 6.87 6.25s-3.22 6.97-6.87 6.97-6.68-2.96-6.61-6.61c.07-3.7 3.05-6.68 6.61-6.61z" style="fill:#6f1e00"/><path id="&lt;Path&gt;" d="M47.85 25.49c3.65.08 6.87 2.59 6.87 6.24 0 3.65-3.22 6.98-6.87 6.98s-6.68-2.96-6.61-6.61c.07-3.7 3.05-6.68 6.61-6.61z" style="fill:#701f00"/><path id="&lt;Path&gt;" d="M47.85 25.5c3.65.08 6.88 2.59 6.88 6.24 0 3.65-3.23 6.98-6.88 6.98-3.64 0-6.67-2.96-6.6-6.61.07-3.7 3.05-6.68 6.6-6.61z" style="fill:#721f00"/><path id="&lt;Path&gt;" d="M47.86 25.52c3.65.07 6.88 2.57 6.88 6.22s-3.23 6.99-6.88 6.99-6.67-2.96-6.6-6.61c.06-3.7 3.05-6.68 6.6-6.6z" style="fill:#742000"/><path id="&lt;Path&gt;" d="M47.87 25.53c3.65.08 6.88 2.57 6.88 6.22 0 3.64-3.23 6.99-6.88 6.99s-6.68-2.96-6.61-6.61c.07-3.7 3.06-6.68 6.61-6.6z" style="fill:#752000"/><path id="&lt;Path&gt;" d="M47.88 25.54c3.64.08 6.88 2.56 6.88 6.21s-3.24 7-6.88 7c-3.65 0-6.68-2.96-6.61-6.61.07-3.7 3.06-6.68 6.61-6.6z" style="fill:#772000"/><path id="&lt;Path&gt;" d="M47.88 25.55c3.65.08 6.89 2.56 6.89 6.2 0 3.65-3.24 7-6.89 7-3.64 0-6.67-2.95-6.6-6.6.07-3.7 3.06-6.68 6.6-6.6z" style="fill:#792100"/><path id="&lt;Path&gt;" d="M47.89 25.56c3.64.08 6.89 2.55 6.89 6.2 0 3.64-3.24 7-6.89 7-3.65 0-6.67-2.95-6.6-6.6.07-3.7 3.06-6.68 6.6-6.6z" style="fill:#7a2100"/><path id="&lt;Path&gt;" d="M47.9 25.57c3.64.08 6.89 2.55 6.89 6.19 0 3.65-3.25 7.01-6.89 7.01-3.65 0-6.68-2.95-6.6-6.6.07-3.7 3.06-6.68 6.6-6.6z" style="fill:#7c2200"/><path id="&lt;Path&gt;" d="M47.9 25.58c3.65.09 6.89 2.54 6.89 6.19 0 3.64-3.24 7.01-6.89 7.01-3.64 0-6.67-2.96-6.59-6.6.07-3.7 3.06-6.68 6.59-6.6z" style="fill:#7e2200"/><path id="&lt;Path&gt;" d="M47.91 25.59c3.64.09 6.89 2.54 6.89 6.18 0 3.64-3.24 7.02-6.89 7.02-3.64 0-6.67-2.96-6.6-6.6.08-3.7 3.07-6.68 6.6-6.6z" style="fill:#802300"/><path id="&lt;Path&gt;" d="M47.92 25.6c3.64.09 6.89 2.53 6.89 6.17 0 3.65-3.25 7.03-6.89 7.03-3.64 0-6.67-2.96-6.6-6.6.08-3.7 3.07-6.68 6.6-6.6z" style="fill:#812300"/><path id="&lt;Path&gt;" d="M47.93 25.62c3.64.08 6.89 2.52 6.89 6.16s-3.25 7.03-6.89 7.03c-3.65 0-6.68-2.96-6.6-6.6.08-3.7 3.07-6.68 6.6-6.59z" style="fill:#832400"/><path id="&lt;Path&gt;" d="M47.93 25.63c3.64.08 6.9 2.51 6.9 6.15 0 3.65-3.26 7.03-6.9 7.03-3.64 0-6.67-2.95-6.59-6.59.08-3.7 3.06-6.68 6.59-6.59z" style="fill:#852400"/><path id="&lt;Path&gt;" d="M47.94 25.64c3.64.09 6.9 2.51 6.9 6.15 0 3.64-3.26 7.03-6.9 7.03-3.64 0-6.67-2.95-6.59-6.59.08-3.7 3.06-6.68 6.59-6.59z" style="fill:#862500"/><path id="&lt;Path&gt;" d="M47.95 25.65c3.64.09 6.9 2.5 6.9 6.14 0 3.64-3.26 7.04-6.9 7.04-3.64 0-6.68-2.95-6.59-6.59.08-3.7 3.06-6.68 6.59-6.59z" style="fill:#882500"/><path id="&lt;Path&gt;" d="M47.95 25.66c3.64.09 6.91 2.5 6.91 6.14 0 3.64-3.27 7.04-6.91 7.04s-6.67-2.95-6.59-6.59c.09-3.7 3.07-6.68 6.59-6.59z" style="fill:#8a2600"/><path id="&lt;Path&gt;" d="M47.96 25.67c3.64.09 6.91 2.49 6.91 6.13 0 3.64-3.27 7.05-6.91 7.05s-6.67-2.95-6.59-6.59c.09-3.7 3.07-6.68 6.59-6.59z" style="fill:#8b2600"/><path id="&lt;Path&gt;" d="M47.97 25.68c3.64.1 6.91 2.49 6.91 6.12 0 3.64-3.27 7.06-6.91 7.06s-6.67-2.95-6.59-6.59c.09-3.7 3.07-6.68 6.59-6.59z" style="fill:#8d2600"/><path id="&lt;Path&gt;" d="M47.98 25.69c3.63.1 6.91 2.48 6.91 6.12s-3.28 7.06-6.91 7.06c-3.64 0-6.68-2.95-6.59-6.59.08-3.7 3.07-6.68 6.59-6.59z" style="fill:#8f2700"/><path id="&lt;Path&gt;" d="M47.98 25.7c3.64.1 6.92 2.48 6.92 6.11 0 3.64-3.28 7.07-6.92 7.07-3.63 0-6.67-2.95-6.58-6.59.08-3.7 3.07-6.68 6.58-6.59z" style="fill:#912700"/><path id="&lt;Path&gt;" d="M47.99 25.71c3.63.1 6.92 2.47 6.92 6.11 0 3.63-3.28 7.06-6.92 7.06s-6.67-2.95-6.59-6.58c.09-3.7 3.08-6.68 6.59-6.59z" style="fill:#922800"/><path id="&lt;Path&gt;" d="M48 25.73c3.63.09 6.92 2.46 6.92 6.09 0 3.64-3.29 7.07-6.92 7.07-3.64 0-6.67-2.95-6.59-6.58.09-3.7 3.08-6.68 6.59-6.58z" style="fill:#942800"/><path id="&lt;Path&gt;" d="M48 25.74c3.64.1 6.93 2.45 6.93 6.09 0 3.63-3.29 7.07-6.93 7.07-3.63 0-6.67-2.95-6.58-6.58.09-3.7 3.08-6.68 6.58-6.58z" style="fill:#962900"/><path id="&lt;Path&gt;" d="M48.01 25.75c3.63.1 6.93 2.45 6.93 6.08s-3.29 7.08-6.93 7.08c-3.63 0-6.67-2.95-6.58-6.58.09-3.7 3.08-6.68 6.58-6.58z" style="fill:#972900"/><path id="&lt;Path&gt;" d="M48.02 25.76c3.63.1 6.93 2.44 6.93 6.07 0 3.64-3.3 7.09-6.93 7.09-3.64 0-6.67-2.95-6.58-6.58.09-3.7 3.08-6.68 6.58-6.58z" style="fill:#992a00"/><path id="&lt;Path&gt;" d="M48.03 25.77c3.63.1 6.93 2.43 6.93 6.07 0 3.63-3.3 7.09-6.93 7.09-3.64 0-6.67-2.95-6.58-6.58.09-3.7 3.08-6.68 6.58-6.58z" style="fill:#9b2a00"/><path id="&lt;Path&gt;" d="M48.03 25.78c3.63.11 6.94 2.43 6.94 6.06 0 3.64-3.3 7.1-6.94 7.1-3.63 0-6.67-2.95-6.58-6.58.1-3.71 3.08-6.68 6.58-6.58z" style="fill:#9c2b00"/><path id="&lt;Path&gt;" d="M48.04 25.79c3.63.11 6.94 2.42 6.94 6.06 0 3.63-3.31 7.09-6.94 7.09-3.63 0-6.67-2.94-6.58-6.57.1-3.71 3.08-6.68 6.58-6.58z" style="fill:#9e2b00"/><path id="&lt;Path&gt;" d="M48.05 25.8c3.63.11 6.94 2.42 6.94 6.05s-3.31 7.1-6.94 7.1c-3.63 0-6.67-2.94-6.58-6.57.1-3.71 3.08-6.68 6.58-6.58z" style="fill:#a02c00"/><path id="&lt;Path&gt;" d="M48.05 25.81c3.63.11 6.95 2.41 6.95 6.05 0 3.63-3.32 7.1-6.95 7.1-3.63 0-6.67-2.94-6.57-6.57.1-3.71 3.08-6.68 6.57-6.58z" style="fill:#a22c00"/><path id="&lt;Path&gt;" d="M48.06 25.82c3.63.11 6.95 2.41 6.95 6.04s-3.32 7.11-6.95 7.11c-3.63 0-6.67-2.94-6.57-6.57.1-3.71 3.08-6.68 6.57-6.58z" style="fill:#a32d00"/><path id="&lt;Path&gt;" d="M48.07 25.84c3.63.11 6.95 2.39 6.95 6.02 0 3.63-3.32 7.12-6.95 7.12-3.63 0-6.67-2.94-6.57-6.57.1-3.71 3.08-6.68 6.57-6.57z" style="fill:#a52d00"/><path id="&lt;Path&gt;" d="M48.08 25.85c3.62.11 6.95 2.39 6.95 6.02 0 3.63-3.33 7.12-6.95 7.12-3.63 0-6.67-2.95-6.58-6.57.11-3.71 3.09-6.68 6.58-6.57z" style="fill:#a72d00"/><path id="&lt;Path&gt;" d="M48.08 25.86c3.63.11 6.96 2.38 6.96 6.01S51.71 39 48.08 39s-6.67-2.95-6.57-6.57c.1-3.71 3.09-6.68 6.57-6.57z" style="fill:#a82e00"/><path id="&lt;Path&gt;" d="M48.09 25.87c3.63.11 6.96 2.38 6.96 6.01 0 3.62-3.33 7.12-6.96 7.12s-6.67-2.94-6.57-6.56c.1-3.71 3.09-6.68 6.57-6.57z" style="fill:#aa2e00"/><path id="&lt;Path&gt;" d="M48.1 25.88c3.62.11 6.96 2.37 6.96 6s-3.34 7.13-6.96 7.13c-3.63 0-6.67-2.94-6.57-6.56.1-3.71 3.09-6.68 6.57-6.57z" style="fill:#ac2f00"/><path id="&lt;Path&gt;" d="M48.1 25.89c3.63.12 6.97 2.37 6.97 5.99 0 3.63-3.34 7.14-6.97 7.14-3.62 0-6.66-2.94-6.56-6.56.1-3.71 3.09-6.68 6.56-6.57z" style="fill:#ad2f00"/><path id="&lt;Path&gt;" d="M48.11 25.9c3.62.12 6.97 2.36 6.97 5.99 0 3.62-3.34 7.14-6.97 7.14-3.62 0-6.67-2.94-6.56-6.56.1-3.71 3.09-6.68 6.56-6.57z" style="fill:#af3000"/><path id="&lt;Path&gt;" d="M48.12 25.91c3.62.12 6.97 2.36 6.97 5.98 0 3.63-3.35 7.15-6.97 7.15-3.63 0-6.67-2.94-6.57-6.56.11-3.71 3.1-6.68 6.57-6.57z" style="fill:#b13000"/><path id="&lt;Path&gt;" d="M48.13 25.92c3.62.12 6.97 2.35 6.97 5.98 0 3.62-3.35 7.15-6.97 7.15-3.63 0-6.67-2.94-6.57-6.56.11-3.71 3.1-6.68 6.57-6.57z" style="fill:#b33100"/><path id="&lt;Path&gt;" d="M48.13 25.94c3.62.12 6.98 2.34 6.98 5.96 0 3.63-3.35 7.16-6.98 7.16-3.62 0-6.66-2.94-6.56-6.56.11-3.71 3.09-6.68 6.56-6.56z" style="fill:#b43100"/><path id="&lt;Path&gt;" d="M48.14 25.95c3.62.12 6.98 2.33 6.98 5.96 0 3.62-3.36 7.16-6.98 7.16-3.62 0-6.67-2.94-6.56-6.56.11-3.71 3.09-6.68 6.56-6.56z" style="fill:#b63200"/><path id="&lt;Path&gt;" d="M48.15 25.96c3.62.12 6.98 2.33 6.98 5.95s-3.36 7.16-6.98 7.16c-3.63 0-6.67-2.93-6.56-6.55.11-3.71 3.09-6.68 6.56-6.56z" style="fill:#b83200"/><path id="&lt;Path&gt;" d="M48.15 25.97c3.62.12 6.99 2.32 6.99 5.94 0 3.63-3.36 7.17-6.99 7.17-3.62 0-6.66-2.93-6.55-6.55.11-3.71 3.09-6.68 6.55-6.56z" style="fill:#b93300"/><path id="&lt;Path&gt;" d="M55.15 31.92c0 3.62-3.37 7.17-6.99 7.17s-6.67-2.94-6.56-6.55c.12-3.71 3.1-6.68 6.56-6.56 3.62.12 6.99 2.32 6.99 5.94z" style="fill:#b30"/><path id="&lt;Path&gt;" d="M48.17 25.99c3.62.12 6.98 2.32 6.98 5.94 0 3.62-3.36 7.17-6.98 7.17-3.62 0-6.67-2.94-6.56-6.56.11-3.7 3.1-6.67 6.56-6.55z" style="opacity:.99;fill:#bc3502"/><path id="&lt;Path&gt;" d="M48.17 26c3.62.12 6.98 2.33 6.98 5.95s-3.36 7.16-6.98 7.16c-3.62 0-6.66-2.94-6.55-6.56.11-3.7 3.09-6.67 6.55-6.55z" style="opacity:.98;fill:#bc3705"/><path id="&lt;Path&gt;" d="M48.18 26c3.62.13 6.98 2.34 6.98 5.96s-3.36 7.16-6.98 7.16c-3.62 0-6.67-2.94-6.56-6.56.11-3.7 3.09-6.67 6.56-6.56z" style="opacity:.97;fill:#bd3907"/><path id="&lt;Path&gt;" d="M48.18 26.01c3.62.12 6.98 2.34 6.98 5.96 0 3.63-3.36 7.15-6.98 7.15-3.62 0-6.66-2.93-6.55-6.55.11-3.7 3.09-6.67 6.55-6.56z" style="opacity:.96;fill:#bd3a09"/><path id="&lt;Path&gt;" d="M48.19 26.02c3.62.12 6.97 2.35 6.97 5.97 0 3.62-3.35 7.14-6.97 7.14-3.62 0-6.66-2.93-6.56-6.55.11-3.7 3.09-6.67 6.56-6.56z" style="opacity:.95;fill:#be3c0c"/><path id="&lt;Path&gt;" d="M48.19 26.03c3.62.12 6.97 2.35 6.97 5.97 0 3.62-3.34 7.14-6.97 7.14-3.62 0-6.66-2.94-6.55-6.55.11-3.71 3.09-6.67 6.55-6.56z" style="opacity:.95;fill:#bf3e0e"/><path id="&lt;Path&gt;" d="M48.2 26.04c3.62.12 6.96 2.36 6.96 5.98 0 3.62-3.34 7.13-6.96 7.13s-6.66-2.94-6.56-6.56c.11-3.7 3.09-6.66 6.56-6.55z" style="opacity:.94;fill:#bf4010"/><path id="&lt;Path&gt;" d="M48.21 26.05c3.61.11 6.95 2.36 6.95 5.98 0 3.62-3.33 7.13-6.95 7.13s-6.66-2.94-6.56-6.56c.1-3.7 3.08-6.66 6.56-6.55z" style="opacity:.93;fill:#c04213"/><path id="&lt;Path&gt;" d="M48.21 26.05c3.62.12 6.96 2.37 6.96 5.99 0 3.63-3.34 7.13-6.96 7.13s-6.66-2.94-6.55-6.56c.1-3.7 3.08-6.67 6.55-6.56z" style="opacity:.92;fill:#c14415"/><path id="&lt;Path&gt;" d="M48.22 26.06c3.62.12 6.95 2.38 6.95 6s-3.33 7.12-6.95 7.12-6.66-2.94-6.56-6.56c.1-3.7 3.08-6.67 6.56-6.56z" style="opacity:.91;fill:#c14617"/><path id="&lt;Path&gt;" d="M48.22 26.07c3.62.11 6.95 2.38 6.95 6s-3.33 7.11-6.95 7.11-6.65-2.93-6.55-6.55c.1-3.7 3.08-6.67 6.55-6.56z" style="opacity:.9;fill:#c24719"/><path id="&lt;Path&gt;" d="M48.23 26.08c3.62.11 6.94 2.39 6.94 6.01 0 3.62-3.32 7.1-6.94 7.1-3.62 0-6.66-2.93-6.56-6.55.1-3.7 3.08-6.67 6.56-6.56z" style="opacity:.89;fill:#c2491c"/><path id="&lt;Path&gt;" d="M48.23 26.09c3.62.11 6.94 2.39 6.94 6.01 0 3.62-3.32 7.1-6.94 7.1-3.62 0-6.65-2.94-6.55-6.56.1-3.69 3.08-6.66 6.55-6.55z" style="opacity:.88;fill:#c34b1e"/><path id="&lt;Path&gt;" d="M48.24 26.1c3.62.11 6.93 2.39 6.93 6.01 0 3.63-3.31 7.1-6.93 7.1-3.62 0-6.65-2.94-6.56-6.56.1-3.69 3.08-6.66 6.56-6.55z" style="opacity:.87;fill:#c44d20"/><path id="&lt;Path&gt;" d="M48.25 26.11c3.61.1 6.93 2.4 6.93 6.02 0 3.62-3.31 7.09-6.93 7.09-3.63 0-6.66-2.94-6.56-6.56.1-3.69 3.07-6.66 6.56-6.55z" style="opacity:.86;fill:#c44f23"/><path id="&lt;Path&gt;" d="M48.25 26.11c3.62.11 6.93 2.41 6.93 6.03s-3.31 7.09-6.93 7.09c-3.62 0-6.65-2.94-6.56-6.56.1-3.69 3.08-6.66 6.56-6.56z" style="opacity:.85;fill:#c55125"/><path id="&lt;Path&gt;" d="M48.26 26.12c3.62.11 6.92 2.42 6.92 6.04s-3.3 7.07-6.92 7.07-6.65-2.93-6.56-6.55c.1-3.69 3.07-6.66 6.56-6.56z" style="opacity:.85;fill:#c65327"/><path id="&lt;Path&gt;" d="M48.26 26.13c3.62.11 6.92 2.42 6.92 6.04s-3.3 7.07-6.92 7.07-6.65-2.93-6.55-6.55c.09-3.7 3.07-6.66 6.55-6.56z" style="opacity:.84;fill:#c6542a"/><path id="&lt;Path&gt;" d="M48.27 26.14c3.62.1 6.91 2.42 6.91 6.04 0 3.63-3.29 7.07-6.91 7.07s-6.65-2.94-6.56-6.56c.09-3.69 3.07-6.65 6.56-6.55z" style="opacity:.83;fill:#c7562c"/><path id="&lt;Path&gt;" d="M48.27 26.15c3.62.1 6.91 2.43 6.91 6.05 0 3.62-3.29 7.06-6.91 7.06s-6.64-2.94-6.55-6.56c.09-3.69 3.06-6.65 6.55-6.55z" style="opacity:.82;fill:#c7582e"/><path id="&lt;Path&gt;" d="M48.28 26.16c3.62.1 6.91 2.43 6.91 6.05 0 3.62-3.29 7.06-6.91 7.06s-6.65-2.94-6.56-6.56c.09-3.69 3.07-6.65 6.56-6.55z" style="opacity:.81;fill:#c85a31"/><path id="&lt;Path&gt;" d="M48.28 26.16c3.62.1 6.91 2.45 6.91 6.07s-3.28 7.05-6.91 7.05c-3.62 0-6.64-2.94-6.55-6.56.09-3.69 3.06-6.65 6.55-6.56z" style="opacity:.8;fill:#c95c33"/><path id="&lt;Path&gt;" d="M48.29 26.17c3.62.1 6.9 2.45 6.9 6.07s-3.28 7.04-6.9 7.04c-3.62 0-6.64-2.93-6.56-6.55.09-3.69 3.07-6.65 6.56-6.56z" style="opacity:.79;fill:#c95e35"/><path id="&lt;Path&gt;" d="M48.3 26.18c3.61.1 6.89 2.45 6.89 6.07 0 3.63-3.27 7.04-6.89 7.04-3.63 0-6.65-2.93-6.56-6.55.09-3.69 3.06-6.65 6.56-6.56z" style="opacity:.78;fill:#ca6038"/><path id="&lt;Path&gt;" d="M48.3 26.19c3.62.1 6.89 2.46 6.89 6.08s-3.27 7.03-6.89 7.03c-3.62 0-6.64-2.94-6.56-6.56.09-3.68 3.06-6.64 6.56-6.55z" style="opacity:.77;fill:#ca613a"/><path id="&lt;Path&gt;" d="M48.31 26.2c3.62.09 6.88 2.46 6.88 6.08s-3.26 7.03-6.88 7.03-6.64-2.94-6.56-6.56c.09-3.68 3.06-6.64 6.56-6.55z" style="opacity:.76;fill:#cb633c"/><path id="&lt;Path&gt;" d="M48.31 26.21c3.62.09 6.89 2.47 6.89 6.09 0 3.62-3.27 7.02-6.89 7.02-3.62 0-6.64-2.94-6.55-6.56.08-3.68 3.05-6.64 6.55-6.55z" style="opacity:.75;fill:#cc653f"/><path id="&lt;Path&gt;" d="M48.32 26.21c3.62.1 6.88 2.48 6.88 6.1 0 3.62-3.26 7.02-6.88 7.02s-6.64-2.94-6.56-6.56c.09-3.68 3.06-6.65 6.56-6.56z" style="opacity:.75;fill:#cc6741"/><path id="&lt;Path&gt;" d="M48.32 26.22c3.62.09 6.88 2.48 6.88 6.1 0 3.63-3.26 7.01-6.88 7.01s-6.63-2.93-6.55-6.55c.08-3.68 3.05-6.65 6.55-6.56z" style="opacity:.74;fill:#cd6943"/><path id="&lt;Path&gt;" d="M48.33 26.23c3.62.09 6.87 2.49 6.87 6.11s-3.25 7-6.87 7-6.64-2.93-6.56-6.55c.09-3.69 3.06-6.65 6.56-6.56z" style="opacity:.73;fill:#ce6b46"/><path id="&lt;Path&gt;" d="M48.33 26.24c3.62.09 6.87 2.49 6.87 6.11s-3.24 7-6.87 7c-3.62 0-6.63-2.93-6.55-6.55.08-3.69 3.05-6.65 6.55-6.56z" style="opacity:.72;fill:#ce6c48"/><path id="&lt;Path&gt;" d="M48.34 26.25c3.62.09 6.86 2.5 6.86 6.12s-3.24 6.99-6.86 6.99-6.63-2.94-6.56-6.56c.08-3.68 3.05-6.64 6.56-6.55z" style="opacity:.71;fill:#cf6e4a"/><path id="&lt;Path&gt;" d="M48.35 26.26c3.62.08 6.86 2.5 6.86 6.12s-3.24 6.99-6.86 6.99-6.64-2.94-6.56-6.56c.08-3.68 3.05-6.64 6.56-6.55z" style="opacity:.7;fill:#cf704c"/><path id="&lt;Path&gt;" d="M48.35 26.26c3.62.09 6.86 2.51 6.86 6.13 0 3.63-3.24 6.99-6.86 6.99s-6.63-2.94-6.55-6.56c.07-3.68 3.04-6.64 6.55-6.56z" style="opacity:.69;fill:#d0724f"/><path id="&lt;Path&gt;" d="M48.36 26.27c3.62.09 6.85 2.52 6.85 6.14 0 3.62-3.23 6.98-6.85 6.98-3.62 0-6.63-2.94-6.56-6.56.08-3.68 3.05-6.64 6.56-6.56z" style="opacity:.68;fill:#d17451"/><path id="&lt;Path&gt;" d="M48.36 26.28c3.62.09 6.85 2.52 6.85 6.14 0 3.62-3.23 6.97-6.85 6.97-3.62 0-6.63-2.93-6.55-6.55.07-3.68 3.04-6.64 6.55-6.56z" style="opacity:.67;fill:#d17653"/><path id="&lt;Path&gt;" d="M48.37 26.29c3.62.08 6.84 2.53 6.84 6.15 0 3.62-3.22 6.96-6.84 6.96-3.62 0-6.63-2.93-6.56-6.55.08-3.68 3.04-6.64 6.56-6.56z" style="opacity:.66;fill:#d27856"/><path id="&lt;Path&gt;" d="M48.37 26.3c3.62.08 6.84 2.53 6.84 6.15 0 3.62-3.22 6.96-6.84 6.96-3.62 0-6.62-2.94-6.55-6.56.07-3.67 3.04-6.63 6.55-6.55z" style="opacity:.65;fill:#d27958"/><path id="&lt;Path&gt;" d="M48.38 26.31c3.62.08 6.84 2.53 6.84 6.15 0 3.63-3.22 6.96-6.84 6.96-3.62 0-6.63-2.94-6.56-6.56.08-3.67 3.04-6.63 6.56-6.55z" style="opacity:.65;fill:#d37b5a"/><path id="&lt;Path&gt;" d="M48.38 26.31c3.62.08 6.84 2.55 6.84 6.17s-3.21 6.95-6.84 6.95c-3.62 0-6.62-2.94-6.55-6.56.07-3.67 3.04-6.63 6.55-6.56z" style="opacity:.64;fill:#d47d5d"/><path id="&lt;Path&gt;" d="M48.39 26.32c3.62.08 6.83 2.55 6.83 6.17s-3.21 6.95-6.83 6.95-6.62-2.94-6.56-6.56c.08-3.67 3.04-6.63 6.56-6.56z" style="opacity:.63;fill:#d47f5f"/><path id="&lt;Path&gt;" d="M48.4 26.33c3.62.08 6.82 2.56 6.82 6.18 0 3.62-3.2 6.93-6.82 6.93s-6.63-2.93-6.56-6.55c.07-3.68 3.03-6.63 6.56-6.56z" style="opacity:.62;fill:#d58161"/><path id="&lt;Path&gt;" d="M48.4 26.34c3.62.08 6.82 2.56 6.82 6.18 0 3.62-3.2 6.93-6.82 6.93s-6.62-2.93-6.55-6.55c.06-3.68 3.03-6.63 6.55-6.56z" style="opacity:.61;fill:#d68364"/><path id="&lt;Path&gt;" d="M48.41 26.35c3.62.07 6.81 2.56 6.81 6.18 0 3.63-3.19 6.93-6.81 6.93-3.62 0-6.63-2.94-6.56-6.56.07-3.67 3.03-6.62 6.56-6.55z" style="opacity:.6;fill:#d68566"/><path id="&lt;Path&gt;" d="M48.41 26.36c3.62.07 6.82 2.57 6.82 6.19 0 3.62-3.2 6.92-6.82 6.92s-6.62-2.94-6.55-6.56c.06-3.67 3.03-6.62 6.55-6.55z" style="opacity:.59;fill:#d78668"/><path id="&lt;Path&gt;" d="M48.42 26.37c3.62.07 6.81 2.57 6.81 6.19 0 3.62-3.19 6.92-6.81 6.92-3.62 0-6.62-2.94-6.56-6.56.07-3.67 3.03-6.62 6.56-6.55z" style="opacity:.58;fill:#d7886b"/><path id="&lt;Path&gt;" d="M48.42 26.37c3.62.08 6.81 2.59 6.81 6.21s-3.18 6.91-6.81 6.91c-3.62 0-6.62-2.94-6.55-6.56.06-3.67 3.03-6.62 6.55-6.56z" style="opacity:.57;fill:#d88a6d"/><path id="&lt;Path&gt;" d="M48.43 26.38c3.62.07 6.8 2.59 6.8 6.21s-3.18 6.9-6.8 6.9c-3.62 0-6.62-2.93-6.56-6.55.07-3.67 3.03-6.63 6.56-6.56z" style="opacity:.56;fill:#d98c6f"/><path id="&lt;Path&gt;" d="M48.44 26.39c3.62.07 6.79 2.59 6.79 6.21 0 3.63-3.17 6.9-6.79 6.9-3.63 0-6.62-2.93-6.56-6.55.06-3.67 3.02-6.63 6.56-6.56z" style="opacity:.55;fill:#d98e72"/><path id="&lt;Path&gt;" d="M48.44 26.4c3.62.07 6.79 2.6 6.79 6.22 0 3.62-3.17 6.89-6.79 6.89s-6.62-2.94-6.56-6.56c.07-3.66 3.03-6.62 6.56-6.55z" style="opacity:.55;fill:#da9074"/><path id="&lt;Path&gt;" d="M48.45 26.41c3.62.06 6.78 2.6 6.78 6.22 0 3.62-3.16 6.89-6.78 6.89s-6.62-2.94-6.56-6.56c.06-3.66 3.02-6.62 6.56-6.55z" style="opacity:.54;fill:#db9276"/><path id="&lt;Path&gt;" d="M48.45 26.42c3.62.06 6.79 2.61 6.79 6.23 0 3.62-3.17 6.88-6.79 6.88s-6.61-2.94-6.55-6.56c.06-3.66 3.02-6.62 6.55-6.55z" style="opacity:.53;fill:#db9379"/><path id="&lt;Path&gt;" d="M48.46 26.42c3.62.07 6.78 2.62 6.78 6.24s-3.16 6.88-6.78 6.88-6.62-2.94-6.56-6.56c.06-3.66 3.02-6.62 6.56-6.56z" style="opacity:.52;fill:#dc957b"/><path id="&lt;Path&gt;" d="M48.46 26.43c3.62.07 6.78 2.62 6.78 6.24 0 3.63-3.16 6.87-6.78 6.87s-6.61-2.93-6.55-6.55c.05-3.67 3.01-6.62 6.55-6.56z" style="opacity:.51;fill:#dc977d"/><path id="&lt;Path&gt;" d="M48.47 26.44c3.62.06 6.77 2.63 6.77 6.25s-3.15 6.86-6.77 6.86c-3.62 0-6.61-2.93-6.56-6.55.06-3.67 3.02-6.62 6.56-6.56z" style="opacity:.5;fill:#dd9980"/><path id="&lt;Path&gt;" d="M48.47 26.45c3.62.06 6.77 2.63 6.77 6.25s-3.14 6.86-6.77 6.86c-3.62 0-6.61-2.93-6.55-6.55.05-3.67 3.01-6.62 6.55-6.56z" style="opacity:.49;fill:#de9b82"/><path id="&lt;Path&gt;" d="M48.48 26.46c3.62.06 6.76 2.64 6.76 6.26 0 3.62-3.14 6.85-6.76 6.85-3.62 0-6.61-2.94-6.56-6.56.06-3.66 3.02-6.61 6.56-6.55z" style="opacity:.48;fill:#de9d84"/><path id="&lt;Path&gt;" d="M48.49 26.47c3.62.06 6.76 2.64 6.76 6.26 0 3.62-3.14 6.85-6.76 6.85-3.63 0-6.61-2.94-6.56-6.56.05-3.66 3.01-6.61 6.56-6.55z" style="opacity:.47;fill:#df9f86"/><path id="&lt;Path&gt;" d="M48.49 26.47c3.62.06 6.76 2.65 6.76 6.27 0 3.63-3.14 6.85-6.76 6.85-3.62 0-6.61-2.94-6.55-6.56.05-3.66 3.01-6.61 6.55-6.56z" style="opacity:.46;fill:#dfa089"/><path id="&lt;Path&gt;" d="M48.5 26.48c3.62.06 6.75 2.66 6.75 6.28s-3.13 6.83-6.75 6.83-6.61-2.93-6.56-6.55c.05-3.66 3.01-6.61 6.56-6.56z" style="opacity:.45;fill:#e0a28b"/><path id="&lt;Path&gt;" d="M48.5 26.49c3.62.06 6.75 2.66 6.75 6.28s-3.13 6.83-6.75 6.83-6.6-2.93-6.55-6.55c.05-3.66 3-6.61 6.55-6.56z" style="opacity:.45;fill:#e1a48d"/><path id="&lt;Path&gt;" d="M48.51 26.5c3.62.05 6.74 2.67 6.74 6.29s-3.12 6.82-6.74 6.82-6.61-2.93-6.56-6.55c.05-3.66 3.01-6.61 6.56-6.56z" style="opacity:.44;fill:#e1a690"/><path id="&lt;Path&gt;" d="M48.51 26.51c3.62.05 6.74 2.67 6.74 6.29s-3.12 6.82-6.74 6.82-6.6-2.94-6.55-6.56c.05-3.65 3-6.6 6.55-6.55z" style="opacity:.43;fill:#e2a892"/><path id="&lt;Path&gt;" d="M48.52 26.52c3.62.05 6.74 2.67 6.74 6.29 0 3.63-3.12 6.82-6.74 6.82s-6.6-2.94-6.56-6.56c.05-3.65 3.01-6.6 6.56-6.55z" style="opacity:.42;fill:#e3aa94"/><path id="&lt;Path&gt;" d="M48.52 26.52c3.62.06 6.74 2.69 6.74 6.31 0 3.62-3.11 6.81-6.74 6.81-3.62 0-6.6-2.94-6.55-6.56.04-3.65 3-6.6 6.55-6.56z" style="opacity:.41;fill:#e3ac97"/><path id="&lt;Path&gt;" d="M48.53 26.53c3.62.05 6.73 2.69 6.73 6.31 0 3.62-3.11 6.81-6.73 6.81-3.62 0-6.6-2.94-6.56-6.56.05-3.66 3-6.6 6.56-6.56z" style="opacity:.4;fill:#e4ad99"/><path id="&lt;Path&gt;" d="M48.54 26.54c3.62.05 6.72 2.7 6.72 6.32s-3.1 6.79-6.72 6.79c-3.62 0-6.6-2.93-6.56-6.55.04-3.66 3-6.61 6.56-6.56z" style="opacity:.39;fill:#e4af9b"/><path id="&lt;Path&gt;" d="M48.54 26.55c3.62.05 6.72 2.7 6.72 6.32s-3.1 6.79-6.72 6.79c-3.62 0-6.6-2.93-6.55-6.55.04-3.66 2.99-6.61 6.55-6.56z" style="opacity:.38;fill:#e5b19e"/><path id="&lt;Path&gt;" d="M48.55 26.56c3.62.04 6.71 2.7 6.71 6.32 0 3.63-3.09 6.79-6.71 6.79s-6.6-2.94-6.56-6.56c.04-3.65 3-6.6 6.56-6.55z" style="opacity:.37;fill:#e6b3a0"/><path id="&lt;Path&gt;" d="M48.55 26.57c3.62.04 6.72 2.71 6.72 6.33s-3.1 6.78-6.72 6.78c-3.62 0-6.59-2.94-6.55-6.56.04-3.65 2.99-6.6 6.55-6.55z" style="opacity:.36;fill:#e6b5a2"/><path id="&lt;Path&gt;" d="M48.56 26.58c3.62.04 6.71 2.71 6.71 6.33s-3.09 6.78-6.71 6.78-6.6-2.94-6.56-6.56c.04-3.65 2.99-6.6 6.56-6.55z" style="opacity:.35;fill:#e7b7a5"/><path id="&lt;Path&gt;" d="M48.56 26.58c3.62.05 6.71 2.73 6.71 6.35 0 3.62-3.09 6.77-6.71 6.77s-6.59-2.94-6.55-6.56c.04-3.65 2.99-6.6 6.55-6.56z" style="opacity:.35;fill:#e8b9a7"/><path id="&lt;Path&gt;" d="M48.57 26.59c3.62.04 6.7 2.73 6.7 6.35 0 3.62-3.08 6.76-6.7 6.76s-6.59-2.93-6.56-6.55c.04-3.65 2.99-6.6 6.56-6.56z" style="opacity:.34;fill:#e8baa9"/><path id="&lt;Path&gt;" d="M48.58 26.6c3.62.04 6.69 2.73 6.69 6.35 0 3.63-3.07 6.76-6.69 6.76-3.63 0-6.6-2.93-6.56-6.55.04-3.65 2.99-6.6 6.56-6.56z" style="opacity:.33;fill:#e9bcac"/><path id="&lt;Path&gt;" d="M48.58 26.61c3.62.04 6.69 2.74 6.69 6.36s-3.07 6.75-6.69 6.75c-3.62 0-6.59-2.94-6.56-6.56.04-3.64 2.99-6.59 6.56-6.55z" style="opacity:.32;fill:#e9beae"/><path id="&lt;Path&gt;" d="M48.59 26.62c3.62.04 6.69 2.74 6.69 6.36s-3.07 6.75-6.69 6.75c-3.62 0-6.59-2.94-6.56-6.56.04-3.64 2.99-6.59 6.56-6.55z" style="opacity:.31;fill:#eac0b0"/><path id="&lt;Path&gt;" d="M48.59 26.63c3.62.03 6.69 2.75 6.69 6.37s-3.07 6.74-6.69 6.74c-3.62 0-6.59-2.94-6.55-6.56.03-3.64 2.98-6.59 6.55-6.55z" style="opacity:.3;fill:#ebc2b3"/><path id="&lt;Path&gt;" d="M48.6 26.63c3.62.04 6.68 2.76 6.68 6.38s-3.06 6.74-6.68 6.74c-3.62 0-6.59-2.94-6.56-6.56.03-3.65 2.98-6.59 6.56-6.56z" style="opacity:.29;fill:#ebc4b5"/><path id="&lt;Path&gt;" d="M48.6 26.64c3.62.04 6.68 2.76 6.68 6.38 0 3.63-3.06 6.73-6.68 6.73-3.62 0-6.58-2.93-6.55-6.55.03-3.65 2.98-6.59 6.55-6.56z" style="opacity:.28;fill:#ecc6b7"/><path id="&lt;Path&gt;" d="M48.61 26.65c3.62.03 6.67 2.77 6.67 6.39 0 3.62-3.05 6.72-6.67 6.72s-6.59-2.93-6.56-6.55c.03-3.65 2.98-6.59 6.56-6.56z" style="opacity:.27;fill:#ecc7b9"/><path id="&lt;Path&gt;" d="M48.61 26.66c3.62.03 6.67 2.77 6.67 6.39 0 3.62-3.04 6.72-6.67 6.72-3.62 0-6.58-2.93-6.55-6.56.03-3.64 2.98-6.58 6.55-6.55z" style="opacity:.26;fill:#edc9bc"/><path id="&lt;Path&gt;" d="M48.62 26.67c3.62.03 6.67 2.78 6.67 6.4 0 3.62-3.05 6.71-6.67 6.71s-6.58-2.94-6.56-6.56c.03-3.64 2.98-6.58 6.56-6.55z" style="opacity:.25;fill:#eecbbe"/><path id="&lt;Path&gt;" d="M48.63 26.68c3.62.03 6.66 2.78 6.66 6.4 0 3.62-3.04 6.71-6.66 6.71-3.63 0-6.59-2.94-6.56-6.56.03-3.64 2.97-6.58 6.56-6.55z" style="opacity:.25;fill:#eecdc0"/><path id="&lt;Path&gt;" d="M48.63 26.68c3.62.03 6.66 2.79 6.66 6.41 0 3.63-3.04 6.71-6.66 6.71s-6.58-2.94-6.55-6.56c.02-3.64 2.97-6.58 6.55-6.56z" style="opacity:.24;fill:#efcfc3"/><path id="&lt;Path&gt;" d="M48.64 26.69c3.62.03 6.65 2.8 6.65 6.42s-3.03 6.69-6.65 6.69c-3.62 0-6.58-2.93-6.56-6.55.03-3.64 2.97-6.58 6.56-6.56z" style="opacity:.23;fill:#f0d1c5"/><path id="&lt;Path&gt;" d="M48.64 26.7c3.62.03 6.65 2.8 6.65 6.42s-3.03 6.69-6.65 6.69c-3.62 0-6.58-2.93-6.55-6.55.02-3.64 2.97-6.59 6.55-6.56z" style="opacity:.22;fill:#f0d2c7"/><path id="&lt;Path&gt;" d="M48.65 26.71c3.62.03 6.64 2.81 6.64 6.43 0 3.62-3.02 6.68-6.64 6.68-3.62 0-6.58-2.93-6.56-6.55.03-3.64 2.97-6.59 6.56-6.56z" style="opacity:.21;fill:#f1d4ca"/><path id="&lt;Path&gt;" d="M48.65 26.72c3.62.02 6.65 2.81 6.65 6.43 0 3.62-3.03 6.68-6.65 6.68-3.62 0-6.57-2.94-6.55-6.56.02-3.63 2.97-6.58 6.55-6.55z" style="opacity:.2;fill:#f1d6cc"/><path id="&lt;Path&gt;" d="M48.66 26.73c3.62.02 6.64 2.81 6.64 6.43 0 3.63-3.02 6.68-6.64 6.68-3.62 0-6.58-2.94-6.56-6.56.02-3.63 2.97-6.58 6.56-6.55z" style="opacity:.19;fill:#f2d8ce"/><path id="&lt;Path&gt;" d="M48.66 26.73c3.63.03 6.64 2.83 6.64 6.45s-3.01 6.67-6.64 6.67c-3.62 0-6.57-2.94-6.55-6.56.02-3.64 2.96-6.58 6.55-6.56z" style="opacity:.18;fill:#f3dad1"/><path id="&lt;Path&gt;" d="M48.67 26.74c3.62.02 6.63 2.83 6.63 6.45s-3.01 6.66-6.63 6.66-6.57-2.93-6.56-6.55c.02-3.64 2.97-6.58 6.56-6.56z" style="opacity:.17;fill:#f3dcd3"/><path id="&lt;Path&gt;" d="M48.68 26.75c3.62.02 6.62 2.84 6.62 6.46s-3 6.65-6.62 6.65-6.58-2.93-6.56-6.55c.02-3.64 2.96-6.58 6.56-6.56z" style="opacity:.16;fill:#f4ded5"/><path id="&lt;Path&gt;" d="M48.68 26.76c3.62.02 6.62 2.84 6.62 6.46s-3 6.65-6.62 6.65-6.57-2.93-6.55-6.55c.01-3.64 2.96-6.58 6.55-6.56z" style="opacity:.15;fill:#f4dfd8"/><path id="&lt;Path&gt;" d="M48.69 26.77c3.62.02 6.62 2.84 6.62 6.46 0 3.63-3 6.65-6.62 6.65s-6.57-2.94-6.56-6.56c.02-3.63 2.96-6.57 6.56-6.55z" style="opacity:.15;fill:#f5e1da"/><path id="&lt;Path&gt;" d="M48.69 26.78c3.62.01 6.62 2.85 6.62 6.47 0 3.62-3 6.64-6.62 6.64s-6.57-2.94-6.55-6.56c.01-3.63 2.95-6.57 6.55-6.55z" style="opacity:.14;fill:#f6e3dc"/><path id="&lt;Path&gt;" d="M48.7 26.78c3.62.02 6.61 2.86 6.61 6.48 0 3.62-2.99 6.64-6.61 6.64s-6.57-2.94-6.56-6.56c.02-3.63 2.96-6.57 6.56-6.56z" style="opacity:.13;fill:#f6e5df"/><path id="&lt;Path&gt;" d="M48.7 26.79c3.62.02 6.61 2.87 6.61 6.49s-2.99 6.63-6.61 6.63-6.57-2.94-6.55-6.56c.01-3.63 2.95-6.57 6.55-6.56z" style="opacity:.12;fill:#f7e7e1"/><path id="&lt;Path&gt;" d="M48.71 26.8c3.62.02 6.6 2.87 6.6 6.49s-2.98 6.62-6.6 6.62c-3.62 0-6.57-2.93-6.56-6.55.02-3.63 2.96-6.57 6.56-6.56z" style="opacity:.11;fill:#f8e9e3"/><path id="&lt;Path&gt;" d="M48.72 26.81c3.62.01 6.59 2.87 6.59 6.49 0 3.63-2.97 6.62-6.59 6.62-3.63 0-6.57-2.93-6.56-6.55.01-3.63 2.95-6.57 6.56-6.56z" style="opacity:.1;fill:#f8ebe6"/><path id="&lt;Path&gt;" d="M48.72 26.82c3.62.01 6.6 2.88 6.6 6.5s-2.98 6.61-6.6 6.61c-3.62 0-6.57-2.93-6.56-6.56.01-3.62 2.95-6.56 6.56-6.55z" style="opacity:.09;fill:#f9ece8"/><path id="&lt;Path&gt;" d="M48.73 26.83c3.62.01 6.59 2.88 6.59 6.5s-2.97 6.61-6.59 6.61c-3.62 0-6.57-2.94-6.56-6.56.01-3.62 2.95-6.56 6.56-6.55z" style="opacity:.08;fill:#f9eeea"/><path id="&lt;Path&gt;" d="M48.73 26.84c3.62 0 6.59 2.89 6.59 6.51 0 3.62-2.97 6.6-6.59 6.6-3.62 0-6.56-2.94-6.55-6.56 0-3.63 2.94-6.56 6.55-6.55z" style="opacity:.07;fill:#faf0ec"/><path id="&lt;Path&gt;" d="M48.74 26.84c3.62.01 6.58 2.9 6.58 6.52 0 3.62-2.96 6.6-6.58 6.6s-6.57-2.94-6.56-6.56c.01-3.63 2.95-6.56 6.56-6.56z" style="opacity:.06;fill:#fbf2ef"/><path id="&lt;Path&gt;" d="M48.74 26.85c3.62.01 6.58 2.9 6.58 6.52 0 3.63-2.96 6.59-6.58 6.59s-6.56-2.93-6.55-6.55c0-3.63 2.94-6.56 6.55-6.56z" style="opacity:.05;fill:#fbf4f1"/><path id="&lt;Path&gt;" d="M48.75 26.86c3.62.01 6.57 2.91 6.57 6.53s-2.95 6.58-6.57 6.58-6.56-2.93-6.56-6.55c.01-3.63 2.95-6.57 6.56-6.56z" style="opacity:.05;fill:#fcf6f3"/><path id="&lt;Path&gt;" d="M48.75 26.87c3.63 0 6.58 2.91 6.58 6.53s-2.95 6.58-6.58 6.58c-3.62 0-6.56-2.93-6.55-6.56 0-3.62 2.94-6.56 6.55-6.55z" style="opacity:.04;fill:#fdf8f6"/><path id="&lt;Path&gt;" d="M48.76 26.88c3.62 0 6.57 2.92 6.57 6.54s-2.95 6.57-6.57 6.57-6.56-2.94-6.56-6.56c.01-3.62 2.94-6.56 6.56-6.55z" style="opacity:.03;fill:#fdf9f8"/><path id="&lt;Path&gt;" d="M48.77 26.89c3.62 0 6.56 2.92 6.56 6.54S52.39 40 48.77 40c-3.63 0-6.56-2.94-6.56-6.56 0-3.62 2.94-6.56 6.56-6.55z" style="opacity:.02;fill:#fefbfa"/><path id="&lt;Path&gt;" d="M48.77 26.89c3.62.01 6.56 2.93 6.56 6.55 0 3.63-2.94 6.57-6.56 6.57-3.62 0-6.56-2.94-6.55-6.56 0-3.62 2.93-6.56 6.55-6.56z" style="opacity:.01;fill:#fefdfd"/></g></g></g></g><g id="&lt;Clip Group&gt;" clip-path="url(#cp2)"><g id="&lt;Clip Group&gt;" clip-path="url(#cp3)"><g id="&lt;Group&gt;"><path id="&lt;Path&gt;" d="M28.1 105.39-25.94 11.8l93.6-54.04 54.03 93.59z" style="fill:#e04e15"/><path id="&lt;Path&gt;" d="m29.22 107.34-54.03-93.6 93.59-54.03 54.04 93.59z" style="fill:#e04f15"/><path id="&lt;Path&gt;" d="m30.35 109.29-54.04-93.6 93.6-54.03 54.03 93.59z" style="fill:#e15015"/><path id="&lt;Path&gt;" d="m31.47 111.24-54.03-93.6 93.59-54.03 54.04 93.59z" style="fill:#e15115"/><path id="&lt;Path&gt;" d="m32.6 113.18-54.04-93.59 93.6-54.04 54.03 93.6z" style="fill:#e25215"/><path id="&lt;Path&gt;" d="m33.72 115.13-54.03-93.59L73.28-32.5l54.04 93.6z" style="fill:#e25316"/><path id="&lt;Path&gt;" d="m34.85 117.08-54.04-93.59 93.6-54.04 54.03 93.59z" style="fill:#e35416"/><path id="&lt;Path&gt;" d="m35.97 119.03-54.03-93.59L75.53-28.6l54.04 93.59z" style="fill:#e35516"/><path id="&lt;Path&gt;" d="m37.1 120.98-54.04-93.6 93.6-54.03 54.03 93.59z" style="fill:#e35616"/><path id="&lt;Path&gt;" class="s233" d="m38.22 122.93-54.03-93.6L77.78-24.7l54.04 93.59z"/><path id="&lt;Path&gt;" class="s233" d="m39.35 124.87-54.04-93.59 93.6-54.04 54.03 93.6z"/><path id="&lt;Path&gt;" d="m40.47 126.82-54.03-93.59 93.59-54.04 54.04 93.6z" style="fill:#e55816"/><path id="&lt;Path&gt;" d="m41.6 128.77-54.04-93.59 93.6-54.04 54.03 93.6z" style="fill:#e55916"/><path id="&lt;Path&gt;" d="m42.72 130.72-54.03-93.59 93.59-54.04 54.04 93.59z" style="fill:#e55a16"/><path id="&lt;Path&gt;" d="m43.85 132.67-54.04-93.6 93.6-54.03 54.03 93.59z" style="fill:#e65b16"/><path id="&lt;Path&gt;" d="m44.97 134.62-54.03-93.6 93.59-54.03 54.04 93.59z" style="fill:#e65c17"/><path id="&lt;Path&gt;" d="m46.1 136.57-54.04-93.6 93.6-54.04 54.03 93.6z" style="fill:#e75d17"/><path id="&lt;Path&gt;" d="M47.22 138.51-6.81 44.92 86.78-9.12l54.04 93.6z" style="fill:#e75e17"/><path id="&lt;Path&gt;" d="M48.35 140.46-5.69 46.87l93.6-54.04 54.03 93.6z" style="fill:#e85f17"/><path id="&lt;Path&gt;" d="M49.47 142.41-4.56 48.82 89.03-5.22l54.04 93.59z" style="fill:#e86017"/><path id="&lt;Path&gt;" d="M49.91 143.16-4.13 49.57l93.6-54.04 54.03 93.6z" style="fill:#e86117"/><path id="&lt;Path&gt;" d="m50.34 143.92-54.03-93.6L89.9-3.71l54.04 93.59z" style="fill:#e96217"/><path id="&lt;Path&gt;" d="M50.78 144.67-3.26 51.08l93.6-54.04 54.03 93.59z" style="fill:#e96317"/><path id="&lt;Path&gt;" d="M51.21 145.42-2.82 51.83 90.77-2.21l54.04 93.6z" style="fill:#e96418"/><path id="&lt;Path&gt;" d="m51.65 146.18-54.04-93.6 93.6-54.03 54.03 93.59z" style="fill:#e96518"/><path id="&lt;Path&gt;" d="M52.08 146.93-1.95 53.34 91.64-.7l54.04 93.59z" style="fill:#ea6618"/><path id="&lt;Path&gt;" d="M52.52 147.68-1.52 54.09 92.07.05l54.04 93.6z" style="fill:#ea6718"/><path id="&lt;Path&gt;" d="m52.95 148.44-54.03-93.6L92.51.81l54.04 93.59z" style="fill:#ea6818"/><path id="&lt;Path&gt;" d="M53.39 149.19-.65 55.6 92.94 1.56l54.04 93.59z" style="fill:#ea6918"/><path id="&lt;Path&gt;" d="M53.82 149.94-.21 56.35 93.38 2.31l54.04 93.6z" style="fill:#eb6a18"/><path id="&lt;Path&gt;" d="M54.26 150.7.22 57.1 93.81 3.07l54.04 93.59z" style="fill:#eb6b19"/><path id="&lt;Path&gt;" d="M54.69 151.45.66 57.86 94.25 3.82l54.04 93.59z" style="fill:#eb6c19"/><path id="&lt;Path&gt;" d="M55.13 152.2 1.09 58.61 94.68 4.57l54.04 93.6z" style="fill:#eb6d19"/><path id="&lt;Path&gt;" d="M55.56 152.96 1.53 59.36 95.12 5.33l54.04 93.59z" style="fill:#ec6e19"/><path id="&lt;Path&gt;" d="M56 153.71 1.96 60.12 95.55 6.08l54.04 93.59z" style="fill:#ec6f19"/><path id="&lt;Path&gt;" d="M56.43 154.46 2.4 60.87 95.99 6.83l54.04 93.6z" style="fill:#ec7019"/><path id="&lt;Path&gt;" d="M56.87 155.22 2.83 61.62 96.42 7.59l54.04 93.59z" style="fill:#ec7119"/><path id="&lt;Path&gt;" d="M57.3 155.97 3.26 62.37l93.6-54.03 54.04 93.59z" style="fill:#ed7219"/><path id="&lt;Path&gt;" d="M57.74 156.72 3.7 63.13 97.29 9.09l54.04 93.6z" style="fill:#ed731a"/><path id="&lt;Path&gt;" d="M58.17 157.48 4.13 63.88l93.6-54.04 54.03 93.6z" style="fill:#ed741a"/><path id="&lt;Path&gt;" d="M58.61 158.23 4.57 64.63 98.16 10.6l54.04 93.59z" style="fill:#ed751a"/><path id="&lt;Path&gt;" d="M59.04 158.98 5 65.39l93.6-54.04 54.03 93.6z" style="fill:#ee761a"/><path id="&lt;Path&gt;" d="M59.48 159.74 5.44 66.14 99.03 12.1l54.04 93.6z" style="fill:#ee771a"/><path id="&lt;Path&gt;" d="M59.91 160.49 5.87 66.89l93.6-54.03 54.03 93.59z" style="fill:#ee781a"/><path id="&lt;Path&gt;" d="M60.35 161.24 6.31 67.65 99.9 13.61l54.04 93.6z" style="fill:#ef791a"/><path id="&lt;Path&gt;" d="M60.78 161.99 6.74 68.4l93.6-54.04 54.03 93.6z" style="fill:#ef7a1b"/><path id="&lt;Path&gt;" d="M61.22 162.75 7.18 69.15l93.59-54.03 54.04 93.59z" style="fill:#ef7b1b"/><path id="&lt;Path&gt;" d="M61.65 163.5 7.61 69.91l93.6-54.04 54.03 93.59z" style="fill:#ef7c1b"/><path id="&lt;Path&gt;" d="M62.08 164.25 8.05 70.66l93.59-54.04 54.04 93.6z" style="fill:#f07d1b"/><path id="&lt;Path&gt;" d="M62.52 165.01 8.48 71.41l93.6-54.03 54.03 93.59z" style="fill:#f07e1b"/><path id="&lt;Path&gt;" d="M62.95 165.76 8.92 72.17l93.59-54.04 54.04 93.59z" style="fill:#f07f1b"/><path id="&lt;Path&gt;" d="M63.39 166.51 9.35 72.92l93.6-54.04 54.03 93.6z" style="fill:#f0801b"/><path id="&lt;Path&gt;" d="M63.82 167.27 9.79 73.67l93.59-54.03 54.04 93.59z" style="fill:#f1801c"/><path id="&lt;Path&gt;" d="M64.26 168.02 10.22 74.43l93.6-54.04 54.03 93.59z" style="fill:#f1811c"/><path id="&lt;Path&gt;" d="M64.69 168.77 10.66 75.18l93.59-54.04 54.04 93.6z" style="fill:#f1821c"/><path id="&lt;Path&gt;" d="m65.13 169.53-54.04-93.6 93.6-54.03 54.03 93.59z" style="fill:#f1831c"/><path id="&lt;Path&gt;" d="M65.56 170.28 11.53 76.69l93.59-54.04 54.04 93.59z" style="fill:#f2841c"/><path id="&lt;Path&gt;" d="M66 171.03 11.96 77.44l93.6-54.04 54.03 93.6z" style="fill:#f2851c"/><path id="&lt;Path&gt;" d="M66.43 171.79 12.4 78.19l93.59-54.03 54.04 93.59z" style="fill:#f2861c"/><path id="&lt;Path&gt;" d="M66.87 172.54 12.83 78.95l93.6-54.04 54.03 93.59z" style="fill:#f2871d"/><path id="&lt;Path&gt;" d="M67.3 173.29 13.27 79.7l93.59-54.04 54.04 93.6z" style="fill:#f3881d"/><path id="&lt;Path&gt;" d="M67.74 174.05 13.7 80.45l93.6-54.03 54.03 93.59z" style="fill:#f3891d"/><path id="&lt;Path&gt;" d="M68.17 174.8 14.14 81.21l93.59-54.04 54.04 93.59z" style="fill:#f38a1d"/><path id="&lt;Path&gt;" d="M68.61 175.55 14.57 81.96l93.6-54.04 54.03 93.6z" style="fill:#f48b1d"/><path id="&lt;Path&gt;" d="m69.04 176.31-54.03-93.6 93.59-54.03 54.04 93.59z" style="fill:#f48c1d"/><path id="&lt;Path&gt;" d="M69.48 177.06 15.44 83.47l93.6-54.04 54.03 93.59z" style="fill:#f48d1d"/><path id="&lt;Path&gt;" d="M69.91 177.81 15.88 84.22l93.59-54.04 54.04 93.6z" style="fill:#f48e1e"/><path id="&lt;Path&gt;" d="m70.35 178.57-54.04-93.6 93.6-54.03 54.03 93.59z" style="fill:#f58f1e"/><path id="&lt;Path&gt;" d="M70.78 179.32 16.75 85.73l93.59-54.04 54.04 93.59z" style="fill:#f5901e"/><path id="&lt;Path&gt;" d="M71.22 180.07 17.18 86.48l93.59-54.04 54.04 93.6z" style="fill:#f5911e"/><path id="&lt;Path&gt;" d="m71.65 180.83-54.03-93.6 93.59-54.03 54.04 93.59z" style="fill:#f5921e"/><path id="&lt;Path&gt;" d="M72.09 181.58 18.05 87.99l93.59-54.04 54.04 93.59z" style="fill:#f6931e"/><path id="&lt;Path&gt;" d="M72.52 182.33 18.49 88.74l93.59-54.04 54.04 93.6z" style="fill:#f6941e"/><path id="&lt;Path&gt;" d="m72.96 183.09-54.04-93.6 93.59-54.03 54.04 93.59z" style="fill:#f6951e"/><path id="&lt;Path&gt;" d="m73.39 183.84-54.03-93.6 93.59-54.03 54.04 93.59z" style="fill:#f6961f"/><path id="&lt;Path&gt;" d="M73.83 184.59 19.79 91l93.59-54.04 54.04 93.6z" style="fill:#f7971f"/><path id="&lt;Path&gt;" d="m74.26 185.35-54.03-93.6 93.59-54.04 54.04 93.6z" style="fill:#f7981f"/><path id="&lt;Path&gt;" d="M74.7 186.1 20.66 92.5l93.59-54.03 54.04 93.59z" style="fill:#f7991f"/><path id="&lt;Path&gt;" d="M75.13 186.85 21.09 93.26l93.6-54.04 54.04 93.6z" style="fill:#f79a1f"/><path id="&lt;Path&gt;" d="M75.57 187.6 21.53 94.01l93.59-54.04 54.04 93.6z" style="fill:#f89b1f"/><path id="&lt;Path&gt;" d="m76 188.36-54.04-93.6 93.6-54.03 54.04 93.59z" style="fill:#f89c1f"/><path id="&lt;Path&gt;" d="M76.44 189.11 22.4 95.52l93.59-54.04 54.04 93.59z" style="fill:#f89d20"/><path id="&lt;Path&gt;" d="M76.87 189.86 22.83 96.27l93.6-54.04 54.03 93.6z" style="fill:#f89e20"/><path id="&lt;Path&gt;" d="m77.31 190.62-54.04-93.6 93.59-54.03 54.04 93.59z" style="fill:#f99f20"/><path id="&lt;Path&gt;" d="M77.74 191.37 23.7 97.78l93.6-54.04 54.03 93.59z" style="fill:#f9a020"/></g></g></g></g></svg>