<svg width="120" height="80" viewBox="0 0 120 80" fill="none" xmlns="http://www.w3.org/2000/svg">
<g id="main" clip-path="url(#clip0_3704_18199)">
<path id="Vector" opacity="0.92" d="M57.2309 19.7272L33.4716 32.3073C30.1761 34.0528 30.1761 38.7725 33.4716 40.516L57.2947 53.131C58.6551 53.8508 60.2825 53.8508 61.641 53.131L85.4486 40.5238C88.746 38.7764 88.7421 34.0508 85.4408 32.3112L61.5694 19.7252C60.2109 19.0092 58.5874 19.0112 57.2289 19.7291L57.2309 19.7272Z" fill="#214CE8"/>
<g id="Group">
<path id="Vector_2" d="M25.5119 44.3633H25.51V61.6883C25.51 63.4086 26.4601 64.9896 27.9811 65.7946L52.4409 78.7443C55.5351 80.3834 59.2602 78.1406 59.2602 74.64V48.6031L48.5455 54.2614C47.1871 54.9793 45.5616 54.9774 44.2031 54.2614L25.5119 44.3652M93.0085 44.3633H93.0104L98.1345 41.6483L103.309 38.9082C104.408 38.3277 104.406 36.7525 103.307 36.172L98.1287 33.4377L93.0104 30.7343H93.0085L65.7796 16.3178L59.3299 12.9023" stroke="#161616" stroke-linecap="round" stroke-linejoin="round"/>
<path id="Vector_3" d="M25.512 44.364H25.5101L20.3859 41.6491L15.2114 38.909C14.1123 38.3284 14.1123 36.7532 15.2134 36.1727L20.3898 33.4384L25.5101 30.7351H25.512L25.5101 30.7331L19.6641 22.9714L18.3192 21.1853C17.5142 20.1171 17.2472 18.8284 17.4484 17.6267C17.4736 17.4738 17.5065 17.3228 17.5471 17.1738M17.5471 17.1738C17.6071 16.9494 17.6845 16.7307 17.7793 16.5178M17.5471 17.1738C17.5742 17.0752 17.6032 16.9765 17.6381 16.8797C17.6555 16.8294 17.6729 16.781 17.6903 16.7326C17.7174 16.661 17.7484 16.5894 17.7793 16.5178M17.7793 16.5178C17.8026 16.4656 17.8258 16.4133 17.8509 16.3611M17.7793 16.5178C17.7987 16.4733 17.818 16.4308 17.8393 16.3863C17.8432 16.3785 17.8471 16.3688 17.8509 16.3611M17.8509 16.3611C17.8819 16.2972 17.9148 16.2314 17.9496 16.1695C17.9883 16.0999 18.027 16.0341 18.0677 15.9663C18.1083 15.8986 18.1509 15.8328 18.1934 15.769C18.2534 15.6819 18.3154 15.5987 18.3792 15.5155C18.4779 15.3916 18.5824 15.2716 18.6927 15.1575M18.6927 15.1575C18.7411 15.1052 18.7914 15.0568 18.8417 15.0104M18.6927 15.1575C18.7062 15.142 18.7217 15.1265 18.7372 15.113C18.7585 15.0917 18.7798 15.0684 18.803 15.0472C18.803 15.0452 18.8049 15.0452 18.8049 15.0452C18.8165 15.0336 18.8301 15.022 18.8417 15.0104M18.8417 15.0104C18.8785 14.9756 18.9152 14.9427 18.9539 14.9078M18.8417 15.0104C18.8785 14.9756 18.9152 14.9407 18.9539 14.9078M18.9539 14.9078C18.983 14.8807 19.0139 14.8556 19.0449 14.8304C19.0817 14.7995 19.1184 14.7685 19.1571 14.7395M19.1571 14.7395C19.1862 14.7163 19.2152 14.693 19.2442 14.6717M19.1571 14.7395C19.1765 14.724 19.1978 14.7066 19.2171 14.693C19.2229 14.6872 19.2307 14.6834 19.2365 14.6776C19.2384 14.6756 19.2423 14.6737 19.2442 14.6717M19.2442 14.6717C19.2771 14.6466 19.3119 14.6214 19.3468 14.5982M19.2442 14.6717L19.2616 14.6601C19.2887 14.6389 19.3177 14.6176 19.3468 14.5982M19.3468 14.5982C19.428 14.5402 19.5093 14.486 19.5945 14.4337M19.3468 14.5982C19.37 14.5808 19.3932 14.5653 19.4164 14.5498C19.4242 14.544 19.4338 14.5382 19.4416 14.5324C19.4609 14.5189 19.4803 14.5073 19.4996 14.4937C19.5306 14.4724 19.5616 14.4531 19.5945 14.4337M19.5945 14.4337C19.637 14.4086 19.6777 14.3834 19.7202 14.3602M19.5945 14.4337C19.5983 14.4318 19.6041 14.4279 19.608 14.426C19.6448 14.4028 19.6835 14.3815 19.7202 14.3602M19.7202 14.3602C19.7686 14.3331 19.817 14.306 19.8673 14.2789L45.2869 0.920883C47.3013 -0.139556 49.7879 0.41969 51.158 2.23676L59.1906 12.9031M59.1906 12.9031H59.1887L30.1543 28.2755M59.1906 12.9031L59.2603 12.8644L59.3299 12.9031M61.6114 9.87269L67.3626 2.23676C68.7326 0.41969 71.2173 -0.139556 73.2337 0.920883L98.6513 14.2789C101.186 15.6122 101.924 18.898 100.201 21.1853L93.0105 30.7331M93.0105 30.7331H93.0085M93.0105 30.7331L98.1288 33.4384L103.307 36.1727C104.406 36.7532 104.408 38.3284 103.309 38.909L98.1346 41.6491L93.0105 44.3621H93.0085L74.3154 54.2602C72.9589 54.9781 71.3334 54.98 69.975 54.2602L59.2603 48.6019V74.6388C59.2603 78.1394 62.9853 80.3822 66.0776 78.7431L90.5393 65.7934C92.0584 64.9884 93.0105 63.4074 93.0105 61.6871V49.0063" stroke="#161616" stroke-linecap="round" stroke-linejoin="round"/>
<path id="Vector_4" d="M30.1542 28.2748L59.1885 12.9023L59.2601 12.9952L59.3298 12.9023L93.0084 30.7324L89.9451 32.354L59.2601 48.6012L33.5348 34.98L25.5157 30.7343L25.5118 30.7324" stroke="#161616" stroke-linecap="round" stroke-linejoin="round"/>
<path id="Vector_5" d="M59.3299 12.9039L59.2602 12.8652L59.1886 12.9039L59.2602 12.9968L59.3299 12.9039Z" stroke="#161616" stroke-linecap="round" stroke-linejoin="round"/>
<path id="Vector_6" d="M20.3859 41.6503L44.2032 54.2614C45.5616 54.9813 47.1871 54.9813 48.5455 54.2633L59.2583 48.6051L25.512 30.7344L20.3917 33.4397" stroke="#161616" stroke-linecap="round" stroke-linejoin="round"/>
</g>
<path id="Vector_7" d="M86.7801 61.8738L78.9778 66.0691C77.9464 66.6245 76.6963 65.8775 76.6963 64.7048V59.7839C76.6963 59.2149 77.0098 58.6905 77.511 58.4196L85.3133 54.2243C86.3447 53.6689 87.5948 54.4159 87.5948 55.5886V60.5095C87.5948 61.0785 87.2813 61.6029 86.7801 61.8738Z" fill="#90A6F4"/>
<path id="Vector_8" d="M88.7803 62.8738L80.9779 67.0691C79.9465 67.6245 78.6964 66.8775 78.6964 65.7048V60.7839C78.6964 60.2149 79.0099 59.6905 79.5111 59.4196L87.3134 55.2243C88.3449 54.6689 89.5949 55.4159 89.5949 56.5886V61.5095C89.5949 62.0785 89.2814 62.6029 88.7803 62.8738Z" stroke="#161616" stroke-linecap="round" stroke-linejoin="round" stroke-dasharray="2 2"/>
</g>
<defs>
<clipPath id="clip0_3704_18199">
<rect width="120" height="80" fill="white"/>
</clipPath>
</defs>
</svg>
