<svg width="110" height="81" viewBox="0 0 110 81" fill="none" xmlns="http://www.w3.org/2000/svg">
<g id="main" clip-path="url(#clip0_3711_1748)">
<path id="Vector" d="M57.6071 80.142C78.6663 80.142 95.7382 63.0701 95.7382 42.0109C95.7382 20.9517 78.6663 3.87988 57.6071 3.87988C36.5479 3.87988 19.4761 20.9517 19.4761 42.0109C19.4761 63.0701 36.5479 80.142 57.6071 80.142Z" fill="#214CE8"/>
<path id="Vector_2" d="M50.7091 76.5256C71.7219 76.5256 88.7561 59.4914 88.7561 38.4786C88.7561 17.4659 71.7219 0.431641 50.7091 0.431641C29.6963 0.431641 12.6621 17.4659 12.6621 38.4786C12.6621 59.4914 29.6963 76.5256 50.7091 76.5256Z" stroke="white" stroke-linecap="round" stroke-linejoin="round"/>
<g id="Group">
<path id="Vector_3" d="M101.643 59.2656L104.387 62.0076" stroke="white" stroke-linecap="round" stroke-linejoin="round"/>
<path id="Vector_4" d="M101.643 67.1902L104.387 64.4482" stroke="white" stroke-linecap="round" stroke-linejoin="round"/>
<path id="Vector_5" d="M109.569 67.1902L106.825 64.4482" stroke="white" stroke-linecap="round" stroke-linejoin="round"/>
<path id="Vector_6" d="M109.569 59.2656L106.825 62.0076" stroke="white" stroke-linecap="round" stroke-linejoin="round"/>
</g>
<g id="Group_2">
<path id="Vector_7" d="M0.431152 5.67773L3.17528 8.42186" stroke="white" stroke-linecap="round" stroke-linejoin="round"/>
<path id="Vector_8" d="M0.431152 13.6045L3.17528 10.8604" stroke="white" stroke-linecap="round" stroke-linejoin="round"/>
<path id="Vector_9" d="M8.35741 13.6045L5.61328 10.8604" stroke="white" stroke-linecap="round" stroke-linejoin="round"/>
<path id="Vector_10" d="M8.35741 5.67773L5.61328 8.42186" stroke="white" stroke-linecap="round" stroke-linejoin="round"/>
</g>
<path id="Vector_11" d="M50.7092 4.74219V8.62233" stroke="white" stroke-linecap="round" stroke-linejoin="round"/>
<path id="Vector_12" d="M50.7092 68.3339V72.214" stroke="white" stroke-linecap="round" stroke-linejoin="round"/>
<path id="Vector_13" d="M16.9734 38.4784H20.8535" stroke="white" stroke-linecap="round" stroke-linejoin="round"/>
<path id="Vector_14" d="M26.855 14.624L29.5991 17.3682" stroke="white" stroke-linecap="round" stroke-linejoin="round"/>
<path id="Vector_15" d="M71.8215 59.5889L74.5635 62.333" stroke="white" stroke-linecap="round" stroke-linejoin="round"/>
<path id="Vector_16" d="M74.5635 14.624L71.8215 17.3682" stroke="white" stroke-linecap="round" stroke-linejoin="round"/>
<path id="Vector_17" d="M29.5991 59.5889L26.855 62.333" stroke="white" stroke-linecap="round" stroke-linejoin="round"/>
<g id="Group_3">
<path id="Vector_18" d="M103.624 17.3488L104.997 18.7197" stroke="white" stroke-linecap="round" stroke-linejoin="round"/>
<path id="Vector_19" d="M103.624 21.3106L104.997 19.9396" stroke="white" stroke-linecap="round" stroke-linejoin="round"/>
<path id="Vector_20" d="M107.588 21.3106L106.215 19.9396" stroke="white" stroke-linecap="round" stroke-linejoin="round"/>
<path id="Vector_21" d="M107.588 17.3488L106.215 18.7197" stroke="white" stroke-linecap="round" stroke-linejoin="round"/>
</g>
<path id="Vector_22" d="M82.913 47.3147C82.913 47.9355 82.4086 48.4399 81.7877 48.4399H49.4634C48.6723 48.4399 47.9566 48.1187 47.4393 47.6014L47.4328 47.5949C46.9133 47.0754 46.5942 46.3619 46.5942 45.5708V22.637C46.5942 22.0161 47.0987 21.5117 47.7195 21.5117H51.1901C51.8109 21.5117 52.3153 22.0161 52.3153 22.637V37.2802C52.3153 40.283 54.749 42.7189 57.754 42.7189H81.7877C82.4086 42.7189 82.913 43.2233 82.913 43.8441V44.0618C82.9173 44.0877 82.9173 44.1136 82.9173 44.1394V46.6033C82.9173 46.6292 82.9173 46.6572 82.913 46.6809V47.3147Z" fill="#1C1D24"/>
<path id="Vector_23" d="M81.0848 43.0461C81.0848 43.667 80.5804 44.1714 79.9596 44.1714H47.6353C46.8441 44.1714 46.1285 43.8502 45.6111 43.3328L45.6047 43.3264C45.0851 42.8069 44.7661 42.0933 44.7661 41.3022V18.3684C44.7661 17.7476 45.2705 17.2432 45.8914 17.2432H49.3619C49.9828 17.2432 50.4872 17.7476 50.4872 18.3684V33.0116C50.4872 36.0145 52.9209 38.4503 55.9258 38.4503H79.9596C80.5804 38.4503 81.0848 38.9547 81.0848 39.5756V39.7933C81.0892 39.8192 81.0892 39.845 81.0892 39.8709V42.3348C81.0892 42.3606 81.0892 42.3887 81.0848 42.4124V43.0461Z" stroke="white" stroke-linecap="round" stroke-linejoin="round"/>
</g>
<defs>
<clipPath id="clip0_3711_1748">
<rect width="110" height="80.1444" fill="white"/>
</clipPath>
</defs>
</svg>
