<svg width="121" height="86" viewBox="0 0 121 86" fill="none" xmlns="http://www.w3.org/2000/svg">
<g id="error">
<g id="Group 275">
<path id="Vector" d="M63.1017 82.5012C83.9899 82.5012 100.923 65.5679 100.923 44.6797C100.923 23.7915 83.9899 6.85831 63.1017 6.85831C42.2135 6.85831 25.2803 23.7915 25.2803 44.6797C25.2803 65.5679 42.2135 82.5012 63.1017 82.5012Z" fill="#214CE8"/>
<path id="Vector_2" d="M56.2443 79.0715C77.1325 79.0715 94.0657 62.1382 94.0657 41.25C94.0657 20.3618 77.1325 3.42862 56.2443 3.42862C35.3561 3.42862 18.4229 20.3618 18.4229 41.25C18.4229 62.1382 35.3561 79.0715 56.2443 79.0715Z" stroke="#161616" stroke-linecap="round" stroke-linejoin="round"/>
<path id="Vector_3" d="M78.5983 57.4236L69.1933 48.0186C66.6305 45.4557 66.6519 41.305 69.2019 38.755L78.6241 29.3329C79.2005 28.7564 79.1833 27.8457 78.6283 27.2929L76.6376 25.3022C76.0612 24.7257 75.1462 24.7472 74.5912 25.3022L65.1691 34.7243C62.5998 37.2936 58.4512 37.2786 55.9055 34.7329L46.5048 25.3322C45.9283 24.7557 45.0176 24.7729 44.4583 25.3322L42.4676 27.3229C41.8912 27.8993 41.9084 28.81 42.4676 29.3693L51.8683 38.77C54.4312 41.3329 54.4098 45.4836 51.8598 48.0336L42.4376 57.4557C41.8612 58.0322 41.8784 58.9429 42.4376 59.5022L44.4283 61.4929C45.0005 62.065 45.9112 62.0479 46.4683 61.4886L55.8905 52.0665C58.4598 49.4972 62.6083 49.5122 65.1541 52.0579L74.5591 61.4629C75.1355 62.0393 76.0462 62.0222 76.6055 61.4629L78.5962 59.4722C79.1726 58.8957 79.1555 57.985 78.5962 57.4257L78.5983 57.4236Z" fill="white"/>
<path id="Vector_4" d="M74.3127 55.2791L64.9077 45.8741C62.3448 43.3112 62.3663 39.1605 64.9163 36.6105L74.3384 27.1883C74.9148 26.6119 74.8977 25.7012 74.3427 25.1483L72.352 23.1576C71.7756 22.5812 70.8606 22.6026 70.3056 23.1576L60.8834 32.5798C58.3141 35.1491 54.1656 35.1341 51.6198 32.5883L42.2191 23.1876C41.6427 22.6112 40.732 22.6283 40.1727 23.1876L38.182 25.1783C37.6056 25.7548 37.6227 26.6655 38.182 27.2248L47.5827 36.6255C50.1456 39.1883 50.1241 43.3391 47.5741 45.8891L38.152 55.3112C37.5756 55.8876 37.5927 56.7983 38.152 57.3576L40.1427 59.3483C40.7148 59.9205 41.6256 59.9033 42.1827 59.3441L51.6048 49.9219C54.1741 47.3526 58.3227 47.3676 60.8684 49.9133L70.2734 59.3183C70.8498 59.8948 71.7606 59.8776 72.3198 59.3183L74.3106 57.3276C74.887 56.7512 74.8698 55.8405 74.3106 55.2812L74.3127 55.2791Z" stroke="#161616" stroke-linecap="round" stroke-linejoin="round"/>
<g id="Group">
<path id="Vector_5" d="M14.1649 16.5237L11.437 13.7958" stroke="#161616" stroke-linecap="round" stroke-linejoin="round"/>
<path id="Vector_6" d="M14.1649 8.64429L11.437 11.3721" stroke="#161616" stroke-linecap="round" stroke-linejoin="round"/>
<path id="Vector_7" d="M6.28564 8.64429L9.0135 11.3721" stroke="#161616" stroke-linecap="round" stroke-linejoin="round"/>
<path id="Vector_8" d="M6.28564 16.5237L9.0135 13.7958" stroke="#161616" stroke-linecap="round" stroke-linejoin="round"/>
</g>
<g id="Group_2">
<path id="Vector_9" d="M114.776 69.7912L112.048 67.0655" stroke="#161616" stroke-linecap="round" stroke-linejoin="round"/>
<path id="Vector_10" d="M114.776 61.914L112.048 64.6397" stroke="#161616" stroke-linecap="round" stroke-linejoin="round"/>
<path id="Vector_11" d="M106.897 61.914L109.625 64.6397" stroke="#161616" stroke-linecap="round" stroke-linejoin="round"/>
<path id="Vector_12" d="M106.897 69.7912L109.625 67.0655" stroke="#161616" stroke-linecap="round" stroke-linejoin="round"/>
</g>
<g id="Group_3">
<path id="Vector_13" d="M12.1961 58.1911L10.8311 56.8261" stroke="#161616" stroke-linecap="round" stroke-linejoin="round"/>
<path id="Vector_14" d="M12.1961 54.2509L10.8311 55.6159" stroke="#161616" stroke-linecap="round" stroke-linejoin="round"/>
<path id="Vector_15" d="M8.25537 54.2509L9.62037 55.6159" stroke="#161616" stroke-linecap="round" stroke-linejoin="round"/>
<path id="Vector_16" d="M8.25537 58.1911L9.62037 56.8261" stroke="#161616" stroke-linecap="round" stroke-linejoin="round"/>
</g>
</g>
</g>
</svg>
