<svg width="120" height="86" viewBox="0 0 120 86" fill="none" xmlns="http://www.w3.org/2000/svg">
<g id="2fas_mobile">
<g id="Group 345">
<path id="Vector" d="M51.2143 5.21387H15.3214C12.6586 5.21387 10.5 7.37249 10.5 10.0353C10.5 12.6981 12.6586 14.8567 15.3214 14.8567H51.2143C53.8771 14.8567 56.0357 12.6981 56.0357 10.0353C56.0357 7.37249 53.8771 5.21387 51.2143 5.21387Z" fill="#90A6F4"/>
<path id="Vector_2" d="M90.096 18.2853H38.1681C35.0117 18.2853 32.4531 15.7267 32.4531 12.5703" stroke="white" stroke-linecap="round" stroke-linejoin="round" stroke-dasharray="2.57 3.43 2.57 3.43"/>
<path id="Vector_3" d="M61.339 14.6429C61.9307 14.6429 62.4104 14.1632 62.4104 13.5714C62.4104 12.9797 61.9307 12.5 61.339 12.5C60.7473 12.5 60.2676 12.9797 60.2676 13.5714C60.2676 14.1632 60.7473 14.6429 61.339 14.6429Z" stroke="white" stroke-linecap="round" stroke-linejoin="round"/>
<path id="Vector_4" d="M108.804 72.3917H108.161V57.8203H108.804C109.278 57.8203 109.661 58.2039 109.661 58.6775V71.5346C109.661 72.0082 109.278 72.3917 108.804 72.3917Z" stroke="white" stroke-width="0.8325" stroke-linecap="round" stroke-linejoin="round"/>
<path id="Vector_5" d="M108.804 57.8214H108.161V43.25H108.804C109.278 43.25 109.661 43.6336 109.661 44.1071V56.9643C109.661 57.4379 109.278 57.8214 108.804 57.8214Z" stroke="white" stroke-linecap="round" stroke-linejoin="round"/>
<path id="Vector_6" d="M108.054 81.0712V18.9283C108.054 13.2476 103.449 8.64258 97.7679 8.64258H24.9107C19.23 8.64258 14.625 13.2476 14.625 18.9283V80.6426" stroke="white" stroke-linecap="round" stroke-linejoin="round"/>
<g id="Group 2606">
<path id="Vector_7" d="M89.1097 56.1455L85.154 59.0598C84.4297 59.5934 83.444 59.5934 82.7197 59.0598L78.764 56.1455C77.2919 55.0612 76.4219 53.3405 76.4219 51.5105V42.7291C76.4219 42.1527 76.7947 41.6448 77.3433 41.4712L80.7054 40.4084C82.8076 39.7441 85.064 39.7441 87.1683 40.4084L90.5304 41.4712C91.079 41.6448 91.4519 42.1527 91.4519 42.7291V51.5105C91.4519 53.3405 90.5819 55.0612 89.1097 56.1455Z" fill="#214CE8"/>
<path id="Vector_8" d="M84.8872 46.7731C84.8872 45.4638 83.8286 44.401 82.5194 44.3946C81.2101 44.3881 80.1279 45.4574 80.1279 46.7731C80.1279 47.6474 80.6015 48.4124 81.3044 48.826C81.4179 48.8924 81.4758 49.0231 81.4458 49.1496L80.8629 51.601C80.8179 51.7874 80.9594 51.9653 81.1501 51.9653H83.8651C84.0558 51.9653 84.1972 51.7874 84.1522 51.601L83.5694 49.1496C83.5394 49.021 83.5972 48.8903 83.7108 48.8238C84.4136 48.4103 84.8872 47.6453 84.8872 46.771V46.7731Z" fill="#1C1D24"/>
<g id="_05-2">
<path id="Vector_9" d="M87.1664 54.7481L83.2107 57.6623C82.4864 58.1959 81.5007 58.1959 80.7764 57.6623L76.8207 54.7481C75.3485 53.6638 74.4785 51.9431 74.4785 50.1131V41.3316C74.4785 40.7552 74.8514 40.2473 75.3999 40.0738L78.7621 39.0109C80.8642 38.3466 83.1207 38.3466 85.2249 39.0109L88.5871 40.0738C89.1357 40.2473 89.5085 40.7552 89.5085 41.3316V50.1131C89.5085 51.9431 88.6385 53.6638 87.1664 54.7481Z" stroke="white" stroke-linecap="round" stroke-linejoin="round"/>
<path id="Vector_10" d="M84.1388 45.8097C84.1388 44.6311 83.1853 43.6733 82.0088 43.669C80.8238 43.6625 79.8574 44.6247 79.8574 45.8097C79.8574 46.5983 80.2817 47.2861 80.916 47.6568C81.0167 47.7168 81.0703 47.8347 81.0424 47.9483L80.5196 50.1533C80.481 50.3204 80.6074 50.4811 80.7788 50.4811H83.2217C83.3931 50.4811 83.5196 50.3204 83.481 50.1533L82.9581 47.9483C82.9303 47.8325 82.9838 47.7147 83.0846 47.6568C83.7167 47.284 84.1431 46.5961 84.1431 45.8097H84.1388Z" stroke="white" stroke-linecap="round" stroke-linejoin="round"/>
</g>
</g>
<g id="Group 2607">
<path id="Vector_11" d="M46.2849 45.0458L42.8499 41.6108C42.5649 41.3258 42.1792 41.165 41.7763 41.165H36.102H34.7778C33.8306 41.165 33.0635 41.9322 33.0635 42.8793V57.6693C33.0635 58.6165 33.8306 59.3836 34.7778 59.3836H45.0142C45.9613 59.3836 46.7285 58.6165 46.7285 57.6693V46.1193C46.7285 45.8986 46.6813 45.6843 46.5892 45.4893C46.5163 45.3265 46.4135 45.1743 46.2828 45.0458H46.2849Z" fill="#90A6F4"/>
<path id="Vector_12" d="M45.0166 53.7765V43.5508" stroke="white" stroke-linecap="round" stroke-linejoin="round"/>
<path id="Vector_13" d="M41.9777 56.8125H34.3877" stroke="white" stroke-linecap="round" stroke-linejoin="round"/>
<path id="Vector_14" d="M31.3516 53.7756V41.6299" stroke="white" stroke-linecap="round" stroke-linejoin="round"/>
<path id="Vector_15" d="M34.3877 38.5938H40.062C40.4648 38.5938 40.8506 38.7545 41.1356 39.0395L44.5706 42.4745" stroke="white" stroke-linecap="round" stroke-linejoin="round"/>
<path id="Vector_16" d="M40.1152 40.0635V42.6478C40.1152 42.7228 40.1452 42.7892 40.1945 42.8385C40.2417 42.8878 40.3102 42.9178 40.3852 42.9178H44.8767" stroke="white" stroke-linecap="round" stroke-linejoin="round"/>
<path id="Vector_17" d="M40.0623 38.5938H33.0658C32.1187 38.5938 31.3516 39.3609 31.3516 40.308V55.098C31.3516 56.0452 32.1187 56.8123 33.0658 56.8123H43.3023C44.2494 56.8123 45.0166 56.0452 45.0166 55.098V43.548C45.0166 43.3273 44.9694 43.113 44.8773 42.918C44.8044 42.7552 44.7016 42.603 44.5708 42.4745L41.1358 39.0395" stroke="white" stroke-linecap="round" stroke-linejoin="round"/>
</g>
<path id="Vector_18" d="M50.6084 48.9883L68.6491 48.9883" stroke="white" stroke-linecap="round" stroke-linejoin="round"/>
<path id="Vector_19" d="M62.4531 41.9746L69.4646 48.9882L62.4531 55.9996" stroke="white" stroke-linecap="round" stroke-linejoin="round"/>
<path id="Vector_20" d="M85.4719 31.834H36.919C27.4465 31.834 19.7676 39.5129 19.7676 48.9854C19.7676 58.4579 27.4465 66.1368 36.919 66.1368H85.4719C94.9443 66.1368 102.623 58.4579 102.623 48.9854C102.623 39.5129 94.9443 31.834 85.4719 31.834Z" stroke="white" stroke-linecap="round" stroke-linejoin="round"/>
</g>
</g>
</svg>
