<svg width="120" height="86" viewBox="0 0 120 86" fill="none" xmlns="http://www.w3.org/2000/svg">
<g id="push_notification">
<g id="Group 342">
<path id="Vector" d="M101.893 4.91626H33.3214C30.6586 4.91626 28.5 7.06949 28.5 9.72563C28.5 12.3818 30.6586 14.535 33.3214 14.535H101.893C104.556 14.535 106.714 12.3818 106.714 9.72563C106.714 7.06949 104.556 4.91626 101.893 4.91626Z" fill="#90A6F4"/>
<path id="Vector_2" d="M5.78564 80.3701V18.81C5.78564 13.1435 10.3906 8.55005 16.0714 8.55005H88.9285C94.6092 8.55005 99.2142 13.1435 99.2142 18.81V28.5357" stroke="white" stroke-linecap="round" stroke-linejoin="round"/>
<path id="Vector_3" d="M99.2141 80.7969L99.2141 62.0938" stroke="white" stroke-linecap="round" stroke-linejoin="round"/>
<path id="Vector_4" d="M81.2569 18.1687H29.329C26.1726 18.1687 23.614 15.6166 23.614 12.468" stroke="white" stroke-linecap="round" stroke-linejoin="round" stroke-dasharray="2.57 3.43 2.57 3.43"/>
<path id="Vector_5" d="M52.4999 14.535C53.0916 14.535 53.5713 14.0565 53.5713 13.4662C53.5713 12.876 53.0916 12.3975 52.4999 12.3975C51.9082 12.3975 51.4285 12.876 51.4285 13.4662C51.4285 14.0565 51.9082 14.535 52.4999 14.535Z" stroke="white" stroke-linecap="round" stroke-linejoin="round"/>
<path id="Vector_6" d="M105.066 45.6223H51.8401C49.8163 45.6223 48.1758 47.2583 48.1758 49.2764C48.1758 51.2945 49.8163 52.9304 51.8401 52.9304H105.066C107.09 52.9304 108.731 51.2945 108.731 49.2764C108.731 47.2583 107.09 45.6223 105.066 45.6223Z" fill="#90A6F4"/>
<path id="Vector_7" d="M21.8997 32.2571H107.263C111.049 32.2571 114.12 35.3201 114.12 39.0971V55.1283C114.12 58.9053 111.049 61.9683 107.263 61.9683H17.6911C13.9047 61.9683 10.834 58.9053 10.834 55.1283V39.0971C10.834 38.2421 10.9904 37.4256 11.2776 36.671" stroke="white" stroke-linecap="round" stroke-linejoin="round"/>
<g id="_05">
<path id="Vector_8" d="M36.6497 60.7944L31.5025 64.5777C30.5618 65.2703 29.2761 65.2703 28.3354 64.5777L23.1883 60.7944C21.2725 59.3857 20.1411 57.1542 20.1411 54.7794V43.3844C20.1411 42.6384 20.6254 41.9779 21.3411 41.7535L25.7168 40.3748C28.4533 39.5134 31.3868 39.5134 34.1233 40.3748L38.499 41.7535C39.2125 41.9779 39.699 42.6384 39.699 43.3844V54.7794C39.699 57.1542 38.5675 59.3857 36.6518 60.7944H36.6497Z" fill="#214CE8"/>
<path id="Vector_9" d="M32.7066 49.196C32.7066 47.6656 31.4659 46.4237 29.9338 46.4173C28.3909 46.4108 27.1331 47.6591 27.1331 49.196C27.1331 50.2177 27.6859 51.1112 28.5109 51.5943C28.6438 51.6712 28.7123 51.8251 28.6759 51.9726L27.9945 54.8347C27.9431 55.0506 28.1081 55.2601 28.3309 55.2601H31.5088C31.7316 55.2601 31.8966 55.0528 31.8452 54.8347L31.1638 51.9726C31.1273 51.823 31.1959 51.6712 31.3288 51.5943C32.1516 51.1112 32.7045 50.2199 32.7045 49.1981L32.7066 49.196Z" fill="#214CE8"/>
</g>
<path id="Vector_10" d="M31.1548 49.1886C31.1548 47.4893 29.777 46.1084 28.0755 46.0999C26.3613 46.0913 24.9641 47.4786 24.9641 49.1886C24.9641 50.3236 25.5791 51.3154 26.4941 51.8519C26.642 51.9374 26.717 52.1084 26.6784 52.273L25.922 55.4536C25.8641 55.6951 26.0484 55.926 26.2948 55.926H29.8263C30.0748 55.926 30.257 55.6951 30.1991 55.4536L29.4427 52.273C29.4041 52.1084 29.4791 51.9374 29.627 51.8519C30.542 51.3154 31.157 50.3236 31.157 49.1886H31.1548Z" fill="#1C1D24"/>
<g id="_05-2">
<path id="Vector_11" d="M34.1209 59.5358L28.9737 63.3192C28.033 64.0117 26.7473 64.0117 25.8066 63.3192L20.6594 59.5358C18.7437 58.1272 17.6123 55.8956 17.6123 53.5209V42.1259C17.6123 41.3799 18.0966 40.7194 18.8123 40.495L23.188 39.1163C25.9244 38.2549 28.858 38.2549 31.5944 39.1163L35.9702 40.495C36.6837 40.7194 37.1702 41.3799 37.1702 42.1259V53.5209C37.1702 55.8956 36.0387 58.1272 34.123 59.5358H34.1209Z" stroke="white" stroke-linecap="round" stroke-linejoin="round"/>
<path id="Vector_12" d="M30.182 47.9377C30.182 46.4073 28.9413 45.1654 27.4091 45.159C25.8663 45.1525 24.6084 46.4008 24.6084 47.9377C24.6084 48.9594 25.1613 49.8529 25.9863 50.336C26.1191 50.4129 26.1877 50.5668 26.1513 50.7143L25.4698 53.5764C25.4184 53.7923 25.5834 54.0018 25.8063 54.0018H28.9841C29.207 54.0018 29.372 53.7945 29.3205 53.5764L28.6391 50.7143C28.6027 50.5647 28.6713 50.4129 28.8041 50.336C29.627 49.8529 30.1798 48.9616 30.1798 47.9398L30.182 47.9377Z" stroke="white" stroke-linecap="round" stroke-linejoin="round"/>
</g>
<path id="Vector_13" d="M108.302 42.2024H48.4114C47.3999 42.2024 46.4849 42.6107 45.8206 43.2733C45.1585 43.9338 44.7471 44.8486 44.7471 45.8575C44.7471 47.1785 45.4499 48.337 46.5042 48.9783C47.0592 49.3181 47.7128 49.5126 48.4092 49.5126H70.6221H70.3714" stroke="white" stroke-linecap="round" stroke-linejoin="round"/>
</g>
</g>
</svg>
