<svg width="120" height="86" viewBox="0 0 120 86" fill="none" xmlns="http://www.w3.org/2000/svg">
<g id="2fas_mobile">
<g id="Group 345">
<path id="Vector" d="M51.2143 5.21375H15.3214C12.6586 5.21375 10.5 7.37237 10.5 10.0352C10.5 12.698 12.6586 14.8566 15.3214 14.8566H51.2143C53.8771 14.8566 56.0357 12.698 56.0357 10.0352C56.0357 7.37237 53.8771 5.21375 51.2143 5.21375Z" fill="#90A6F4"/>
<path id="Vector_2" d="M90.096 18.2852H38.1681C35.0117 18.2852 32.4531 15.7266 32.4531 12.5702" stroke="#161616" stroke-linecap="round" stroke-linejoin="round" stroke-dasharray="2.57 3.43 2.57 3.43"/>
<path id="Vector_3" d="M61.339 14.6427C61.9307 14.6427 62.4104 14.163 62.4104 13.5713C62.4104 12.9796 61.9307 12.4999 61.339 12.4999C60.7473 12.4999 60.2676 12.9796 60.2676 13.5713C60.2676 14.163 60.7473 14.6427 61.339 14.6427Z" stroke="#161616" stroke-linecap="round" stroke-linejoin="round"/>
<path id="Vector_4" d="M108.804 72.3916H108.161V57.8202H108.804C109.278 57.8202 109.661 58.2038 109.661 58.6773V71.5345C109.661 72.008 109.278 72.3916 108.804 72.3916Z" stroke="#161616" stroke-width="0.8325" stroke-linecap="round" stroke-linejoin="round"/>
<path id="Vector_5" d="M108.804 57.8213H108.161V43.2499H108.804C109.278 43.2499 109.661 43.6334 109.661 44.107V56.9642C109.661 57.4377 109.278 57.8213 108.804 57.8213Z" stroke="#161616" stroke-linecap="round" stroke-linejoin="round"/>
<path id="Vector_6" d="M108.054 81.0709V18.928C108.054 13.2473 103.449 8.64233 97.7679 8.64233H24.9107C19.23 8.64233 14.625 13.2473 14.625 18.928V80.6423" stroke="#161616" stroke-linecap="round" stroke-linejoin="round"/>
<g id="Group 2606">
<path id="Vector_7" d="M89.1097 56.1453L85.154 59.0596C84.4297 59.5931 83.444 59.5931 82.7197 59.0596L78.764 56.1453C77.2919 55.061 76.4219 53.3403 76.4219 51.5103V42.7288C76.4219 42.1524 76.7947 41.6446 77.3433 41.471L80.7054 40.4081C82.8076 39.7438 85.064 39.7438 87.1683 40.4081L90.5304 41.471C91.079 41.6446 91.4519 42.1524 91.4519 42.7288V51.5103C91.4519 53.3403 90.5819 55.061 89.1097 56.1453Z" fill="#214CE8"/>
<path id="Vector_8" d="M84.8872 46.773C84.8872 45.4637 83.8286 44.4009 82.5194 44.3944C81.2101 44.388 80.1279 45.4573 80.1279 46.773C80.1279 47.6473 80.6015 48.4123 81.3044 48.8259C81.4179 48.8923 81.4758 49.023 81.4458 49.1494L80.8629 51.6009C80.8179 51.7873 80.9594 51.9652 81.1501 51.9652H83.8651C84.0558 51.9652 84.1972 51.7873 84.1522 51.6009L83.5694 49.1494C83.5394 49.0209 83.5972 48.8902 83.7108 48.8237C84.4136 48.4102 84.8872 47.6452 84.8872 46.7709V46.773Z" fill="white"/>
<g id="_05-2">
<path id="Vector_9" d="M87.1664 54.7479L83.2107 57.6622C82.4864 58.1958 81.5007 58.1958 80.7764 57.6622L76.8207 54.7479C75.3485 53.6636 74.4785 51.9429 74.4785 50.1129V41.3315C74.4785 40.7551 74.8514 40.2472 75.3999 40.0736L78.7621 39.0108C80.8642 38.3465 83.1207 38.3465 85.2249 39.0108L88.5871 40.0736C89.1357 40.2472 89.5085 40.7551 89.5085 41.3315V50.1129C89.5085 51.9429 88.6385 53.6636 87.1664 54.7479Z" stroke="#161616" stroke-linecap="round" stroke-linejoin="round"/>
<path id="Vector_10" d="M84.1388 45.8096C84.1388 44.631 83.1853 43.6731 82.0088 43.6689C80.8238 43.6624 79.8574 44.6246 79.8574 45.8096C79.8574 46.5981 80.2817 47.286 80.916 47.6567C81.0167 47.7167 81.0703 47.8346 81.0424 47.9481L80.5196 50.1531C80.481 50.3203 80.6074 50.481 80.7788 50.481H83.2217C83.3931 50.481 83.5196 50.3203 83.481 50.1531L82.9581 47.9481C82.9303 47.8324 82.9838 47.7146 83.0846 47.6567C83.7167 47.2839 84.1431 46.596 84.1431 45.8096H84.1388Z" stroke="#161616" stroke-linecap="round" stroke-linejoin="round"/>
</g>
</g>
<g id="Group 2607">
<path id="Vector_11" d="M46.2849 45.0458L42.8499 41.6108C42.5649 41.3258 42.1792 41.165 41.7763 41.165H36.102H34.7778C33.8306 41.165 33.0635 41.9322 33.0635 42.8793V57.6693C33.0635 58.6165 33.8306 59.3836 34.7778 59.3836H45.0142C45.9613 59.3836 46.7285 58.6165 46.7285 57.6693V46.1193C46.7285 45.8986 46.6813 45.6843 46.5892 45.4893C46.5163 45.3265 46.4135 45.1743 46.2828 45.0458H46.2849Z" fill="#90A6F4"/>
<path id="Vector_12" d="M45.0166 53.7764V43.5507" stroke="#161616" stroke-linecap="round" stroke-linejoin="round"/>
<path id="Vector_13" d="M41.9777 56.8124H34.3877" stroke="#161616" stroke-linecap="round" stroke-linejoin="round"/>
<path id="Vector_14" d="M31.3516 53.7755V41.6298" stroke="#161616" stroke-linecap="round" stroke-linejoin="round"/>
<path id="Vector_15" d="M34.3877 38.5936H40.062C40.4648 38.5936 40.8506 38.7543 41.1356 39.0393L44.5706 42.4743" stroke="#161616" stroke-linecap="round" stroke-linejoin="round"/>
<path id="Vector_16" d="M40.1152 40.0634V42.6476C40.1152 42.7226 40.1452 42.7891 40.1945 42.8384C40.2417 42.8876 40.3102 42.9176 40.3852 42.9176H44.8767" stroke="#161616" stroke-linecap="round" stroke-linejoin="round"/>
<path id="Vector_17" d="M40.0623 38.5936H33.0658C32.1187 38.5936 31.3516 39.3608 31.3516 40.3079V55.0979C31.3516 56.0451 32.1187 56.8122 33.0658 56.8122H43.3023C44.2494 56.8122 45.0166 56.0451 45.0166 55.0979V43.5479C45.0166 43.3272 44.9694 43.1129 44.8773 42.9179C44.8044 42.7551 44.7016 42.6029 44.5708 42.4743L41.1358 39.0393" stroke="#161616" stroke-linecap="round" stroke-linejoin="round"/>
</g>
<path id="Vector_18" d="M50.6084 48.9882L68.6491 48.9882" stroke="#161616" stroke-linecap="round" stroke-linejoin="round"/>
<path id="Vector_19" d="M62.4531 41.9745L69.4646 48.9881L62.4531 55.9995" stroke="#161616" stroke-linecap="round" stroke-linejoin="round"/>
<path id="Vector_20" d="M85.4719 31.8339H36.919C27.4465 31.8339 19.7676 39.5128 19.7676 48.9853C19.7676 58.4578 27.4465 66.1367 36.919 66.1367H85.4719C94.9443 66.1367 102.623 58.4578 102.623 48.9853C102.623 39.5128 94.9443 31.8339 85.4719 31.8339Z" stroke="#161616" stroke-linecap="round" stroke-linejoin="round"/>
</g>
</g>
</svg>
