<svg viewBox="0 0 17 15" xmlns="http://www.w3.org/2000/svg">
<path d="M1 6.36401C0.447715 6.36401 -4.82823e-08 6.81173 0 7.36401C4.82823e-08 7.9163 0.447715 8.36401 1 8.36401L1 7.36401L1 6.36401ZM16.7071 8.07112C17.0976 7.68059 17.0976 7.04743 16.7071 6.65691L10.3431 0.292945C9.95262 -0.0975793 9.31946 -0.0975793 8.92893 0.292945C8.53841 0.68347 8.53841 1.31663 8.92893 1.70716L14.5858 7.36401L8.92893 13.0209C8.53841 13.4114 8.53841 14.0446 8.92893 14.4351C9.31946 14.8256 9.95262 14.8256 10.3431 14.4351L16.7071 8.07112ZM1 7.36401L1 8.36401L16 8.36401L16 7.36401L16 6.36401L1 6.36401L1 7.36401Z"/>
</svg>
