<svg width="104" height="172" viewBox="0 0 104 172" fill="none" xmlns="http://www.w3.org/2000/svg">
<path fill-rule="evenodd" clip-rule="evenodd" d="M74.0314 52.5004C74.3935 53.7567 75.5175 54.6036 76.8273 54.6036V54.6005C78.0048 54.6005 79.0249 53.9267 79.4909 52.8405L97.9946 9.58337C98.3787 8.6829 98.2905 7.66279 97.7553 6.85048C97.2106 6.02557 96.307 5.53441 95.3341 5.53441C94.9437 5.53441 94.5564 5.61627 94.1849 5.77369L50.9246 24.2774C49.7786 24.7654 49.0891 25.8831 49.1678 27.1268C49.2465 28.3704 50.0682 29.3937 51.2647 29.7369L66.1255 33.9968C67.9013 34.5037 69.2614 35.867 69.7715 37.6396L74.0314 52.5004ZM62.3434 41.3607C62.762 41.0004 62.8093 40.369 62.449 39.9504C62.0888 39.5318 61.4574 39.4845 61.0388 39.8448C47.7498 51.2816 36.9925 66.0334 31.3409 82.8177C25.8933 98.9959 25.3912 117.077 31.0288 133.219C27.0179 134.847 23.1697 136.883 19.5766 139.287C9.02819 146.345 -0.172301 157.845 0.202924 170.988C0.218682 171.54 0.678994 171.974 1.23105 171.959C1.78311 171.943 2.21787 171.483 2.20211 170.93C1.85496 158.771 10.4128 147.825 20.6887 140.95L20.1801 140.189L20.6887 140.95C24.153 138.632 27.8583 136.669 31.7162 135.098C34.2991 141.849 38.0578 148.348 43.5257 153.177C49.0119 158.026 56.3809 161.065 63.7413 160.297C71.0994 159.528 78.1998 154.546 80.5337 147.302L80.5337 147.302C81.588 144.026 81.6387 140.116 79.7184 137.032C77.7325 133.841 74.1429 132.255 70.9331 131.213L70.6393 132.119L70.933 131.213C58.5822 127.206 45.0706 127.99 32.8945 132.495C27.4436 116.835 27.9212 99.2408 33.2363 83.456C38.7573 67.0595 49.2859 52.5984 62.3434 41.3607ZM44.8496 151.678C39.6996 147.13 36.0924 140.942 33.5804 134.373C45.3745 130.007 58.4321 129.26 70.3158 133.116C73.4708 134.14 76.4387 135.547 78.0205 138.089C79.5316 140.516 79.5702 143.768 78.6299 146.689C76.5733 153.072 70.2216 157.609 63.5336 158.307C56.8481 159.005 50.0146 156.243 44.8499 151.678L44.8496 151.678Z" fill="white"/>
</svg>
