<svg width="105" height="173" viewBox="0 0 105 173" fill="none" xmlns="http://www.w3.org/2000/svg">
<path fill-rule="evenodd" clip-rule="evenodd" d="M75.0313 52.5005C75.3934 53.7567 76.5174 54.6037 77.8272 54.6037V54.6005C79.0047 54.6005 80.0248 53.9267 80.4908 52.8405L98.9945 9.58338C99.3786 8.68291 99.2905 7.6628 98.7552 6.85049C98.2105 6.02559 97.3069 5.53442 96.334 5.53442C95.9436 5.53442 95.5564 5.61628 95.1848 5.77371L51.9246 24.2774C50.7785 24.7654 50.089 25.8831 50.1677 27.1268C50.2464 28.3704 51.0682 29.3937 52.2646 29.7369L67.1255 33.9968C68.9012 34.5037 70.2614 35.867 70.7714 37.6396L75.0313 52.5005ZM62.3774 41.6195C62.796 41.2592 62.8433 40.6278 62.4831 40.2092C62.1228 39.7906 61.4914 39.7433 61.0728 40.1036C47.7839 51.5405 37.0265 66.2923 31.3749 83.0766C25.9274 99.2547 25.4253 117.336 31.0628 133.478C27.0519 135.106 23.2037 137.142 19.6106 139.546C9.06221 146.604 -0.138274 158.104 0.236951 171.246C0.252709 171.798 0.713021 172.233 1.26508 172.217C1.81714 172.202 2.2519 171.741 2.23613 171.189C1.88899 159.03 10.4468 148.084 20.7228 141.209C24.187 138.891 27.8923 136.928 31.7502 135.357C34.3331 142.107 38.0918 148.607 43.5597 153.436C49.0459 158.285 56.415 161.324 63.7754 160.555C71.1334 159.787 78.2338 154.804 80.5677 147.561L80.5678 147.56C81.622 144.285 81.6727 140.375 79.7525 137.291C77.7665 134.1 74.1769 132.514 70.9671 131.472L70.6734 132.377L70.9671 131.472C58.6163 127.465 45.1046 128.248 32.9285 132.754C27.4776 117.094 27.9552 99.4996 33.2703 83.7148C38.7914 67.3183 49.3199 52.8572 62.3774 41.6195ZM44.8836 151.937C39.7336 147.388 36.1264 141.201 33.6144 134.632C45.4085 130.266 58.4661 129.519 70.3498 133.375C73.5048 134.398 76.4727 135.806 78.0545 138.348C79.5656 140.775 79.6042 144.027 78.664 146.948C76.6073 153.33 70.2557 157.868 63.5677 158.566C56.8821 159.264 50.0487 156.502 44.8839 151.937L44.8836 151.937Z" fill="#161616"/>
</svg>
