<svg width="22" height="15" viewBox="0 0 22 15" fill="none" xmlns="http://www.w3.org/2000/svg">
<path d="M21.2071 8.07112C21.5976 7.6806 21.5976 7.04743 21.2071 6.65691L14.8431 0.292946C14.4526 -0.0975784 13.8195 -0.0975784 13.4289 0.292946C13.0384 0.68347 13.0384 1.31664 13.4289 1.70716L19.0858 7.36401L13.4289 13.0209C13.0384 13.4114 13.0384 14.0446 13.4289 14.4351C13.8195 14.8256 14.4526 14.8256 14.8431 14.4351L21.2071 8.07112ZM1 6.36401C0.447715 6.36401 6.58593e-09 6.81173 0 7.36401C-6.58593e-09 7.9163 0.447715 8.36401 1 8.36401L1 7.36401L1 6.36401ZM20.5 7.36401L20.5 6.36401L1 6.36401L1 7.36401L1 8.36401L20.5 8.36401L20.5 7.36401Z" fill="white"/>
</svg>
