<?xml version="1.0" encoding="utf-8"?><!DOCTYPE svg PUBLIC "-//W3C//DTD SVG 1.1//EN" "http://www.w3.org/Graphics/SVG/1.1/DTD/svg11.dtd"><svg xmlns="http://www.w3.org/2000/svg" width="160" height="160" viewBox="0 0 29 29" shape-rendering="crispEdges"><path fill="#ffffff" d="M0 0h29v29H0z"/><path stroke="#000000" d="M2 2.5h7m1 0h1m1 0h1m1 0h1m3 0h1m1 0h7M2 3.5h1m5 0h1m2 0h4m3 0h1m1 0h1m5 0h1M2 4.5h1m1 0h3m1 0h1m1 0h3m2 0h1m1 0h1m2 0h1m1 0h3m1 0h1M2 5.5h1m1 0h3m1 0h1m1 0h3m1 0h3m3 0h1m1 0h3m1 0h1M2 6.5h1m1 0h3m1 0h1m1 0h1m2 0h5m2 0h1m1 0h3m1 0h1M2 7.5h1m5 0h1m3 0h2m2 0h1m3 0h1m5 0h1M2 8.5h7m1 0h1m1 0h1m1 0h1m1 0h1m1 0h1m1 0h7M12 9.5h1m1 0h1m3 0h1M2 10.5h4m2 0h1m1 0h1m1 0h3m1 0h4m2 0h3m1 0h1M2 11.5h4m4 0h1m1 0h1m1 0h1m1 0h1m1 0h1m2 0h1m3 0h1M2 12.5h4m2 0h1m1 0h6m2 0h1M2 13.5h2m1 0h1m5 0h2m2 0h3m2 0h2m1 0h2M3 14.5h1m2 0h7m1 0h3m2 0h4m1 0h3M4 15.5h2m3 0h1m1 0h1m1 0h8m1 0h1m3 0h1M3 16.5h4m1 0h3m1 0h2m2 0h1m5 0h1m1 0h2M2 17.5h1m2 0h1m7 0h1m5 0h4m3 0h1M4 18.5h3m1 0h2m2 0h1m2 0h1m2 0h9M10 19.5h2m6 0h1m3 0h1m1 0h1m1 0h1M2 20.5h7m5 0h1m1 0h1m1 0h1m1 0h1m1 0h1m1 0h3M2 21.5h1m5 0h1m2 0h4m1 0h3m3 0h1M2 22.5h1m1 0h3m1 0h1m2 0h1m4 0h1m1 0h6m2 0h1M2 23.5h1m1 0h3m1 0h1m1 0h1m1 0h2m1 0h1m1 0h4m1 0h5M2 24.5h1m1 0h3m1 0h1m1 0h1m2 0h3m1 0h2m1 0h1m1 0h1m1 0h2M2 25.5h1m5 0h1m1 0h2m3 0h2m5 0h1m1 0h1M2 26.5h7m1 0h1m1 0h1m1 0h4m1 0h1m1 0h6"/></svg>
