<svg width="1920" height="770" viewBox="0 0 1920 770" fill="none" xmlns="http://www.w3.org/2000/svg">
<path d="M1133.8 440.128C1022.58 409.263 962.622 303.017 1007.29 248.701C1056.64 188.72 1365.22 197.831 1400.63 212.457C1436.04 227.082 1146.56 273.884 1186.06 329.074C1229.94 390.333 1450.22 390.418 1444.22 416.575C1438.33 442.313 1262.36 475.8 1133.8 440.128Z" stroke="#252731" stroke-opacity="0.5" stroke-width="2" stroke-miterlimit="10"/>
<path d="M1098.98 447.676C968.623 420.778 912.06 292.174 969.524 231.587C1034.65 162.965 1369.9 188.4 1419.67 199.26C1462.57 208.607 1184.09 271.547 1217.38 338.236C1253.52 410.691 1452.2 422.459 1437.36 439.27C1421.4 457.291 1251.96 479.163 1098.98 447.676Z" stroke="#252731" stroke-opacity="0.5" stroke-width="2" stroke-miterlimit="10"/>
<path d="M1064.17 455.206C914.871 432.36 861.602 281.347 931.76 214.489C1012.81 137.159 1371.92 179.186 1438.71 186.045C1487.26 191.088 1221.86 269.125 1248.66 347.43C1277.28 430.947 1458.65 455.441 1430.49 461.846C1409.48 473.193 1242.11 482.456 1064.17 455.206Z" stroke="#252731" stroke-opacity="0.5" stroke-width="2" stroke-miterlimit="10"/>
<path d="M1029.35 462.805C861.22 443.842 811.246 270.588 894.096 197.427C991.2 111.556 1378.68 157.837 1457.85 172.883C1507.45 182.314 1259.87 266.738 1280.05 356.61C1301.31 451.188 1462.95 487.971 1423.73 484.491C1395.05 488.643 1232.23 485.651 1029.35 462.805Z" stroke="#252731" stroke-opacity="0.5" stroke-width="2" stroke-miterlimit="10"/>
<path d="M994.527 470.302C807.637 455.172 760.957 259.761 856.223 180.262C969.418 85.7847 1376.42 147.683 1476.79 159.635C1533.11 166.36 1297.77 264.233 1311.26 365.721C1325.13 471.361 1470.79 516.196 1416.75 507.068C1382.14 501.234 1222.41 488.761 994.527 470.302Z" stroke="#252731" stroke-opacity="0.5" stroke-width="2" stroke-miterlimit="10"/>
<path d="M959.747 477.85C754.06 466.469 710.71 248.969 818.461 163.166C947.852 60.0977 1374.8 155.534 1495.86 146.355C1558.6 141.631 1335.92 261.712 1342.58 374.833C1349.51 491.501 1476.1 549.516 1409.89 529.611C1368.69 517.306 1212.63 491.82 959.747 477.85Z" stroke="#252731" stroke-opacity="0.5" stroke-width="2" stroke-miterlimit="10"/>
<path d="M924.93 485.382C700.482 477.749 660.496 238.26 780.662 146.052C926.317 34.4272 1376.29 148.607 1514.87 133.225C1582.67 125.694 1374.04 259.308 1373.83 384.062C1373.62 511.825 1480.29 582.768 1402.99 552.306C1354.51 533.192 1202.86 494.846 924.93 485.382Z" stroke="#252731" stroke-opacity="0.5" stroke-width="2" stroke-miterlimit="10"/>
<path d="M890.105 492.93C646.895 488.996 610.377 227.451 742.889 128.939C904.705 8.75697 1378.16 141.933 1533.9 120.012C1606.94 109.74 1412.25 256.887 1405.14 393.224C1397.89 532.015 1484.21 615.751 1396.12 574.917C1340.08 548.961 1193 497.822 890.105 492.93Z" stroke="#252731" stroke-opacity="0.5" stroke-width="2" stroke-miterlimit="10"/>
<path d="M855.29 500.478C593.317 500.226 560.094 216.692 705.126 111.825C883.172 -16.9135 1380.34 135.36 1552.95 106.782C1631.39 93.7867 1450.5 254.416 1436.42 402.369C1422.17 552.222 1488.06 648.582 1389.26 597.528C1325.51 564.628 1183.26 500.78 855.29 500.478Z" stroke="#252731" stroke-opacity="0.5" stroke-width="2" stroke-miterlimit="10"/>
<path d="M820.47 508.009C539.563 511.372 509.911 205.95 667.358 94.7284C861.566 -42.55 1382.8 128.972 1571.98 93.6021C1655.98 77.9007 1488.75 251.995 1467.7 411.548C1446.48 572.463 1491.98 681.381 1382.35 620.172C1310.91 580.246 1173.44 503.706 820.47 508.009Z" stroke="#252731" stroke-opacity="0.5" stroke-width="2" stroke-miterlimit="10"/>
<path d="M785.652 515.557C486.087 522.634 459.66 195.207 629.592 77.6143C840.169 -68.2041 1385.61 122.6 1591.02 80.3881C1680.67 61.9969 1527.07 249.557 1499.02 420.709C1470.82 592.702 1495.76 714.095 1375.49 642.782C1296.28 595.829 1163.59 506.614 785.652 515.557Z" stroke="#252731" stroke-opacity="0.5" stroke-width="2" stroke-miterlimit="10"/>
<path d="M750.831 523.106C432.47 533.831 409.616 184.465 591.824 60.5012C818.7 -93.8404 1388.28 116.28 1610.06 67.2256C1705.4 46.111 1565.36 247.103 1530.3 429.922C1495.17 612.977 1499.61 746.826 1368.62 665.444C1281.68 611.397 1153.74 509.522 750.831 523.106Z" stroke="#252731" stroke-opacity="0.5" stroke-width="2" stroke-miterlimit="10"/>
<path d="M716.017 530.637C378.824 545.01 359.473 173.656 554.062 43.4045C797.237 -119.477 1391.23 109.976 1629.14 53.9786C1730.27 30.1743 1603.72 244.699 1561.62 439.051C1519.52 633.402 1503.46 779.456 1361.76 688.072C1267.05 626.947 1143.9 512.397 716.017 530.637Z" stroke="#252731" stroke-opacity="0.5" stroke-width="2" stroke-miterlimit="10"/>
<path d="M681.199 538.186C325.175 556.19 309.327 162.999 516.262 26.2919C775.771 -145.18 1394.32 103.622 1648.14 40.7661C1755.13 14.2552 1642.04 242.279 1592.9 448.214C1543.9 653.425 1507.34 812.087 1354.86 710.65C1252.41 642.481 1134.05 515.289 681.199 538.186Z" stroke="#252731" stroke-opacity="0.5" stroke-width="2" stroke-miterlimit="10"/>
<path d="M646.375 545.733C271.519 567.368 259.728 152.457 478.593 9.17695C755.096 -170.499 1397.61 97.4346 1667.28 27.5682C1780.13 -1.66612 1680.49 239.857 1624.28 457.374C1568.37 673.664 1511.33 844.733 1348.09 733.276C1237.77 658.013 1124.13 518.146 646.375 545.733Z" stroke="#252731" stroke-opacity="0.5" stroke-width="2" stroke-miterlimit="10"/>
<path d="M611.56 553.265C217.874 578.531 209.551 141.715 440.727 -7.90249C733.46 -196.185 1400.7 91.2823 1686.22 14.3889C1805 -17.552 1718.75 237.47 1655.46 466.604C1592.69 693.989 1515.11 877.414 1341.12 755.971C1223.14 673.547 1114.25 521.021 611.56 553.265Z" stroke="#252731" stroke-opacity="0.5" stroke-width="2" stroke-miterlimit="10"/>
<path d="M576.741 560.813C164.05 589.695 159.334 130.957 402.96 -25.0323C711.924 -221.721 1403.96 84.9283 1705.26 1.1592C1830.11 -33.5218 1757.94 235.067 1686.74 475.716C1617.9 714.23 1518.99 909.977 1334.25 778.515C1208.51 689.064 1104.33 523.88 576.741 560.813Z" stroke="#252731" stroke-opacity="0.5" stroke-width="2" stroke-miterlimit="10"/>
<path d="M541.925 568.36C110.403 600.486 109.12 120.197 365.196 -42.1469C690.39 -247.476 1407.29 78.6736 1724.34 -12.0552C1854.98 -49.4428 1796.12 232.645 1718.06 484.877C1642.15 734.47 1522.88 942.573 1327.36 801.142C1193.87 704.58 1094.27 526.266 541.925 568.36Z" stroke="#252731" stroke-opacity="0.5" stroke-width="2" stroke-miterlimit="10"/>
<path d="M507.1 575.893C56.7469 611.734 58.9664 109.455 327.424 -59.2595C668.813 -273.129 1410.65 72.4376 1743.37 -25.2678C1879.97 -65.3787 1834.34 230.259 1749.33 494.04C1666.38 754.711 1526.79 975.187 1320.48 823.754C1179.13 720.013 1084.38 529.225 507.1 575.893Z" stroke="#252731" stroke-opacity="0.5" stroke-width="2" stroke-miterlimit="10"/>
<path d="M472.283 583.44C3.09832 622.979 8.71645 98.6955 289.658 -76.3572C647.278 -298.733 1414.09 66.183 1762.41 -38.4653C1905.01 -81.3165 1872.73 227.787 1780.62 503.151C1690.45 774.9 1530.12 1007.92 1313.62 846.33C1164.18 735.731 1074.5 532.2 472.283 583.44Z" stroke="#252731" stroke-opacity="0.5" stroke-width="2" stroke-miterlimit="10"/>
<path d="M437.468 590.988C-50.5476 634.277 -41.6001 87.9198 251.896 -93.4706C625.746 -324.437 1417.52 59.9296 1781.45 -51.6112C1930.09 -97.2026 1910.78 225.434 1811.94 512.431C1714.87 795.208 1534.32 1040.46 1306.76 869.008C1149.76 751.163 1064.69 535.092 437.468 590.988Z" stroke="#252731" stroke-opacity="0.5" stroke-width="2" stroke-miterlimit="10"/>
<path d="M1299.85 891.619C1135.33 766.613 1054.7 538.135 402.647 598.52C-104.234 645.473 -91.7149 77.1948 214.093 -110.584C604.207 -350.107 1420.95 53.6763 1800.49 -64.8747C2107.41 -160.765 1780.97 1257.21 1299.85 891.619Z" stroke="#252731" stroke-opacity="0.5" stroke-width="2" stroke-miterlimit="10"/>
</svg>
