<svg viewBox="0 0 32 32" fill="none" xmlns="http://www.w3.org/2000/svg">
<g id="cancel_schedule_send">
<mask id="mask0_3276_13389" style="mask-type:alpha" maskUnits="userSpaceOnUse" x="0" y="0" width="32" height="32">
<rect id="Bounding box" x="7.62939e-05" width="32" height="32" fill="#D9D9D9"/>
</mask>
<g mask="url(#mask0_3276_13389)">
<path id="cancel_schedule_send_2" d="M20.3001 25.6333L22.6334 23.3L24.9667 25.6333L25.9667 24.6333L23.6667 22.3333L26.0001 20L25.0001 19L22.6667 21.3333L20.3334 19L19.3334 20L21.6667 22.3333L19.3334 24.6667L20.3001 25.6333ZM4.00008 26.3333V5L23.0667 13H22.6667C21.889 13 21.1556 13.0889 20.4667 13.2667C19.7779 13.4444 19.1112 13.6889 18.4667 14L6.66674 9V13.6667L14.6667 15.6667L6.66674 17.6667V22.3333L13.8667 19.2667C13.689 19.7778 13.5556 20.2833 13.4667 20.7833C13.3779 21.2833 13.3334 21.8 13.3334 22.3333V22.4L4.00008 26.3333ZM22.6667 29C20.8223 29 19.2501 28.35 17.9501 27.05C16.6501 25.75 16.0001 24.1778 16.0001 22.3333C16.0001 20.4889 16.6501 18.9167 17.9501 17.6167C19.2501 16.3167 20.8223 15.6667 22.6667 15.6667C24.5112 15.6667 26.0834 16.3167 27.3834 17.6167C28.6834 18.9167 29.3334 20.4889 29.3334 22.3333C29.3334 24.1778 28.6834 25.75 27.3834 27.05C26.0834 28.35 24.5112 29 22.6667 29Z" />
</g>
</g>
</svg>
