<svg viewBox="0 0 21 33" fill="none" xmlns="http://www.w3.org/2000/svg">
<g id="icon">
<path id="Vector" d="M16.0958 15.7004C16.0958 16.1246 16.2754 16.5289 16.5901 16.8133L19.4473 19.3952C19.4809 19.4255 19.5 19.4686 19.5 19.5137C19.5 19.602 19.4285 19.6735 19.3402 19.6735H11.6875H10.5H9.3125H1.68479C1.58273 19.6735 1.5 19.5908 1.5 19.4887C1.5 19.4388 1.52021 19.391 1.55603 19.3562L4.21184 16.7763C4.5026 16.4938 4.66667 16.1057 4.66667 15.7004V3.00598C4.66667 2.41608 4.42448 1.88275 4.03411 1.5H16.7284C16.338 1.88275 16.0958 2.41608 16.0958 3.00598V15.7004Z" />
<line id="Line 19" x1="10.5" y1="21" x2="10.5" y2="33" />
</g>
</svg>
