<svg width="14" height="22" viewBox="0 0 14 22" xmlns="http://www.w3.org/2000/svg">
<path d="M10.499 1C10.2604 1.24875 10.1133 1.58612 10.1133 1.95801V10.3037C10.1134 10.5797 10.2275 10.8433 10.4287 11.0322L12.2324 12.7256C12.252 12.744 12.2626 12.77 12.2627 12.7969C12.2627 12.8509 12.2191 12.8955 12.165 12.8955H1.11426C1.05114 12.8954 1 12.8434 1 12.7803C1.00011 12.7503 1.01207 12.7215 1.0332 12.7002L2.70996 11.0068C2.89541 10.8197 2.99991 10.5672 3 10.3037V1.95801C3 1.58615 2.8528 1.24875 2.61426 1H10.499Z"/>
<line x1="6.68457" y1="13.7813" x2="6.68457" y2="21.6562"/>
</svg>
