<svg viewBox="0 0 31 32" fill="none" xmlns="http://www.w3.org/2000/svg">
<g id="icon">
<path id="Vector" d="M9.60666 5.0895C9.60666 3.36724 10.9663 2 12.6036 2C14.2409 2 15.6006 3.36535 15.6006 5.0895V6.9685C15.6006 7.51049 16.0406 7.9505 16.5826 7.9505H21.1791C22.2838 7.9505 23.2091 8.87206 23.2091 10.0486V14.9038C23.2091 15.4457 23.6492 15.8857 24.1911 15.8857H26.0192C27.6583 15.8857 29.0161 17.2511 29.0161 18.9752C29.0161 20.6994 27.6564 22.0647 26.0192 22.0647H24.1911C23.6492 22.0647 23.2091 22.5048 23.2091 23.0467V27.9019C23.2091 29.0765 22.2838 30 21.1791 30H19.825C19.1471 30 18.5976 29.4505 18.5976 28.7725V27.1957C18.5976 24.6916 16.6128 22.6332 14.1257 22.6332C11.6386 22.6332 9.65576 24.6935 9.65576 27.1957V28.7725C9.65576 29.4505 9.10622 30 8.42827 30H4.03008C2.92534 30 2 29.0784 2 27.9019V24.7652C2 24.0873 2.54954 23.5377 3.22749 23.5377H3.33702C5.8241 23.5377 7.80886 21.4774 7.80886 18.9752C7.80886 16.4731 5.8241 14.4128 3.33702 14.4128H3.22749C2.54954 14.4128 2 13.8632 2 13.1853V10.0486C2 8.87395 2.92534 7.9505 4.03008 7.9505H8.62467C9.16666 7.9505 9.60666 7.51049 9.60666 6.9685V5.0895Z" />
</g>
</svg>
