<svg viewBox="0 0 33 33" fill="none" xmlns="http://www.w3.org/2000/svg">
<g id="icon">
<g id="icon_2">
<path id="Vector" d="M14.5636 7.94238H10.3179C9.14551 7.94238 8.19507 8.89283 8.19507 10.0652V14.311C8.19507 15.4834 9.14551 16.4338 10.3179 16.4338H14.5636C15.7361 16.4338 16.6865 15.4834 16.6865 14.311V10.0652C16.6865 8.89283 15.7361 7.94238 14.5636 7.94238Z" />
<path id="Vector_2" d="M8.19508 2.63477H5.0108C4.44777 2.63477 3.90782 2.85842 3.50971 3.25654C3.1116 3.65465 2.88794 4.1946 2.88794 4.75762V7.94191" />
<path id="Vector_3" d="M25.178 2.63477H28.3623C28.9252 2.63477 29.4653 2.85842 29.8633 3.25654C30.2614 3.65465 30.4851 4.1946 30.4851 4.75762V7.94191" />
<path id="Vector_4" d="M8.19508 30.2319H5.0108C4.44777 30.2319 3.90782 30.0082 3.50971 29.6102C3.1116 29.2121 2.88794 28.6721 2.88794 28.1091V24.9248" />
<path id="Vector_5" d="M25.178 30.2319H28.3623C28.9252 30.2319 29.4653 30.0082 29.8633 29.6102C30.2614 29.2121 30.4851 28.6721 30.4851 28.1091V24.9248" />
<path id="Vector_6" d="M8.19507 21.7402V24.9245H11.3794" />
<path id="Vector_7" d="M16.6865 24.9245V21.7402H13.5022" />
<path id="Vector_8" d="M25.1779 11.1267H21.9937V7.94238" />
<path id="Vector_9" d="M25.1779 18.5564V15.3721H21.9937" />
<path id="Vector_10" d="M21.9937 21.7402V24.9245H25.1779" />
</g>
</g>
</svg>
