<svg viewBox="0 0 32 32" fill="none" xmlns="http://www.w3.org/2000/svg">
<path d="M13.3686 7H9.12286C7.95045 7 7 7.95045 7 9.12286V13.3686C7 14.541 7.95045 15.4914 9.12286 15.4914H13.3686C14.541 15.4914 15.4914 14.541 15.4914 13.3686V9.12286C15.4914 7.95045 14.541 7 13.3686 7Z" />
<path d="M7.30714 2H4.12286C3.55983 2 3.01988 2.22366 2.62177 2.62177C2.22366 3.01988 2 3.55983 2 4.12286V7.30714" />
<path d="M24 2H27.1843C27.7473 2 28.2873 2.22366 28.6854 2.62177C29.0834 3.01988 29.3071 3.55983 29.3071 4.12286V7.30714" />
<path d="M7.30714 29.3071H4.12286C3.55983 29.3071 3.01988 29.0834 2.62177 28.6854C2.22366 28.2873 2 27.7473 2 27.1843V24" />
<path d="M24 29.3071H27.1843C27.7473 29.3071 28.2873 29.0834 28.6854 28.6854C29.0834 28.2873 29.3071 27.7473 29.3071 27.1843V24" />
<path d="M7 21V24.1843H10.1843" />
<path d="M16.1843 24.1843V21H13" />
<path d="M24.1843 10.1843H21V7" />
<path d="M24.1843 18.1843V15H21" />
<path d="M21 21V24.1843H24.1843" />
</svg>
