<svg viewBox="0 0 300 18" xmlns="http://www.w3.org/2000/svg">
<path d="M2 7.80798C18.6114 6.41881 35.2229 5.02963 78.2315 3.94355C121.24 2.85746 190.143 2.11657 228.036 2.01273C265.929 1.90889 270.725 2.46456 273.021 2.79712C275.316 3.12968 274.965 3.2223 274.082 3.27001C273.2 3.31771 271.796 3.31771 270.546 3.27141C269.297 3.2251 268.244 3.13249 233.543 4.33504C198.842 5.53759 130.524 8.03811 89.3643 10.1135C48.2044 12.1888 36.2722 13.7632 29.5989 14.7132C22.9256 15.6631 21.8728 15.941 21.6228 15.9915C21.3729 16.042 21.9578 15.8568 22.7271 15.7151C23.4963 15.5733 24.4322 15.4807 68.3731 13.3493C112.314 11.2178 199.232 7.05025 245.353 5.04226C291.474 3.03427 294.164 3.3121 295.726 3.50154C297.287 3.69097 297.638 3.78358 298 3.879" stroke-width="4" stroke-linecap="round"/>
</svg>
