<svg viewBox="0 -28.5 256 256" xmlns="http://www.w3.org/2000/svg" preserveAspectRatio="xMidYMid"><path d="M216.856 16.597c-16.571-7.753-34.29-13.388-52.815-16.597-2.275 4.113-4.933 9.645-6.765 14.046-19.692-2.961-39.203-2.961-58.533 0-1.832-4.401-4.55-9.933-6.846-14.046-18.545 3.208-36.284 8.864-52.855 16.638-33.425 50.509-42.485 99.763-37.955 148.318 22.169 16.555 43.653 26.612 64.775 33.193 5.215-7.177 9.866-14.807 13.873-22.848-7.631-2.9-14.94-6.478-21.846-10.632 1.832-1.357 3.624-2.777 5.356-4.237 42.123 19.702 87.89 19.702 129.51 0 1.752 1.46 3.544 2.879 5.356 4.237-6.927 4.175-14.256 7.753-21.887 10.653 4.007 8.02 8.638 15.671 13.873 22.848 21.142-6.581 42.646-16.637 64.815-33.213 5.316-56.288-9.081-105.089-38.056-148.359zm-131.382 118.498c-12.645 0-23.015-11.805-23.015-26.18s10.148-26.2 23.015-26.2 23.236 11.804 23.015 26.2c.02 14.375-10.148 26.18-23.015 26.18zm85.051 0c-12.645 0-23.015-11.805-23.015-26.18s10.148-26.2 23.015-26.2c12.866 0 23.236 11.804 23.015 26.2 0 14.375-10.148 26.18-23.015 26.18z" /></svg>