<svg viewBox="0 0 66 64" fill="none" xmlns="http://www.w3.org/2000/svg"><path fill-rule="evenodd" clip-rule="evenodd" d="M32.81 0C14.681 0 0 14.682 0 32.81c0 14.518 9.392 26.78 22.433 31.127 1.64.287 2.256-.697 2.256-1.558 0-.78-.04-3.363-.04-6.11-8.244 1.517-10.377-2.01-11.033-3.856-.37-.943-1.969-3.855-3.363-4.634-1.148-.616-2.789-2.133-.041-2.174 2.584-.04 4.43 2.379 5.044 3.363 2.953 4.962 7.67 3.568 9.556 2.707.287-2.133 1.148-3.568 2.092-4.389-7.3-.82-14.929-3.65-14.929-16.2 0-3.567 1.272-6.52 3.363-8.817-.328-.82-1.476-4.183.329-8.694 0 0 2.747-.861 9.022 3.363 2.625-.738 5.414-1.107 8.202-1.107 2.79 0 5.578.369 8.203 1.107 6.275-4.265 9.022-3.363 9.022-3.363 1.805 4.511.657 7.874.328 8.694 2.092 2.297 3.363 5.209 3.363 8.818 0 12.59-7.669 15.38-14.969 16.2 1.19 1.025 2.215 2.993 2.215 6.07 0 4.388-.041 7.915-.041 9.022 0 .861.615 1.886 2.255 1.558C56.227 59.59 65.62 47.287 65.62 32.81 65.619 14.682 50.937 0 32.809 0z" /></svg>