<svg viewBox="0 -38 256 256" xmlns="http://www.w3.org/2000/svg" preserveAspectRatio="xMidYMid"><path d="M250.346 28.075c-2.988-11.043-11.614-19.669-22.657-22.657-19.866-5.418-99.821-5.418-99.821-5.418s-79.955.164-99.821 5.582c-11.043 2.988-19.669 11.614-22.657 22.657-6.009 35.299-8.34 89.084.164 122.97 2.988 11.043 11.614 19.669 22.657 22.657 19.866 5.418 99.821 5.418 99.821 5.418s79.955 0 99.821-5.418c11.043-2.988 19.669-11.614 22.657-22.657 6.337-35.348 8.291-89.1-.164-123.135z" class="social-youtube-play"/><path class="social-youtube-box" d="M102.421 128.06l66.329-38.418-66.329-38.418z"/></svg>