<svg width="82" height="86" viewBox="0 0 82 86" fill="none" xmlns="http://www.w3.org/2000/svg">
<g id="icon" clip-path="url(#clip0_867_4215)">
<path id="Vector" d="M43.8158 81.7102C64.5002 81.7102 81.2683 64.9421 81.2683 44.2577C81.2683 23.5732 64.5002 6.80518 43.8158 6.80518C23.1313 6.80518 6.36328 23.5732 6.36328 44.2577C6.36328 64.9421 23.1313 81.7102 43.8158 81.7102Z" fill="#4167f1"/>
<g id="Group">
<path id="Vector_2" d="M72.9222 59.3577C72.9222 59.3577 72.9326 59.337 72.9429 59.3215C77.1883 52.1406 79.1505 43.536 77.9804 34.631C75.1951 13.4766 55.7854 -1.41326 34.6362 1.37212C13.4766 4.1575 -1.41326 23.562 1.37212 44.7216C4.1575 65.876 23.562 80.7658 44.7215 77.9804C50.4269 77.2297 55.687 75.2675 60.2586 72.3838" stroke="#fff" stroke-linecap="round" stroke-linejoin="round"/>
<path id="Vector_3" d="M72.9422 59.3262C72.9422 59.3262 72.9318 59.3469 72.9215 59.3624C68.5104 66.5433 73.0354 74.2575 73.0354 74.2575C65.7768 75.2153 62.1113 73.9727 60.2578 72.3885" stroke="#fff" stroke-linecap="round" stroke-linejoin="round"/>
</g>
<path id="Vector_4" d="M41.8145 31.9749C29.622 19.7824 15.0169 37.2765 27.2042 49.4638L39.8057 62.0653C40.9137 63.1733 42.7102 63.1733 43.8181 62.0653L56.4196 49.4638C68.6173 37.2661 54.007 19.7773 41.8093 31.9749H41.8145Z" fill="#1C1D24"/>
<path id="Vector_5" d="M39.6739 27.8329C27.4814 15.6403 12.8762 33.1344 25.0636 45.3217L37.6651 57.9233C38.773 59.0312 40.5695 59.0312 41.6775 57.9233L54.279 45.3217C66.4767 33.124 51.8664 15.6352 39.6687 27.8329H39.6739Z" stroke="#fff" stroke-miterlimit="10" stroke-linecap="round"/>
</g>
<defs>
<clipPath id="clip0_867_4215">
<rect width="81.2731" height="85.71" fill="white"/>
</clipPath>
</defs>
</svg>
