<svg width="160" height="116" viewBox="0 0 160 116" fill="none" xmlns="http://www.w3.org/2000/svg">
<path d="M139.698 21.4286V16.2857" stroke="#161616" stroke-linecap="round" stroke-linejoin="round"/>
<path d="M147.126 14H141.983" stroke="#161616" stroke-linecap="round" stroke-linejoin="round"/>
<path d="M139.698 6.57141V11.7143" stroke="#161616" stroke-linecap="round" stroke-linejoin="round"/>
<path d="M132.269 14H137.412" stroke="#161616" stroke-linecap="round" stroke-linejoin="round"/>
<path d="M17.4286 14.3772V19.5201" stroke="#161616" stroke-linecap="round" stroke-linejoin="round"/>
<path d="M10 21.8058H15.1429" stroke="#161616" stroke-linecap="round" stroke-linejoin="round"/>
<path d="M17.4286 29.2343V24.0915" stroke="#161616" stroke-linecap="round" stroke-linejoin="round"/>
<path d="M24.8571 21.8058H19.7142" stroke="#161616" stroke-linecap="round" stroke-linejoin="round"/>
<path d="M27.6652 106.426V103.854" stroke="#161616" stroke-linecap="round" stroke-linejoin="round"/>
<path d="M31.3794 102.711H28.808" stroke="#161616" stroke-linecap="round" stroke-linejoin="round"/>
<path d="M27.6652 98.9972V101.569" stroke="#161616" stroke-linecap="round" stroke-linejoin="round"/>
<path d="M23.9509 102.711H26.5224" stroke="#161616" stroke-linecap="round" stroke-linejoin="round"/>
<path d="M149.677 94.6772L140.271 85.2715C137.708 82.7086 137.731 78.5572 140.28 76.0086L149.703 66.5858C150.28 66.0086 150.263 65.1 149.708 64.5458L147.717 62.5543C147.14 61.9772 146.225 62 145.671 62.5543L136.248 71.9772C133.68 74.5458 129.531 74.5315 126.985 71.9858L117.585 62.5858C117.008 62.0086 116.1 62.0258 115.54 62.5858L113.548 64.5772C112.971 65.1543 112.988 66.0629 113.548 66.6229L122.948 76.0229C125.511 78.5858 125.488 82.7372 122.94 85.2858L113.517 94.7086C112.94 95.2858 112.957 96.1943 113.517 96.7543L115.508 98.7458C116.08 99.3172 116.991 99.3 117.548 98.74L126.971 89.3172C129.54 86.7486 133.691 86.7629 136.234 89.3086L145.64 98.7143C146.217 99.2915 147.125 99.2743 147.685 98.7143L149.677 96.7229C150.254 96.1458 150.237 95.2372 149.677 94.6772Z" fill="#90A6F4"/>
<path d="M147.534 92.5343L138.128 83.1286C135.565 80.5658 135.588 76.4143 138.137 73.8658L147.56 64.4429C148.137 63.8658 148.12 62.9572 147.565 62.4029L145.574 60.4115C144.997 59.8343 144.083 59.8572 143.528 60.4115L134.105 69.8343C131.537 72.4029 127.388 72.3886 124.843 69.8429L115.443 60.4429C114.865 59.8658 113.957 59.8829 113.397 60.4429L111.405 62.4343C110.828 63.0115 110.845 63.92 111.405 64.48L120.805 73.8801C123.368 76.4429 123.345 80.5943 120.797 83.1429L111.374 92.5658C110.797 93.1429 110.814 94.0515 111.374 94.6115L113.365 96.6029C113.937 97.1743 114.848 97.1572 115.405 96.5972L124.828 87.1743C127.397 84.6058 131.548 84.62 134.091 87.1658L143.497 96.5715C144.074 97.1486 144.983 97.1315 145.543 96.5715L147.534 94.5801C148.111 94.0029 148.094 93.0943 147.534 92.5343Z" stroke="#161616" stroke-linecap="round" stroke-linejoin="round"/>
<path d="M36.9282 66.0056L27.771 56.8485L18.6139 66.0056" stroke="#161616" stroke-linecap="round" stroke-linejoin="round"/>
<path d="M121.331 50.0943L130.489 59.2514L139.646 50.0943" stroke="#161616" stroke-linecap="round" stroke-linejoin="round"/>
<path d="M91.5571 28.7628H72.7886C68.0673 28.7628 64.24 32.5901 64.24 37.3114V87C64.24 91.7212 68.0673 95.5485 72.7886 95.5485H91.5571C96.2784 95.5485 100.106 91.7212 100.106 87V37.3114C100.106 32.5901 96.2784 28.7628 91.5571 28.7628Z" fill="#214CE8"/>
<path d="M89.1425 22.8856H69.3282C64.8957 22.8856 61.3025 26.4788 61.3025 30.9113V81.6456C61.3025 86.078 64.8957 89.6713 69.3282 89.6713H89.1425C93.575 89.6713 97.1682 86.078 97.1682 81.6456V30.9113C97.1682 26.4788 93.575 22.8856 89.1425 22.8856Z" stroke="#161616" stroke-linecap="round" stroke-linejoin="round"/>
<path d="M90.5886 29.2714H73.7572C71.8401 29.2714 70.2858 27.7171 70.2858 25.7971" stroke="#161616" stroke-linecap="round" stroke-linejoin="round"/>
<path d="M86.4028 54.8915L82.2314 57.9658C81.4685 58.5286 80.4285 58.5286 79.6656 57.9658L75.4942 54.8915C73.9428 53.7486 73.0256 51.9343 73.0256 50.0058V40.7486C73.0256 40.1429 73.4199 39.6058 73.9971 39.4229L77.5428 38.3029C79.7599 37.6029 82.1371 37.6029 84.3542 38.3029L87.8999 39.4229C88.4771 39.6058 88.8714 40.1429 88.8714 40.7486V50.0058C88.8714 51.9343 87.9542 53.7486 86.4028 54.8915Z" fill="white"/>
<path d="M84.6885 52.6058L80.5171 55.68C79.7543 56.2429 78.7143 56.2429 77.9514 55.68L73.78 52.6058C72.2285 51.4629 71.3114 49.6486 71.3114 47.72V38.4629C71.3114 37.8572 71.7057 37.32 72.2828 37.1372L75.8285 36.0172C78.0457 35.3172 80.4228 35.3172 82.64 36.0172L86.1857 37.1372C86.7628 37.32 87.1571 37.8572 87.1571 38.4629V47.72C87.1571 49.6486 86.24 51.4629 84.6885 52.6058Z" stroke="#161616" stroke-linecap="round" stroke-linejoin="round"/>
<path d="M27.786 56.8599C27.7774 57.2199 27.7745 57.5828 27.7745 57.9456C27.7745 62.3771 28.3345 66.6771 29.3917 70.7799C29.4288 70.9228 29.466 71.0656 29.5031 71.2056C29.5602 71.4228 29.6202 71.6399 29.686 71.8571C35.746 93.4628 55.5888 109.303 79.1317 109.303H79.3888C79.566 109.303 79.7402 109.303 79.9145 109.297C80.0974 109.294 80.2774 109.291 80.4574 109.286C80.6774 109.28 80.8974 109.274 81.1174 109.266C91.2602 108.88 100.652 105.551 108.46 100.109" stroke="#161616" stroke-linecap="round" stroke-linejoin="round"/>
<path d="M130.479 58.8199C130.482 58.7856 130.482 58.7513 130.482 58.7171C130.485 58.4599 130.488 58.2028 130.488 57.9456C130.488 29.5799 107.494 6.58563 79.1308 6.58563C62.7936 6.58563 48.2422 14.2113 38.8336 26.0999C35.5879 30.2028 32.9536 34.8171 31.0736 39.7999" stroke="#161616" stroke-linecap="round" stroke-linejoin="round"/>
</svg>
