<svg width="160" height="115" viewBox="0 0 160 115" fill="none" xmlns="http://www.w3.org/2000/svg">
<g id="be_pairing">
<g id="Group 348">
<path id="Vector" d="M16.2857 22.9286V17.7857" stroke="black" stroke-linecap="round" stroke-linejoin="round"/>
<path id="Vector_2" d="M8.85715 15.5H14" stroke="black" stroke-linecap="round" stroke-linejoin="round"/>
<path id="Vector_3" d="M16.2857 8.07144V13.2143" stroke="black" stroke-linecap="round" stroke-linejoin="round"/>
<path id="Vector_4" d="M23.7143 15.5H18.5714" stroke="black" stroke-linecap="round" stroke-linejoin="round"/>
<path id="Vector_5" d="M26.5223 96.0686V101.211" stroke="black" stroke-linecap="round" stroke-linejoin="round"/>
<path id="Vector_6" d="M33.9509 103.497H28.808" stroke="black" stroke-linecap="round" stroke-linejoin="round"/>
<path id="Vector_7" d="M26.5223 110.926V105.783" stroke="black" stroke-linecap="round" stroke-linejoin="round"/>
<path id="Vector_8" d="M19.0938 103.497H24.2366" stroke="black" stroke-linecap="round" stroke-linejoin="round"/>
<path id="Vector_9" d="M128.315 11.7857V9.21429" stroke="black" stroke-linecap="round" stroke-linejoin="round"/>
<path id="Vector_10" d="M124.6 8.07144H127.172" stroke="black" stroke-linecap="round" stroke-linejoin="round"/>
<path id="Vector_11" d="M128.315 4.35715V6.92858" stroke="black" stroke-linecap="round" stroke-linejoin="round"/>
<path id="Vector_12" d="M132.029 8.07144H129.458" stroke="black" stroke-linecap="round" stroke-linejoin="round"/>
<path id="Vector_13" d="M132.502 106.574C142.759 106.574 151.074 98.2595 151.074 88.0028C151.074 77.7461 142.759 69.4314 132.502 69.4314C122.246 69.4314 113.931 77.7461 113.931 88.0028C113.931 98.2595 122.246 106.574 132.502 106.574Z" fill="#90A6F4"/>
<path id="Vector_14" d="M129.074 104.289C139.33 104.289 147.645 95.9738 147.645 85.7171C147.645 75.4604 139.33 67.1457 129.074 67.1457C118.817 67.1457 110.502 75.4604 110.502 85.7171C110.502 95.9738 118.817 104.289 129.074 104.289Z" stroke="black" stroke-linecap="round" stroke-linejoin="round"/>
<path id="Vector_15" d="M129.194 67.6255V104.288" stroke="black" stroke-linecap="round" stroke-linejoin="round"/>
<path id="Vector_16" d="M147.646 85.8371H122.006" stroke="black" stroke-linecap="round" stroke-linejoin="round"/>
<path id="Vector_17" d="M116.255 85.8371H110.743" stroke="black" stroke-linecap="round" stroke-linejoin="round"/>
<path id="Vector_18" d="M139.018 85.7171C139.018 90.9457 137.843 95.6428 135.983 99.0085C134.109 102.4 131.635 104.289 129.072 104.289C126.509 104.289 124.035 102.4 122.16 99.0085C120.3 95.6428 119.126 90.9457 119.126 85.7171C119.126 80.4885 120.3 75.7914 122.16 72.4257C124.035 69.0342 126.509 67.1457 129.072 67.1457C131.635 67.1457 134.109 69.0342 135.983 72.4257C137.843 75.7914 139.018 80.4885 139.018 85.7171Z" stroke="black" stroke-linecap="round" stroke-linejoin="round"/>
<path id="Vector_19" d="M141.894 73.1373C138.746 75.0487 134.169 76.2516 129.074 76.2516C123.98 76.2516 119.403 75.0487 116.254 73.1373" stroke="black" stroke-linecap="round" stroke-linejoin="round"/>
<path id="Vector_20" d="M116.254 98.7772C119.403 96.8658 123.98 95.663 129.074 95.663C134.169 95.663 138.746 96.8658 141.894 98.7772" stroke="black" stroke-linecap="round" stroke-linejoin="round"/>
<path id="Vector_21" d="M35.7853 67.3286L26.6281 58.2029L17.471 67.3286" stroke="black" stroke-linecap="round" stroke-linejoin="round"/>
<path id="Vector_22" d="M120.189 51.4716L129.346 60.5973L138.503 51.4716" stroke="black" stroke-linecap="round" stroke-linejoin="round"/>
<path id="Vector_23" d="M98.9662 38.7342V88.2485C98.9662 92.9542 95.1376 96.7656 90.4176 96.7656H71.649C66.929 96.7656 63.1004 92.9514 63.1004 88.2485V38.7342C63.1004 34.0285 66.929 30.2171 71.649 30.2171H90.4176C95.1376 30.2171 98.9662 34.0314 98.9662 38.7342Z" fill="#214CE8"/>
<path id="Vector_24" d="M96.0259 32.3571V82.9142C96.0259 87.3314 92.4317 90.9114 88.0002 90.9114H68.1831C63.7517 90.9114 60.1574 87.3314 60.1574 82.9142V32.3571C60.1574 27.9399 63.7517 24.3599 68.1831 24.3599H88.0002C92.4317 24.3599 96.0259 27.9399 96.0259 32.3571Z" stroke="black" stroke-linecap="round" stroke-linejoin="round"/>
<path id="Vector_25" d="M89.4457 30.7228H72.6143C70.6971 30.7228 69.1429 29.1743 69.1429 27.2628" stroke="black" stroke-linecap="round" stroke-linejoin="round"/>
<g id="_05">
<path id="Vector_26" d="M85.26 56.2546L81.0885 59.3174C80.3257 59.8774 79.2857 59.8774 78.5228 59.3174L74.3514 56.2546C72.8 55.1146 71.8828 53.306 71.8828 51.386V42.1603C71.8828 41.5546 72.2771 41.0203 72.8543 40.8403L76.4 39.726C78.6171 39.0288 80.9943 39.0288 83.2114 39.726L86.7571 40.8403C87.3343 41.0231 87.7285 41.5574 87.7285 42.1603V51.386C87.7285 53.3088 86.8114 55.1146 85.26 56.2546Z" fill="white"/>
<path id="Vector_27" d="M83.5457 53.9772L79.3743 57.0401C78.6114 57.6001 77.5714 57.6001 76.8085 57.0401L72.6371 53.9772C71.0857 52.8372 70.1685 51.0286 70.1685 49.1086V39.8829C70.1685 39.2772 70.5628 38.7429 71.14 38.5629L74.6857 37.4486C76.9028 36.7515 79.28 36.7515 81.4971 37.4486L85.0428 38.5629C85.62 38.7458 86.0143 39.2801 86.0143 39.8829V49.1086C86.0143 51.0315 85.0971 52.8372 83.5457 53.9772Z" stroke="black" stroke-linecap="round" stroke-linejoin="round"/>
</g>
<path id="Vector_28" d="M26.6431 58.2143C26.6346 58.5743 26.6317 58.9343 26.6317 59.2971C26.6317 63.7143 27.1917 67.9972 28.2488 72.0857C28.286 72.2286 28.3231 72.3714 28.3603 72.5086C28.4174 72.7257 28.4774 72.94 28.5431 73.1572C34.6031 94.6857 54.446 110.471 77.9888 110.471H78.246C78.4231 110.471 78.5974 110.471 78.7717 110.466C78.9546 110.466 79.1346 110.46 79.3146 110.454C79.5346 110.449 79.7546 110.443 79.9746 110.434C90.1174 110.049 99.5088 106.734 107.317 101.309" stroke="black" stroke-linecap="round" stroke-linejoin="round"/>
<path id="Vector_29" d="M129.337 60.1658C129.339 60.1316 129.339 60.0973 129.339 60.063C129.342 59.8058 129.345 59.5516 129.345 59.2944C129.345 31.0287 106.351 8.11441 77.988 8.11441C61.6508 8.11441 47.0994 15.7144 37.6908 27.5601C34.4451 31.6487 31.8108 36.2458 29.9308 41.2116" stroke="black" stroke-linecap="round" stroke-linejoin="round"/>
</g>
</g>
</svg>
