<svg viewBox="0 0 24 19" fill="none" xmlns="http://www.w3.org/2000/svg">
<g clip-path="url(#clip0_5158_1536)">
<path d="M16.8302 2.75H4.08023C2.91023 2.75 2.33023 2.75 1.88023 2.98C1.49023 3.18 1.17023 3.5 0.970234 3.89C0.740234 4.34 0.740234 4.92 0.740234 6.09V14.01C0.740234 15.18 0.740234 15.76 0.970234 16.21C1.17023 16.6 1.49023 16.92 1.88023 17.12C2.33023 17.35 2.91023 17.35 4.08023 17.35H18.2402C19.4102 17.35 19.9902 17.35 20.4402 17.12C20.8302 16.92 21.1502 16.6 21.3502 16.21C21.5802 15.76 21.5802 15.18 21.5802 14.01V8.05"/>
<path d="M21.5801 0.75V4.75" />
<path d="M23.3101 3.75L19.8501 1.75" />
<path d="M19.8501 3.75L23.3101 1.75" />
<path d="M6.93984 8.04004H5.17984L4.33984 8.88004V9.91004"/>
<path d="M4.33984 9.91003V11.2L5.17984 12.04H6.93984"/>
<path d="M9.1499 8.04004L10.2599 12.04H11.0399"/>
<path d="M12.46 8.04004L11.36 12.04H11.04"/>
<path d="M14.6797 8.04004L15.7797 12.04H16.5697"/>
<path d="M17.9898 8.04004L16.8898 12.04H16.5698"/>
</g>
</svg>
