<svg viewBox="0 0 23 17" fill="none" xmlns="http://www.w3.org/2000/svg">
<path d="M18.2598 3.97998H12.0898" />
<path d="M0.76 4.09V12.01C0.76 13.18 0.76 13.76 0.99 14.21C1.19 14.6 1.51 14.92 1.9 15.12C2.35 15.35 2.93 15.35 4.1 15.35H18.26C19.43 15.35 20.01 15.35 20.46 15.12C20.85 14.92 21.17 14.6 21.37 14.21C21.6 13.76 21.6 13.18 21.6 12.01V4.09C21.6 2.92 21.6 2.34 21.37 1.89C21.17 1.5 20.85 1.18 20.46 0.98C20.01 0.75 19.43 0.75 18.26 0.75H4.09C2.92 0.75 2.34 0.75 1.89 0.98C1.5 1.18 1.18 1.5 0.98 1.89C0.75 2.34 0.75 2.92 0.75 4.09H0.76Z" />
<path d="M8.3498 3.97998H4.5498C4.27366 3.97998 4.0498 4.20384 4.0498 4.47998V7.41998C4.0498 7.69612 4.27366 7.91998 4.5498 7.91998H8.3498C8.62595 7.91998 8.8498 7.69612 8.8498 7.41998V4.47998C8.8498 4.20384 8.62595 3.97998 8.3498 3.97998Z" />
<path d="M5.1498 11.48H4.0498" />
<path d="M8.67982 11.48H7.56982" />
<path d="M12.1996 11.48H11.0996" />
<path d="M15.7196 11.48H14.6196" />
</svg>
