<svg viewBox="0 0 8 6" fill="none" xmlns="http://www.w3.org/2000/svg">
<path d="M3.99544 5.39974C3.89952 5.39974 3.81098 5.38129 3.72982 5.3444C3.64865 5.30751 3.56934 5.25033 3.49186 5.17285L0.210286 1.85807C0.0885415 1.73633 0.0276692 1.58876 0.0276692 1.41536C0.0276692 1.23459 0.0885416 1.08149 0.210286 0.956054C0.33572 0.83062 0.486979 0.767903 0.664062 0.767903C0.841146 0.767903 0.997938 0.836154 1.13444 0.972656L3.99544 3.87793L6.85645 0.972656C6.99295 0.836155 7.14974 0.767904 7.32682 0.767904C7.50391 0.767904 7.65332 0.830621 7.77506 0.956055C7.9005 1.08149 7.96322 1.23459 7.96322 1.41536C7.96322 1.58876 7.90234 1.73633 7.7806 1.85807L4.49902 5.17285C4.35514 5.32411 4.18728 5.39974 3.99544 5.39974Z" />
</svg>
