<svg viewBox="0 0 28 29" fill="none" xmlns="http://www.w3.org/2000/svg">
<path d="M5.37521 24.0122C5.8845 24.5098 6.74348 24.5034 7.2284 24.0185L14.4373 16.8096L21.642 24.0164C22.1354 24.5098 22.9934 24.5173 23.4931 24.0101C23.9928 23.5008 23.9949 22.662 23.5015 22.1665L16.2968 14.9501L23.5015 7.74536C23.9949 7.25201 24.0024 6.40358 23.4931 5.90389C22.9838 5.3946 22.1354 5.39249 21.642 5.89546L14.4373 13.1002L7.2284 5.89335C6.74348 5.40093 5.87489 5.38288 5.37521 5.90178C4.87764 6.41108 4.88396 7.25833 5.36888 7.74325L12.5778 14.9501L5.36888 22.1707C4.88396 22.6535 4.86803 23.5125 5.37521 24.0122Z" />
</svg>
