<svg viewBox="0 0 217 87" fill="none" xmlns="http://www.w3.org/2000/svg">
<g>
<rect x="12.0032" y="18.5438" width="13.8492" height="2.76983" rx="1.38492"/>
<rect y="24.0034" width="1.28954" height="4.51338" rx="0.644768"/>
<rect x="35.464" y="24.1559" width="1.28954" height="10.3163" rx="0.644768"/>
<rect y="29.1614" width="1.28954" height="5.15815" rx="0.644768"/>
<path d="M133.841 78.4664V80.6461H84.8001V78.4664H133.841ZM207.948 80.6461H158.907V78.4664H207.948V80.6461Z"/>
<rect x="76.0816" y="80.646" width="140.585" height="5.44905" rx="1"/>
</g>
<g>
<rect x="1.42337" y="16.2742" width="34.0846" height="69.1691" rx="6.5"/>
<path d="M88.8001 0.5H203.948C205.881 0.5 207.448 2.067 207.448 4V77.9658H85.3001V4C85.3001 2.067 86.8671 0.5 88.8001 0.5Z"/>
<path d="M137.112 2.31445H155.638" stroke-width="4" stroke-linecap="round"/>
</g>
<g>
<path d="M34.9646 52.9917H34.4646V51.9917H34.9646V52.4917V52.9917ZM84.7814 29.9301C84.9767 30.1254 84.9767 30.442 84.7814 30.6372L81.5995 33.8192C81.4042 34.0145 81.0876 34.0145 80.8924 33.8192C80.6971 33.624 80.6971 33.3074 80.8924 33.1121L83.7208 30.2837L80.8924 27.4553C80.6971 27.26 80.6971 26.9434 80.8924 26.7482C81.0876 26.5529 81.4042 26.5529 81.5995 26.7482L84.7814 29.9301ZM34.9646 52.4917V51.9917H50.4596V52.4917V52.9917H34.9646V52.4917ZM53.4596 49.4917H52.9596V33.2837H53.4596H53.9596V49.4917H53.4596ZM56.4596 30.2837V29.7837H84.4279V30.2837V30.7837H56.4596V30.2837ZM53.4596 33.2837H52.9596C52.9596 31.3507 54.5266 29.7837 56.4596 29.7837V30.2837V30.7837C55.0789 30.7837 53.9596 31.903 53.9596 33.2837H53.4596ZM50.4596 52.4917V51.9917C51.8403 51.9917 52.9596 50.8724 52.9596 49.4917H53.4596H53.9596C53.9596 51.4247 52.3926 52.9917 50.4596 52.9917V52.4917Z"/>
<circle cx="35.646" cy="52.2522" r="2.30042"/>
</g>
</svg>
