<svg viewBox="0 0 14 16" fill="none" xmlns="http://www.w3.org/2000/svg">
<path d="M10.0384 2.05915C10.0384 0.703125 9.3478 0 8.00432 0H2.04032C0.696847 0 0 0.703125 0 2.05915V10.572C0 11.9217 0.696847 12.6311 2.04032 12.6311H2.982V13.7988C2.982 15.1549 3.68513 15.858 5.02232 15.858H10.9863C12.3235 15.858 13.0266 15.1549 13.0266 13.7988V5.22949C13.0266 3.87347 12.3298 3.17034 10.9863 3.17034H10.0384V2.05915ZM2.14076 11.4007C1.53181 11.4007 1.23047 11.0742 1.23047 10.4967V2.13449C1.23047 1.55064 1.53181 1.23047 2.14076 1.23047H7.8976C8.50656 1.23047 8.8079 1.55064 8.8079 2.13449V3.17034H5.02232C3.67885 3.17034 2.982 3.87347 2.982 5.22949V11.4007H2.14076ZM11.7962 5.30483V13.7235C11.7962 14.3011 11.4886 14.6275 10.8796 14.6275H5.12905C4.52009 14.6275 4.21247 14.3011 4.21247 13.7235V5.30483C4.21247 4.72098 4.52009 4.40081 5.12905 4.40081H10.8796C11.4886 4.40081 11.7962 4.72098 11.7962 5.30483Z" />
</svg>
