<svg viewBox="0 0 15 15" fill="none" xmlns="http://www.w3.org/2000/svg">
<path d="M2.47852 14.0801H11.6016C13.2363 14.0801 14.0801 13.2363 14.0801 11.6242V2.45592C14.0801 0.84375 13.2363 0 11.6016 0H2.47852C0.851283 0 0 0.836217 0 2.45592V11.6242C0 13.2363 0.851283 14.0801 2.47852 14.0801ZM2.57645 12.5809C1.88337 12.5809 1.49916 12.2193 1.49916 11.4886V2.59152C1.49916 1.86077 1.88337 1.49916 2.57645 1.49916H11.5036C12.1892 1.49916 12.5809 1.86077 12.5809 2.59152V11.4886C12.5809 12.2193 12.1892 12.5809 11.5036 12.5809H2.57645ZM7.02874 10.5017C7.51842 10.5017 7.78962 10.1777 7.78962 9.65792V4.76116H9.43945C9.80859 4.76116 10.0647 4.52762 10.0647 4.16602C10.0647 3.78934 9.80859 3.57087 9.43945 3.57087H4.64816C4.27902 3.57087 4.02288 3.78934 4.02288 4.16602C4.02288 4.52762 4.27902 4.76116 4.64816 4.76116H6.28292V9.65792C6.28292 10.1702 6.5466 10.5017 7.02874 10.5017Z" />
</svg>
