<svg viewBox="0 0 16 16" fill="none" xmlns="http://www.w3.org/2000/svg">
<g id="copy-03" clip-path="url(#clip0_3704_19700)">
<path id="Icon" d="M5.33325 5.33337V3.46671C5.33325 2.71997 5.33325 2.3466 5.47858 2.06139C5.60641 1.8105 5.81038 1.60653 6.06126 1.4787C6.34648 1.33337 6.71985 1.33337 7.46659 1.33337H12.5333C13.28 1.33337 13.6534 1.33337 13.9386 1.4787C14.1895 1.60653 14.3934 1.8105 14.5213 2.06139C14.6666 2.3466 14.6666 2.71997 14.6666 3.46671V8.53337C14.6666 9.28011 14.6666 9.65348 14.5213 9.93869C14.3934 10.1896 14.1895 10.3936 13.9386 10.5214C13.6534 10.6667 13.28 10.6667 12.5333 10.6667H10.6666M3.46659 14.6667H8.53325C9.27999 14.6667 9.65336 14.6667 9.93857 14.5214C10.1895 14.3936 10.3934 14.1896 10.5213 13.9387C10.6666 13.6535 10.6666 13.2801 10.6666 12.5334V7.46671C10.6666 6.71997 10.6666 6.3466 10.5213 6.06139C10.3934 5.8105 10.1895 5.60653 9.93857 5.4787C9.65336 5.33337 9.27999 5.33337 8.53325 5.33337H3.46659C2.71985 5.33337 2.34648 5.33337 2.06126 5.4787C1.81038 5.60653 1.60641 5.8105 1.47858 6.06139C1.33325 6.3466 1.33325 6.71997 1.33325 7.46671V12.5334C1.33325 13.2801 1.33325 13.6535 1.47858 13.9387C1.60641 14.1896 1.81038 14.3936 2.06126 14.5214C2.34648 14.6667 2.71985 14.6667 3.46659 14.6667Z" />
</g>
</svg>
