<svg viewBox="0 0 14 14" fill="none" xmlns="http://www.w3.org/2000/svg">
<path d="M8.16659 6.41663H4.66659M5.83325 8.74996H4.66659M9.33325 4.08329H4.66659M11.6666 3.96663V10.0333C11.6666 11.0134 11.6666 11.5034 11.4758 11.8778C11.3081 12.2071 11.0404 12.4748 10.7111 12.6426C10.3367 12.8333 9.84668 12.8333 8.86659 12.8333H5.13325C4.15316 12.8333 3.66311 12.8333 3.28877 12.6426C2.95949 12.4748 2.69177 12.2071 2.52399 11.8778C2.33325 11.5034 2.33325 11.0134 2.33325 10.0333V3.96663C2.33325 2.98653 2.33325 2.49649 2.52399 2.12214C2.69177 1.79286 2.95949 1.52514 3.28877 1.35736C3.66311 1.16663 4.15316 1.16663 5.13325 1.16663H8.86659C9.84668 1.16663 10.3367 1.16663 10.7111 1.35736C11.0404 1.52514 11.3081 1.79286 11.4758 2.12214C11.6666 2.49649 11.6666 2.98653 11.6666 3.96663Z" />
</svg>
