<svg viewBox="0 0 254 223" fill="none" xmlns="http://www.w3.org/2000/svg">
<path d="M200.502 31.3902H64.1913C55.9057 31.3902 49.1895 23.6591 49.1895 14.1214" stroke="#A5A8B6" stroke-width="1.5" stroke-linecap="round" stroke-linejoin="round" stroke-dasharray="2.57 3.43 2.57 3.43"/>
<path d="M125.015 20.3839C126.568 20.3839 127.827 18.9345 127.827 17.1464C127.827 15.3584 126.568 13.9089 125.015 13.9089C123.462 13.9089 122.202 15.3584 122.202 17.1464C122.202 18.9345 123.462 20.3839 125.015 20.3839Z" stroke="#A5A8B6" stroke-width="1.5" stroke-linecap="round" stroke-linejoin="round"/>
<path d="M249.61 194.882H247.923V150.852H249.61C250.853 150.852 251.86 152.011 251.86 153.442V192.292C251.86 193.723 250.853 194.882 249.61 194.882Z" stroke="#A5A8B6" stroke-width="1.5" stroke-linecap="round" stroke-linejoin="round"/>
<path d="M249.61 150.855H247.923V106.825H249.61C250.853 106.825 251.86 107.984 251.86 109.415V148.265C251.86 149.696 250.853 150.855 249.61 150.855Z" stroke="#A5A8B6" stroke-width="1.5" stroke-linecap="round" stroke-linejoin="round"/>
<path d="M247.641 221.108V33.3327C247.641 16.1675 235.553 2.25268 220.641 2.25268H29.3906C14.4788 2.25268 2.39062 16.1675 2.39062 33.3327V219.813" stroke="#A5A8B6" stroke-width="1.5" stroke-linecap="round" stroke-linejoin="round"/>
</svg>
