<svg viewBox="0 0 24 24" fill="none" xmlns="http://www.w3.org/2000/svg">
<path d="M22.7667 10.3334C22.7667 10.3334 20.4944 7.23734 18.6484 5.39003C16.8024 3.54273 14.2513 2.40002 11.4334 2.40002C5.80009 2.40002 1.2334 6.96672 1.2334 12.6C1.2334 18.2333 5.80009 22.8 11.4334 22.8C16.0836 22.8 20.0069 19.6882 21.2347 15.4334M22.7667 10.3334V7.25336M22.7667 10.3334H19.6867" />
<path d="M11.2998 10.6335L11.294 10.6335M12.7948 6.84601L9.80477 6.84601C9.16071 6.84601 8.83868 6.84601 8.59268 6.97135C8.37629 7.0816 8.20036 7.25753 8.09011 7.47392C7.96477 7.71992 7.96477 8.04195 7.96477 8.68601L7.96477 16.506C7.96477 17.1501 7.96477 17.4721 8.09011 17.7181C8.20036 17.9345 8.37629 18.1104 8.59268 18.2207C8.83867 18.346 9.16071 18.346 9.80477 18.346L12.7948 18.346C13.4388 18.346 13.7609 18.346 14.0069 18.2207C14.2232 18.1104 14.3992 17.9345 14.5094 17.7181C14.6348 17.4721 14.6348 17.1501 14.6348 16.506L14.6348 8.68601C14.6348 8.04195 14.6348 7.71992 14.5094 7.47392C14.3992 7.25753 14.2232 7.0816 14.0069 6.97135C13.7609 6.84601 13.4388 6.84601 12.7948 6.84601Z" />
</svg>
