<svg width="18" height="18" viewBox="0 0 18 18" fill="none" xmlns="http://www.w3.org/2000/svg">
<g id="icon">
<g id="icon_2">
<path id="Vector" d="M9.00001 16.4286C13.1028 16.4286 16.4286 13.1027 16.4286 8.99998C16.4286 4.8973 13.1028 1.57141 9.00001 1.57141C4.89733 1.57141 1.57144 4.8973 1.57144 8.99998C1.57144 13.1027 4.89733 16.4286 9.00001 16.4286Z" stroke="#797A81" stroke-width="1.5" stroke-linecap="round" stroke-linejoin="round"/>
<path id="Vector_2" d="M7.28574 12.4285H10.7143" stroke="#797A81" stroke-width="1.5" stroke-linecap="round" stroke-linejoin="round"/>
<path id="Vector_3" d="M9 12.4285V8.42853H7.85715" stroke="#797A81" stroke-width="1.5" stroke-linecap="round" stroke-linejoin="round"/>
<g id="Group 2605">
<path id="Ellipse 1111" d="M9.00001 5.85713C8.84221 5.85713 8.71429 5.72921 8.71429 5.57142C8.71429 5.41363 8.84221 5.28571 9.00001 5.28571" stroke="#797A81" stroke-width="1.5" stroke-linecap="round" stroke-linejoin="round"/>
<path id="Ellipse 1112" d="M9 5.85713C9.15779 5.85713 9.28571 5.72921 9.28571 5.57142C9.28571 5.41363 9.15779 5.28571 9 5.28571" stroke="#797A81" stroke-width="1.5" stroke-linecap="round" stroke-linejoin="round"/>
</g>
</g>
</g>
</svg>
