<svg viewBox="0 0 13 13" fill="none" xmlns="http://www.w3.org/2000/svg">
<g id="icon">
<path id="Vector" d="M8.96534 11.8204C8.8046 11.9811 8.58657 12.0714 8.35925 12.0714H4.78361C4.55629 12.0714 4.33826 11.9811 4.17752 11.8204L1.25105 8.89392C1.09031 8.73318 1 8.51516 1 8.28784V4.7122C1 4.48488 1.09031 4.26685 1.25105 4.10611L4.17752 1.17964C4.33826 1.01889 4.55629 0.928589 4.78361 0.928589H8.35925C8.58657 0.928589 8.8046 1.01889 8.96534 1.17964L11.8918 4.10611C12.0525 4.26685 12.1429 4.48488 12.1429 4.7122V8.28784C12.1429 8.51516 12.0525 8.73318 11.8918 8.89392L8.96534 11.8204Z" />
<path id="Vector_2" d="M6.57153 3.92859V6.7143" />
<path id="Ellipse 1111" d="M6.57146 9.07145C6.45312 9.07145 6.35718 8.97551 6.35718 8.85717C6.35718 8.73882 6.45312 8.64288 6.57146 8.64288" />
<path id="Ellipse 1112" d="M6.57153 9.07145C6.68988 9.07145 6.78582 8.97551 6.78582 8.85717C6.78582 8.73882 6.68988 8.64288 6.57153 8.64288" />
</g>
</svg>
