<svg viewBox="0 0 11 14" fill="none" xmlns="http://www.w3.org/2000/svg">
<g id="icon">
<path id="Vector" d="M9.13458 5.72803H2.31285C1.8446 5.72803 1.45898 6.11364 1.45898 6.58189V11.6959C1.45898 12.1641 1.8446 12.5498 2.31285 12.5498H9.13458C9.60282 12.5498 9.98844 12.1641 9.98844 11.6959V6.58189C9.98844 6.11364 9.60282 5.72803 9.13458 5.72803Z" />
<path id="Vector_2" d="M2.74463 5.7283V4.44292C2.74463 3.65332 3.05679 2.89127 3.61686 2.33121C4.17692 1.78033 4.92979 1.45898 5.72856 1.45898C6.52734 1.45898 7.27103 1.78033 7.83109 2.33121C8.06062 2.56074 8.26261 2.83618 8.40033 3.12999" />
<path id="Vector_3" d="M5.71922 9.55708C5.95793 9.55708 6.14156 9.36428 6.14156 9.13474C6.14156 8.90521 5.94875 8.7124 5.71922 8.7124C5.48968 8.7124 5.29688 8.90521 5.29688 9.13474C5.29688 9.36428 5.48968 9.55708 5.71922 9.55708Z" />
</g>
</svg>
