<svg viewBox="0 0 7 10" fill="none" xmlns="http://www.w3.org/2000/svg">
<path d="M6.62467 5.0057C6.62467 5.1256 6.60162 5.23628 6.5555 5.33773C6.50938 5.43918 6.43791 5.53833 6.34106 5.63517L2.19759 9.73714C2.04541 9.88932 1.86095 9.96541 1.6442 9.96541C1.41824 9.96541 1.22686 9.88932 1.07007 9.73714C0.913274 9.58035 0.834878 9.39128 0.834878 9.16992C0.834878 8.94857 0.920192 8.75258 1.09082 8.58195L4.72241 5.0057L1.09082 1.42944C0.920193 1.25882 0.83488 1.06283 0.83488 0.841472C0.83488 0.620118 0.913276 0.43335 1.07007 0.28117C1.22686 0.124377 1.41824 0.0459808 1.64421 0.0459808C1.86095 0.0459809 2.04541 0.122071 2.19759 0.274252L6.34106 4.37622C6.53014 4.55607 6.62467 4.7659 6.62467 5.0057Z" />
</svg>
