<svg viewBox="0 0 24 24" fill="none" xmlns="http://www.w3.org/2000/svg">
<g id="phone-01">
<path id="Icon" d="M11.9997 7.41536L11.9913 7.41536M14.1663 3.66536L9.83301 3.66536C8.89959 3.66536 8.43288 3.66536 8.07636 3.84702C7.76275 4.00681 7.50779 4.26178 7.348 4.57538C7.16634 4.9319 7.16634 5.39861 7.16634 6.33203L7.16634 17.6654C7.16634 18.5988 7.16634 19.0655 7.348 19.422C7.50779 19.7356 7.76275 19.9906 8.07636 20.1504C8.43288 20.332 8.89959 20.332 9.83301 20.332L14.1663 20.332C15.0998 20.332 15.5665 20.332 15.923 20.1504C16.2366 19.9906 16.4916 19.7356 16.6514 19.422C16.833 19.0655 16.833 18.5988 16.833 17.6654L16.833 6.33203C16.833 5.39861 16.833 4.9319 16.6514 4.57538C16.4916 4.26178 16.2366 4.00681 15.923 3.84702C15.5665 3.66536 15.0998 3.66536 14.1663 3.66536ZM11.583 7.41536C11.583 7.18525 11.7696 6.9987 11.9997 6.9987C12.2298 6.9987 12.4163 7.18525 12.4163 7.41536C12.4163 7.64548 12.2298 7.83203 11.9997 7.83203C11.7696 7.83203 11.583 7.64548 11.583 7.41536Z" />
<path id="Icon_2" d="M21.6204 7.41602C22.5485 8.70605 23.095 10.2889 23.095 11.9993C23.095 13.7098 22.5485 15.2926 21.6204 16.5827M19 9.38038C19.5178 10.1228 19.8215 11.0256 19.8215 11.9994C19.8215 12.9732 19.5178 13.8761 19 14.6185" />
<path id="Icon_3" d="M2.47477 16.582C1.54676 15.292 1.00019 13.7092 1.00019 11.9987C1.00019 10.2882 1.54676 8.7054 2.47477 7.41536M5.09522 14.6177C4.57738 13.8753 4.27369 12.9724 4.27369 11.9986C4.27369 11.0248 4.57738 10.122 5.09522 9.37957" />
</g>
</svg>
