<svg width="121" height="86" viewBox="0 0 121 86" fill="none" xmlns="http://www.w3.org/2000/svg">
<g clip-path="url(#clip0_839_6817)">
<path opacity="0.92" d="M58.2309 19.7277L34.4716 32.3078C31.1761 34.0533 31.1761 38.773 34.4716 40.5165L58.2947 53.1315C59.6551 53.8513 61.2825 53.8513 62.641 53.1315L86.4486 40.5243C89.746 38.7768 89.7421 34.0513 86.4408 32.3117L62.5694 19.7257C61.2109 19.0097 59.5874 19.0117 58.2289 19.7296L58.2309 19.7277Z" fill="#4167f1"/>
<path d="M26.5119 44.3638H26.51V61.6888C26.51 63.4091 27.4601 64.9901 28.9811 65.7951L53.4409 78.7448C56.5351 80.3839 60.2602 78.1411 60.2602 74.6405V48.6036L49.5455 54.2619C48.1871 54.9798 46.5616 54.9779 45.2031 54.2619L26.5119 44.3657M94.0085 44.3638H94.0104L99.1345 41.6488L104.309 38.9087C105.408 38.3282 105.406 36.753 104.307 36.1725L99.1287 33.4382L94.0104 30.7348H94.0085L66.7796 16.3183L60.3299 12.9028" stroke="#fff" stroke-linecap="round" stroke-linejoin="round"/>
<path d="M26.512 44.364H26.5101L21.3859 41.6491L16.2114 38.909C15.1123 38.3284 15.1123 36.7532 16.2134 36.1727L21.3898 33.4384L26.5101 30.7351H26.512L26.5101 30.7331L20.6641 22.9714L19.3192 21.1853C18.5142 20.1171 18.2472 18.8284 18.4484 17.6267C18.4736 17.4738 18.5065 17.3228 18.5471 17.1738M18.5471 17.1738C18.6071 16.9494 18.6845 16.7307 18.7793 16.5178M18.5471 17.1738C18.5742 17.0752 18.6032 16.9765 18.6381 16.8797C18.6555 16.8294 18.6729 16.781 18.6903 16.7326C18.7174 16.661 18.7484 16.5894 18.7793 16.5178M18.7793 16.5178C18.8026 16.4656 18.8258 16.4133 18.8509 16.3611M18.7793 16.5178C18.7987 16.4733 18.818 16.4308 18.8393 16.3863C18.8432 16.3785 18.8471 16.3688 18.8509 16.3611M18.8509 16.3611C18.8819 16.2972 18.9148 16.2314 18.9496 16.1695C18.9883 16.0999 19.027 16.0341 19.0677 15.9663C19.1083 15.8986 19.1509 15.8328 19.1934 15.769C19.2534 15.6819 19.3154 15.5987 19.3792 15.5155C19.4779 15.3916 19.5824 15.2716 19.6927 15.1575M19.6927 15.1575C19.7411 15.1052 19.7914 15.0568 19.8417 15.0104M19.6927 15.1575C19.7062 15.142 19.7217 15.1265 19.7372 15.113C19.7585 15.0917 19.7798 15.0684 19.803 15.0472C19.803 15.0452 19.8049 15.0452 19.8049 15.0452C19.8165 15.0336 19.8301 15.022 19.8417 15.0104M19.8417 15.0104C19.8785 14.9756 19.9152 14.9427 19.9539 14.9078M19.8417 15.0104C19.8785 14.9756 19.9152 14.9407 19.9539 14.9078M19.9539 14.9078C19.983 14.8807 20.0139 14.8556 20.0449 14.8304C20.0817 14.7995 20.1184 14.7685 20.1571 14.7395M20.1571 14.7395C20.1862 14.7163 20.2152 14.693 20.2442 14.6717M20.1571 14.7395C20.1765 14.724 20.1978 14.7066 20.2171 14.693C20.2229 14.6872 20.2307 14.6834 20.2365 14.6776C20.2384 14.6756 20.2423 14.6737 20.2442 14.6717M20.2442 14.6717C20.2771 14.6466 20.3119 14.6214 20.3468 14.5982M20.2442 14.6717L20.2616 14.6601C20.2887 14.6389 20.3177 14.6176 20.3468 14.5982M20.3468 14.5982C20.428 14.5402 20.5093 14.486 20.5945 14.4337M20.3468 14.5982C20.37 14.5808 20.3932 14.5653 20.4164 14.5498C20.4242 14.544 20.4338 14.5382 20.4416 14.5324C20.4609 14.5189 20.4803 14.5073 20.4996 14.4937C20.5306 14.4724 20.5616 14.4531 20.5945 14.4337M20.5945 14.4337C20.637 14.4086 20.6777 14.3834 20.7202 14.3602M20.5945 14.4337C20.5983 14.4318 20.6041 14.4279 20.608 14.426C20.6448 14.4028 20.6835 14.3815 20.7202 14.3602M20.7202 14.3602C20.7686 14.3331 20.817 14.306 20.8673 14.2789L46.2869 0.920883C48.3013 -0.139556 50.7879 0.41969 52.158 2.23676L60.1906 12.9031M60.1906 12.9031H60.1887L31.1543 28.2755M60.1906 12.9031L60.2603 12.8644L60.3299 12.9031M62.6114 9.87269L68.3626 2.23676C69.7326 0.41969 72.2173 -0.139556 74.2337 0.920883L99.6513 14.2789C102.186 15.6122 102.924 18.898 101.201 21.1853L94.0105 30.7331M94.0105 30.7331H94.0085M94.0105 30.7331L99.1288 33.4384L104.307 36.1727C105.406 36.7532 105.408 38.3284 104.309 38.909L99.1346 41.6491L94.0105 44.3621H94.0085L75.3154 54.2602C73.9589 54.9781 72.3334 54.98 70.975 54.2602L60.2603 48.6019V74.6388C60.2603 78.1394 63.9853 80.3822 67.0776 78.7431L91.5393 65.7934C93.0584 64.9884 94.0105 63.4074 94.0105 61.6871V49.0063" stroke="#fff" stroke-linecap="round" stroke-linejoin="round"/>
<path d="M31.1543 28.2753L60.1886 12.9028L60.2602 12.9957L60.3299 12.9028L94.0085 30.7329L90.9452 32.3545L60.2602 48.6017L34.5349 34.9805L26.5158 30.7348L26.512 30.7329" stroke="#fff" stroke-linecap="round" stroke-linejoin="round"/>
<path d="M60.3299 12.903L60.2602 12.8643L60.1886 12.903L60.2602 12.9958L60.3299 12.903Z" stroke="#fff" stroke-linecap="round" stroke-linejoin="round"/>
<path d="M21.3859 41.6488L45.2032 54.2599C46.5616 54.9798 48.1871 54.9798 49.5455 54.2619L60.2583 48.6036L26.512 30.7329L21.3917 33.4382" stroke="#fff" stroke-linecap="round" stroke-linejoin="round"/>
<path d="M87.7801 61.8733L79.9778 66.0686C78.9464 66.624 77.6963 65.877 77.6963 64.7044V59.7834C77.6963 59.2145 78.0098 58.69 78.511 58.4191L86.3133 54.2238C87.3447 53.6684 88.5948 54.4154 88.5948 55.5881V60.509C88.5948 61.078 88.2813 61.6024 87.7801 61.8733Z" fill="#90A6F4"/>
<path d="M89.7803 62.8733L81.9779 67.0686C80.9465 67.624 79.6964 66.877 79.6964 65.7044V60.7834C79.6964 60.2145 80.0099 59.69 80.5111 59.4191L88.3134 55.2238C89.3449 54.6684 90.5949 55.4154 90.5949 56.5881V61.509C90.5949 62.078 90.2814 62.6024 89.7803 62.8733Z" stroke="#fff" stroke-linecap="round" stroke-linejoin="round" stroke-dasharray="2.57 3.43 2.57 3.43"/>
</g>
<path d="M3.13196 11.9391L5.85938 14.6665" stroke="#fff" stroke-linecap="round" stroke-linejoin="round"/>
<path d="M3.13196 19.8187L5.85938 17.0913" stroke="#fff" stroke-linecap="round" stroke-linejoin="round"/>
<path d="M11.0111 19.8184L8.2837 17.0909" stroke="#fff" stroke-linecap="round" stroke-linejoin="round"/>
<path d="M11.0111 11.9395L8.2837 14.6669" stroke="#fff" stroke-linecap="round" stroke-linejoin="round"/>
<path d="M119.713 68.8184L116.985 66.0909" stroke="#fff" stroke-linecap="round" stroke-linejoin="round"/>
<path d="M119.713 60.9395L116.985 63.6669" stroke="#fff" stroke-linecap="round" stroke-linejoin="round"/>
<path d="M111.834 60.9391L114.561 63.6665" stroke="#fff" stroke-linecap="round" stroke-linejoin="round"/>
<path d="M111.834 68.8187L114.561 66.0913" stroke="#fff" stroke-linecap="round" stroke-linejoin="round"/>
<path d="M113.97 35.9698L115.333 37.3335" stroke="#fff" stroke-linecap="round" stroke-linejoin="round"/>
<path d="M113.97 39.9096L115.334 38.5459" stroke="#fff" stroke-linecap="round" stroke-linejoin="round"/>
<path d="M117.909 39.9097L116.546 38.546" stroke="#fff" stroke-linecap="round" stroke-linejoin="round"/>
<path d="M117.909 35.9702L116.546 37.3339" stroke="#fff" stroke-linecap="round" stroke-linejoin="round"/>
<defs>
<clipPath id="clip0_839_6817">
<rect width="90.5185" height="86" fill="white" transform="translate(15)"/>
</clipPath>
</defs>
</svg>
