<svg width="160" height="115" viewBox="0 0 160 115" fill="none" xmlns="http://www.w3.org/2000/svg">
<g id="not_found">
<g id="Group 303">
<path id="Vector" d="M70.5536 63.8485H24.9821C20.8005 63.8485 17.4107 67.2383 17.4107 71.4199C17.4107 75.6015 20.8005 78.9913 24.9821 78.9913H70.5536C74.7351 78.9913 78.125 75.6015 78.125 71.4199C78.125 67.2383 74.7351 63.8485 70.5536 63.8485Z" fill="#90A6F4"/>
<path id="Vector_2" d="M24.9116 28.7399C29.0616 28.7399 32.4258 25.3527 32.4258 21.1742C32.4258 16.9958 29.0616 13.6085 24.9116 13.6085C20.7615 13.6085 17.3973 16.9958 17.3973 21.1742C17.3973 25.3527 20.7615 28.7399 24.9116 28.7399Z" fill="#90A6F4"/>
<path id="Vector_3" d="M61.2712 38.4487H25.1541C20.9725 38.4487 17.5826 41.8385 17.5826 46.0201C17.5826 50.2017 20.9725 53.5915 25.1541 53.5915H61.2712C65.4528 53.5915 68.8426 50.2017 68.8426 46.0201C68.8426 41.8385 65.4528 38.4487 61.2712 38.4487Z" fill="#214CE8"/>
<path id="Vector_4" d="M90.6745 26.1401H46.9431" stroke="black" stroke-linecap="round" stroke-linejoin="round"/>
<path id="Vector_5" d="M37.8226 11.1914H100.9C102.963 11.1914 104.831 12.0285 106.185 13.38" stroke="black" stroke-linecap="round" stroke-linejoin="round"/>
<path id="Vector_6" d="M22.2542 26.0829C26.4042 26.0829 29.7685 22.6956 29.7685 18.5172C29.7685 14.3387 26.4042 10.9514 22.2542 10.9514C18.1042 10.9514 14.7399 14.3387 14.7399 18.5172C14.7399 22.6956 18.1042 26.0829 22.2542 26.0829Z" stroke="black" stroke-linecap="round" stroke-linejoin="round"/>
<path id="Vector_7" d="M46.9431 51.0229H68.9917H75.5603H80.566" stroke="black" stroke-linecap="round" stroke-linejoin="round"/>
<path id="Vector_8" d="M83.9341 36.0742H37.8226" stroke="black" stroke-linecap="round" stroke-linejoin="round"/>
<path id="Vector_9" d="M22.2542 50.9657C26.4042 50.9657 29.7685 47.5784 29.7685 43.4C29.7685 39.2215 26.4042 35.8343 22.2542 35.8343C18.1042 35.8343 14.7399 39.2215 14.7399 43.4C14.7399 47.5784 18.1042 50.9657 22.2542 50.9657Z" stroke="black" stroke-linecap="round" stroke-linejoin="round"/>
<path id="Vector_10" d="M50.683 75.9057H99.7173" stroke="black" stroke-linecap="round" stroke-linejoin="round"/>
<path id="Vector_11" d="M59.0626 60.957H81.6826H59.0626ZM59.0626 60.957H37.8226" stroke="black" stroke-linecap="round" stroke-linejoin="round"/>
<path id="Vector_12" d="M22.2542 75.8457C26.4042 75.8457 29.7685 72.4584 29.7685 68.28C29.7685 64.1016 26.4042 60.7143 22.2542 60.7143C18.1042 60.7143 14.7399 64.1016 14.7399 68.28C14.7399 72.4584 18.1042 75.8457 22.2542 75.8457Z" stroke="black" stroke-linecap="round" stroke-linejoin="round"/>
<path id="Vector_13" d="M37.8226 100.786H95.9798C98.0426 100.786 99.9112 99.9485 101.265 98.5971C102.617 97.2456 103.454 95.3771 103.454 93.3114C103.454 90.6085 102.02 88.2399 99.8683 86.9285C98.7369 86.2342 97.4055 85.8371 95.9798 85.8371H51.0769" stroke="black" stroke-linecap="round" stroke-linejoin="round"/>
<path id="Vector_14" d="M22.2542 100.729C26.4042 100.729 29.7685 97.3412 29.7685 93.1628C29.7685 88.9844 26.4042 85.5971 22.2542 85.5971C18.1042 85.5971 14.7399 88.9844 14.7399 93.1628C14.7399 97.3412 18.1042 100.729 22.2542 100.729Z" stroke="black" stroke-linecap="round" stroke-linejoin="round"/>
<g id="Group">
<path id="Vector_15" d="M111.683 6.85724L10.8571 107.706" stroke="white" stroke-width="6.85714" stroke-linecap="round" stroke-linejoin="round"/>
<path id="Vector_16" d="M108.857 4.03152L8.03125 104.88" stroke="black" stroke-linecap="round" stroke-linejoin="round"/>
</g>
<path id="Vector_17" d="M116.206 88.5913C133.311 88.5913 147.177 74.7249 147.177 57.6199C147.177 40.5148 133.311 26.6484 116.206 26.6484C99.1008 26.6484 85.2344 40.5148 85.2344 57.6199C85.2344 74.7249 99.1008 88.5913 116.206 88.5913Z" fill="#214CE8"/>
<path id="Vector_18" d="M111.634 84.0199C128.739 84.0199 142.606 70.1535 142.606 53.0484C142.606 35.9434 128.739 22.077 111.634 22.077C94.5293 22.077 80.663 35.9434 80.663 53.0484C80.663 70.1535 94.5293 84.0199 111.634 84.0199Z" stroke="black" stroke-linecap="round" stroke-linejoin="round"/>
<path id="Vector_19" d="M138.346 75.225C137.167 74.0456 135.255 74.0456 134.075 75.225C132.896 76.4044 132.896 78.3166 134.075 79.4959L147.943 93.3633C149.122 94.5427 151.034 94.5427 152.213 93.3633C153.393 92.1839 153.393 90.2718 152.213 89.0924L138.346 75.225Z" fill="black"/>
<path id="Vector_20" d="M112.711 72.3199C121.264 72.3199 128.197 65.3867 128.197 56.8342C128.197 48.2817 121.264 41.3485 112.711 41.3485C104.159 41.3485 97.2255 48.2817 97.2255 56.8342C97.2255 65.3867 104.159 72.3199 112.711 72.3199Z" fill="white"/>
<path id="Vector_21" d="M115.212 37.4376L115.212 37.4375C115.264 37.1787 115.095 36.9272 114.836 36.8759L114.892 36.5958L114.836 36.8759C113.826 36.6761 112.782 36.5714 111.714 36.5714C110.646 36.5714 109.602 36.6761 108.592 36.8759L115.212 37.4376ZM115.212 37.4376C115.161 37.6967 114.91 37.865 114.651 37.8137L114.651 37.8137M115.212 37.4376L114.651 37.8137M114.651 37.8137C113.701 37.626 112.719 37.5272 111.714 37.5272C110.709 37.5272 109.727 37.626 108.778 37.8137L108.777 37.8137M114.651 37.8137L108.777 37.8137M108.777 37.8137C108.519 37.865 108.267 37.6969 108.216 37.4375L108.777 37.8137ZM103.356 40.0609L103.356 40.0609C103.575 39.9144 103.634 39.6176 103.487 39.3981L103.356 40.0609ZM103.356 40.0609C101.715 41.1597 100.302 42.5724 99.2036 44.2129L99.2035 44.2131M103.356 40.0609L99.2035 44.2131M99.2035 44.2131C99.0569 44.4323 98.7601 44.4912 98.5406 44.3444C98.3212 44.1973 98.2626 43.9006 98.4095 43.6813L98.4096 43.6812M99.2035 44.2131L98.4096 43.6812M98.4096 43.6812C99.5774 41.9367 101.079 40.4349 102.824 39.2666M98.4096 43.6812L102.824 39.2666M127.41 49.4494L127.41 49.4493C127.359 49.1905 127.107 49.0221 126.848 49.0732L127.41 49.4494ZM127.41 49.4494C127.61 50.4596 127.714 51.5037 127.714 52.5713C127.714 53.6394 127.61 54.6835 127.41 55.6936L127.41 55.6937M127.41 49.4494L127.41 55.6937M127.41 55.6937C127.359 55.9526 127.107 56.121 126.848 56.0698M127.41 55.6937L126.848 56.0698M96.636 48.7929L96.5804 49.0732C96.8394 49.1246 97.0077 49.3762 96.9564 49.6347L96.9563 49.6349C96.7687 50.5844 96.6703 51.5663 96.6703 52.5713C96.6703 53.5767 96.7687 54.5587 96.9563 55.5081L96.9564 55.5084C97.0077 55.7668 96.8394 56.0184 96.5803 56.0698L96.636 56.3501M96.636 48.7929L96.5806 49.0732C96.3214 49.0221 96.0701 49.1903 96.0186 49.4493C95.819 50.4595 95.7143 51.5037 95.7143 52.5713C95.7143 53.6393 95.819 54.6833 96.0185 55.6935C96.0699 55.9526 96.3214 56.121 96.5806 56.0698L96.636 56.3501M96.636 48.7929C97.0495 48.875 97.3187 49.2767 97.2366 49.6903M96.636 48.7929L97.2366 49.6903M96.636 56.3501C97.0495 56.268 97.3187 55.8663 97.2366 55.4528M96.636 56.3501C96.2221 56.4318 95.8204 56.163 95.7383 55.7491C95.5351 54.7208 95.4286 53.6581 95.4286 52.5713L97.2366 55.4528M97.2366 55.4528C97.0526 54.5214 96.956 53.558 96.956 52.5713C96.956 51.585 97.0526 50.6216 97.2366 49.6903M97.2366 55.4528V49.6903M102.824 39.2666C103.043 39.1199 103.34 39.1785 103.487 39.3979L102.824 39.2666ZM126.848 56.0698C126.589 56.0183 126.421 55.7668 126.472 55.5081M126.848 56.0698L126.472 55.5081M126.472 55.5081C126.66 54.5587 126.758 53.5768 126.758 52.5713M126.472 55.5081L126.758 52.5713M126.758 52.5713C126.758 51.5662 126.66 50.5843 126.472 49.6349M126.758 52.5713L126.472 49.6349M126.472 49.6349C126.421 49.3762 126.589 49.1247 126.848 49.0732L126.472 49.6349ZM119.941 39.3981L119.942 39.3979C120.088 39.1787 120.385 39.1198 120.604 39.2665C122.349 40.4348 123.851 41.9367 125.019 43.6812C125.166 43.9006 125.107 44.1974 124.887 44.3445C124.668 44.4911 124.371 44.4324 124.225 44.2131L124.225 44.213C123.126 42.5724 121.714 41.1597 120.073 40.0609L120.073 40.0609C119.853 39.9142 119.794 39.6175 119.941 39.3981ZM99.2035 60.93L99.2036 60.9301C100.302 62.5706 101.715 63.9834 103.356 65.0821C103.575 65.2287 103.634 65.5256 103.487 65.7451C103.34 65.9645 103.043 66.0232 102.824 65.8765C101.079 64.7082 99.5774 63.2063 98.4096 61.4618L98.4095 61.4617C98.2626 61.2425 98.3212 60.9457 98.5406 60.7986C98.7601 60.6518 99.0569 60.7107 99.2035 60.93ZM120.073 65.0822L120.073 65.0821C121.714 63.9834 123.126 62.5706 124.225 60.9301L124.225 60.93C124.371 60.7106 124.668 60.6519 124.887 60.7985C125.107 60.9456 125.166 61.2424 125.019 61.4618C123.851 63.2063 122.349 64.7082 120.604 65.8765C120.385 66.0232 120.088 65.9643 119.942 65.7451L119.941 65.7449C119.794 65.5255 119.853 65.2288 120.073 65.0822ZM108.777 67.3293L108.778 67.3294C109.727 67.517 110.709 67.6155 111.714 67.6155C112.719 67.6155 113.701 67.517 114.651 67.3294L114.651 67.3293C114.91 67.278 115.161 67.4464 115.212 67.7055L115.212 67.7055C115.264 67.9643 115.095 68.2158 114.836 68.2672C113.826 68.4667 112.782 68.5714 111.714 68.5714C110.646 68.5714 109.602 68.4668 108.592 68.2672C108.333 68.2158 108.165 67.9643 108.216 67.7057C108.267 67.4462 108.519 67.278 108.777 67.3293ZM108.216 37.4373C108.165 37.1787 108.333 36.9272 108.592 36.8759L108.216 37.4373Z" fill="black" stroke="black" stroke-width="0.571429"/>
</g>
</g>
</svg>
