<svg width="120" height="86" viewBox="0 0 120 86" fill="none" xmlns="http://www.w3.org/2000/svg">
<g id="push_notification">
<g id="Group 342">
<path id="Vector" d="M101.893 4.91626H33.3214C30.6586 4.91626 28.5 7.06949 28.5 9.72563C28.5 12.3818 30.6586 14.535 33.3214 14.535H101.893C104.556 14.535 106.714 12.3818 106.714 9.72563C106.714 7.06949 104.556 4.91626 101.893 4.91626Z" fill="#90A6F4"/>
<path id="Vector_2" d="M5.78577 80.3701V18.81C5.78577 13.1435 10.3908 8.55005 16.0715 8.55005H88.9286C94.6093 8.55005 99.2143 13.1435 99.2143 18.81V28.5357" stroke="#161616" stroke-linecap="round" stroke-linejoin="round"/>
<path id="Vector_3" d="M99.2144 80.7976L99.2144 62.0945" stroke="#161616" stroke-linecap="round" stroke-linejoin="round"/>
<path id="Vector_4" d="M81.257 18.1687H29.3291C26.1727 18.1687 23.6141 15.6166 23.6141 12.468" stroke="#161616" stroke-linecap="round" stroke-linejoin="round" stroke-dasharray="2.57 3.43 2.57 3.43"/>
<path id="Vector_5" d="M52.5 14.535C53.0918 14.535 53.5714 14.0565 53.5714 13.4662C53.5714 12.876 53.0918 12.3975 52.5 12.3975C51.9083 12.3975 51.4286 12.876 51.4286 13.4662C51.4286 14.0565 51.9083 14.535 52.5 14.535Z" stroke="#161616" stroke-linecap="round" stroke-linejoin="round"/>
<path id="Vector_6" d="M105.066 45.6228H51.8401C49.8163 45.6228 48.1758 47.2588 48.1758 49.2769C48.1758 51.2949 49.8163 52.9309 51.8401 52.9309H105.066C107.09 52.9309 108.731 51.2949 108.731 49.2769C108.731 47.2588 107.09 45.6228 105.066 45.6228Z" fill="#90A6F4"/>
<path id="Vector_7" d="M21.8997 32.2571H107.263C111.049 32.2571 114.12 35.3201 114.12 39.0971V55.1283C114.12 58.9053 111.049 61.9683 107.263 61.9683H17.6911C13.9047 61.9683 10.834 58.9053 10.834 55.1283V39.0971C10.834 38.2421 10.9904 37.4256 11.2776 36.671" stroke="#161616" stroke-linecap="round" stroke-linejoin="round"/>
<g id="_05">
<path id="Vector_8" d="M36.6498 60.7946L31.5027 64.578C30.562 65.2705 29.2762 65.2705 28.3355 64.578L23.1884 60.7946C21.2727 59.386 20.1412 57.1544 20.1412 54.7797V43.3847C20.1412 42.6387 20.6255 41.9782 21.3412 41.7538L25.717 40.3751C28.4534 39.5137 31.387 39.5137 34.1234 40.3751L38.4991 41.7538C39.2127 41.9782 39.6991 42.6387 39.6991 43.3847V54.7797C39.6991 57.1544 38.5677 59.386 36.652 60.7946H36.6498Z" fill="#214CE8"/>
<path id="Vector_9" d="M32.7067 49.1967C32.7067 47.6663 31.466 46.4244 29.9339 46.418C28.391 46.4116 27.1332 47.6599 27.1332 49.1967C27.1332 50.2185 27.686 51.1119 28.511 51.595C28.6439 51.672 28.7125 51.8259 28.676 51.9734L27.9946 54.8355C27.9432 55.0514 28.1082 55.2608 28.331 55.2608H31.5089C31.7318 55.2608 31.8967 55.0535 31.8453 54.8355L31.1639 51.9734C31.1275 51.8237 31.196 51.672 31.3289 51.595C32.1517 51.1119 32.7046 50.2206 32.7046 49.1989L32.7067 49.1967Z" fill="#214CE8"/>
</g>
<path id="Vector_10" d="M31.1551 49.1881C31.1551 47.4888 29.7772 46.108 28.0758 46.0994C26.3615 46.0909 24.9644 47.4781 24.9644 49.1881C24.9644 50.3231 25.5794 51.3149 26.4944 51.8514C26.6422 51.9369 26.7172 52.1079 26.6786 52.2725L25.9222 55.4531C25.8644 55.6946 26.0486 55.9255 26.2951 55.9255H29.8265C30.0751 55.9255 30.2572 55.6946 30.1994 55.4531L29.4429 52.2725C29.4044 52.1079 29.4794 51.9369 29.6272 51.8514C30.5422 51.3149 31.1572 50.3231 31.1572 49.1881H31.1551Z" fill="white"/>
<g id="_05-2">
<path id="Vector_11" d="M34.1211 59.5358L28.974 63.3192C28.0333 64.0117 26.7475 64.0117 25.8068 63.3192L20.6597 59.5358C18.744 58.1272 17.6125 55.8956 17.6125 53.5209V42.1259C17.6125 41.3799 18.0968 40.7194 18.8125 40.495L23.1883 39.1163C25.9247 38.2549 28.8583 38.2549 31.5947 39.1163L35.9704 40.495C36.684 40.7194 37.1704 41.3799 37.1704 42.1259V53.5209C37.1704 55.8956 36.039 58.1272 34.1233 59.5358H34.1211Z" stroke="#161616" stroke-linecap="round" stroke-linejoin="round"/>
<path id="Vector_12" d="M30.1822 47.9377C30.1822 46.4073 28.9415 45.1654 27.4094 45.159C25.8665 45.1525 24.6086 46.4008 24.6086 47.9377C24.6086 48.9594 25.1615 49.8529 25.9865 50.336C26.1194 50.4129 26.1879 50.5668 26.1515 50.7143L25.4701 53.5764C25.4186 53.7923 25.5836 54.0018 25.8065 54.0018H28.9844C29.2072 54.0018 29.3722 53.7945 29.3208 53.5764L28.6394 50.7143C28.6029 50.5647 28.6715 50.4129 28.8044 50.336C29.6272 49.8529 30.1801 48.9616 30.1801 47.9398L30.1822 47.9377Z" stroke="#161616" stroke-linecap="round" stroke-linejoin="round"/>
</g>
<path id="Vector_13" d="M108.302 42.2026H48.4116C47.4002 42.2026 46.4852 42.6109 45.8209 43.2735C45.1587 43.934 44.7473 44.8489 44.7473 45.8578C44.7473 47.1787 45.4502 48.3373 46.5045 48.9785C47.0595 49.3184 47.713 49.5129 48.4095 49.5129H70.6223H70.3716" stroke="#161616" stroke-linecap="round" stroke-linejoin="round"/>
</g>
</g>
</svg>
