<svg viewBox="0 0 15 15" fill="none" xmlns="http://www.w3.org/2000/svg">
<path d="M4.0625 4.0625H4.06875M10.9375 4.0625H10.9438M4.0625 10.9375H4.06875M8.125 8.125H8.13125M10.9375 10.9375H10.9438M10.625 13.125H13.125V10.625M8.75 10.3125V13.125M13.125 8.75H10.3125M9.75 6.25H12.125C12.475 6.25 12.65 6.25 12.7837 6.18188C12.9013 6.12196 12.997 6.02635 13.0569 5.90874C13.125 5.77505 13.125 5.60003 13.125 5.25V2.875C13.125 2.52497 13.125 2.34995 13.0569 2.21626C12.997 2.09865 12.9013 2.00304 12.7837 1.94312C12.65 1.875 12.475 1.875 12.125 1.875H9.75C9.39997 1.875 9.22495 1.875 9.09126 1.94312C8.97365 2.00304 8.87804 2.09865 8.81812 2.21626C8.75 2.34995 8.75 2.52497 8.75 2.875V5.25C8.75 5.60003 8.75 5.77505 8.81812 5.90874C8.87804 6.02635 8.97365 6.12196 9.09126 6.18188C9.22495 6.25 9.39997 6.25 9.75 6.25ZM2.875 6.25H5.25C5.60003 6.25 5.77505 6.25 5.90874 6.18188C6.02635 6.12196 6.12196 6.02635 6.18188 5.90874C6.25 5.77505 6.25 5.60003 6.25 5.25V2.875C6.25 2.52497 6.25 2.34995 6.18188 2.21626C6.12196 2.09865 6.02635 2.00304 5.90874 1.94312C5.77505 1.875 5.60003 1.875 5.25 1.875H2.875C2.52497 1.875 2.34995 1.875 2.21626 1.94312C2.09865 2.00304 2.00304 2.09865 1.94312 2.21626C1.875 2.34995 1.875 2.52497 1.875 2.875V5.25C1.875 5.60003 1.875 5.77505 1.94312 5.90874C2.00304 6.02635 2.09865 6.12196 2.21626 6.18188C2.34995 6.25 2.52497 6.25 2.875 6.25ZM2.875 13.125H5.25C5.60003 13.125 5.77505 13.125 5.90874 13.0569C6.02635 12.997 6.12196 12.9013 6.18188 12.7837C6.25 12.65 6.25 12.475 6.25 12.125V9.75C6.25 9.39997 6.25 9.22495 6.18188 9.09126C6.12196 8.97365 6.02635 8.87804 5.90874 8.81812C5.77505 8.75 5.60003 8.75 5.25 8.75H2.875C2.52497 8.75 2.34995 8.75 2.21626 8.81812C2.09865 8.87804 2.00304 8.97365 1.94312 9.09126C1.875 9.22495 1.875 9.39997 1.875 9.75V12.125C1.875 12.475 1.875 12.65 1.94312 12.7837C2.00304 12.9013 2.09865 12.997 2.21626 13.0569C2.34995 13.125 2.52497 13.125 2.875 13.125Z" />
</svg>
