<svg viewBox="0 0 23 20" fill="none" xmlns="http://www.w3.org/2000/svg">
<g id="icon">
<g id="icon_2">
<mask id="mask0_2805_32454" style="mask-type:alpha" maskUnits="userSpaceOnUse" x="-2" y="-3" width="26" height="26">
<rect id="Bounding box" x="-1.25" y="-2.5" width="25" height="25" />
</mask>
<g mask="url(#mask0_2805_32454)">
<path id="key" d="M6.04166 11.6823C5.57893 11.6823 5.1828 11.5175 4.85327 11.188C4.52376 10.8585 4.359 10.4624 4.359 9.99965C4.359 9.53692 4.52376 9.1408 4.85327 8.81126C5.1828 8.48175 5.57893 8.31699 6.04166 8.31699C6.50438 8.31699 6.90051 8.48175 7.23004 8.81126C7.55956 9.1408 7.72431 9.53692 7.72431 9.99965C7.72431 10.4624 7.55956 10.8585 7.23004 11.188C6.90051 11.5175 6.50438 11.6823 6.04166 11.6823ZM6.04166 15.7288C4.45023 15.7288 3.09752 15.172 1.98353 14.0585C0.86952 12.9449 0.312515 11.5928 0.312515 10.002C0.312515 8.41124 0.86952 7.05829 1.98353 5.94319C3.09752 4.82807 4.45023 4.27051 6.04166 4.27051C7.1581 4.27051 8.16771 4.55864 9.07049 5.13491C9.97326 5.71116 10.6624 6.46469 11.1378 7.39551H20.1222C20.2448 7.39551 20.3636 7.41822 20.4786 7.46363C20.5936 7.50903 20.6998 7.58048 20.7973 7.67798L22.4599 9.34061C22.5574 9.4381 22.6261 9.54137 22.6662 9.65043C22.7063 9.75949 22.7263 9.87634 22.7263 10.001C22.7263 10.1256 22.7063 10.242 22.6662 10.3502C22.6261 10.4584 22.5574 10.5612 22.4599 10.6587L19.7035 13.405C19.6255 13.4858 19.5319 13.5504 19.4226 13.5988C19.3134 13.6473 19.2047 13.6768 19.0966 13.6875C18.9884 13.6982 18.8802 13.6878 18.772 13.6564C18.6639 13.6251 18.561 13.5727 18.4635 13.4992L17.1795 12.5337L15.7252 13.6134C15.645 13.6762 15.5596 13.7216 15.4688 13.7496C15.378 13.7777 15.2838 13.7917 15.1863 13.7917C15.0888 13.7917 14.992 13.776 14.8958 13.7446C14.7997 13.7132 14.7116 13.6695 14.6314 13.6134L13.1631 12.6038H11.1378C10.6624 13.5279 9.97326 14.2798 9.07049 14.8594C8.16771 15.439 7.1581 15.7288 6.04166 15.7288ZM6.04166 14.1663C7.0406 14.1663 7.90565 13.8645 8.63681 13.2609C9.36798 12.6572 9.84507 11.9174 10.0681 11.0413H13.6539L15.1543 12.079C15.1476 12.079 15.1459 12.0816 15.1493 12.087C15.1526 12.0923 15.1543 12.0896 15.1543 12.079L17.1895 10.5906L18.9583 11.9427L20.9015 9.99965L19.8598 8.95798H10.0681C9.84507 8.08192 9.36798 7.34207 8.63681 6.73842C7.90565 6.1348 7.0406 5.83298 6.04166 5.83298C4.89582 5.83298 3.91492 6.24097 3.09895 7.05694C2.28298 7.87291 1.87499 8.85382 1.87499 9.99965C1.87499 11.1455 2.28298 12.1264 3.09895 12.9424C3.91492 13.7583 4.89582 14.1663 6.04166 14.1663Z" />
</g>
</g>
</g>
</svg>
