<svg viewBox="0 0 24 24" fill="none" xmlns="http://www.w3.org/2000/svg">
<g id="fetch">
<g id="icon">
<path id="Vector" d="M15.5139 4H8.37925C7.81634 4 7.36002 4.54434 7.36002 5.21582V18.5898C7.36002 19.2612 7.81634 19.8056 8.37925 19.8056H15.5139C16.0768 19.8056 16.5331 19.2612 16.5331 18.5898V5.21582C16.5331 4.54434 16.0768 4 15.5139 4Z" />
<path id="Vector_2" d="M11.4967 6.53516H12.4967" />
<path id="Ellipse 72" d="M19.7147 10.2402C20.3489 11.1598 20.3489 12.6507 19.7147 13.5702" />
<path id="Ellipse 73" d="M21.7147 8.73633C22.9203 10.4843 22.9203 13.3183 21.7147 15.0663" />
<path id="Ellipse 70" d="M4.6189 10.2402C3.98468 11.1598 3.98468 12.6507 4.6189 13.5702" />
<path id="Ellipse 71" d="M2.61885 8.73633C1.41326 10.4843 1.41326 13.3183 2.61885 15.0663" />
</g>
</g>
</svg>
