<svg viewBox="0 0 18 18" fill="none" xmlns="http://www.w3.org/2000/svg">
<g id="icon">
<g id="icon_2">
<path id="Vector" d="M8.99997 10.1429C10.5779 10.1429 11.8571 8.86369 11.8571 7.28573C11.8571 5.70778 10.5779 4.42859 8.99997 4.42859C7.42201 4.42859 6.14282 5.70778 6.14282 7.28573C6.14282 8.86369 7.42201 10.1429 8.99997 10.1429Z" />
<path id="Vector_2" d="M4.11993 14.6C4.62992 13.7629 5.34669 13.071 6.20132 12.591C7.05595 12.1108 8.01969 11.8587 8.99993 11.8587C9.98017 11.8587 10.9439 12.1108 11.7986 12.591C12.6532 13.071 13.3699 13.7629 13.88 14.6" />
<path id="Vector_3" d="M8.99998 16.4286C13.1027 16.4286 16.4286 13.1028 16.4286 9.00001C16.4286 4.89733 13.1027 1.57144 8.99998 1.57144C4.8973 1.57144 1.57141 4.89733 1.57141 9.00001C1.57141 13.1028 4.8973 16.4286 8.99998 16.4286Z" />
</g>
</g>
</svg>
