<svg viewBox="0 0 16 16" fill="none" xmlns="http://www.w3.org/2000/svg">
<g id="icon">
<g id="horizontal-menu-circle--navigation-dots-three-circle-button-horizontal-menu">
<g id="Group 2634">
<g id="Group 2606">
<path id="Ellipse 1111" d="M2.61538 8.23077C2.27552 8.23077 2 7.95525 2 7.61538C2 7.27552 2.27552 7 2.61538 7" />
<path id="Ellipse 1112" d="M2.61539 8.23077C2.95525 8.23077 3.23077 7.95525 3.23077 7.61538C3.23077 7.27552 2.95525 7 2.61539 7" />
</g>
<g id="Group 2632">
<path id="Ellipse 1111_2" d="M8.00001 8.23077C7.66015 8.23077 7.38463 7.95525 7.38463 7.61538C7.38463 7.27552 7.66015 7 8.00001 7" />
<path id="Ellipse 1112_2" d="M8.00002 8.23077C8.33988 8.23077 8.6154 7.95525 8.6154 7.61538C8.6154 7.27552 8.33988 7 8.00002 7" />
</g>
<g id="Group 2633">
<path id="Ellipse 1111_3" d="M13.3846 8.23077C13.0447 8.23077 12.7692 7.95525 12.7692 7.61538C12.7692 7.27552 13.0447 7 13.3846 7" />
<path id="Ellipse 1112_3" d="M13.3846 8.23077C13.7246 8.23077 14 7.95525 14 7.61538C14 7.27552 13.7246 7 13.3846 7" />
</g>
</g>
</g>
</g>
</svg>
