<svg viewBox="0 0 20 20" fill="none" xmlns="http://www.w3.org/2000/svg">
<g id="settings-02">
<g id="Icon">
<path d="M7.82936 16.1426L8.3164 17.238C8.46118 17.564 8.69747 17.8411 8.99659 18.0355C9.29571 18.23 9.64483 18.3334 10.0016 18.3334C10.3583 18.3334 10.7075 18.23 11.0066 18.0355C11.3057 17.8411 11.542 17.564 11.6868 17.238L12.1738 16.1426C12.3472 15.7539 12.6388 15.4299 13.0071 15.2167C13.3778 15.0029 13.8066 14.9118 14.2321 14.9565L15.4238 15.0834C15.7785 15.1209 16.1365 15.0547 16.4544 14.8928C16.7722 14.7309 17.0363 14.4803 17.2145 14.1713C17.393 13.8625 17.4781 13.5086 17.4593 13.1524C17.4406 12.7963 17.3189 12.4532 17.109 12.1648L16.4034 11.1954C16.1522 10.8476 16.018 10.429 16.0201 10C16.02 9.57218 16.1555 9.15531 16.4071 8.80928L17.1127 7.83984C17.3226 7.55148 17.4443 7.20841 17.463 6.85225C17.4818 6.49608 17.3967 6.14214 17.2183 5.83335C17.04 5.52438 16.7759 5.27376 16.4581 5.11188C16.1402 4.94999 15.7822 4.8838 15.4275 4.92132L14.2358 5.04817C13.8103 5.09286 13.3815 5.00179 13.0108 4.78798C12.6418 4.57356 12.3501 4.24782 12.1775 3.85743L11.6868 2.76206C11.542 2.436 11.3057 2.15895 11.0066 1.96452C10.7075 1.77009 10.3583 1.66663 10.0016 1.66669C9.64483 1.66663 9.29571 1.77009 8.99659 1.96452C8.69747 2.15895 8.46118 2.436 8.3164 2.76206L7.82936 3.85743C7.6568 4.24782 7.36509 4.57356 6.99603 4.78798C6.62538 5.00179 6.19659 5.09286 5.77103 5.04817L4.57566 4.92132C4.22094 4.8838 3.86294 4.94999 3.54509 5.11188C3.22724 5.27376 2.96317 5.52438 2.78492 5.83335C2.60644 6.14214 2.52141 6.49608 2.54014 6.85225C2.55888 7.20841 2.68058 7.55148 2.89048 7.83984L3.59603 8.80928C3.84765 9.15531 3.98315 9.57218 3.98307 10C3.98315 10.4279 3.84765 10.8447 3.59603 11.1908L2.89048 12.1602C2.68058 12.4486 2.55888 12.7916 2.54014 13.1478C2.52141 13.504 2.60644 13.8579 2.78492 14.1667C2.96335 14.4755 3.22744 14.726 3.54525 14.8878C3.86306 15.0497 4.22096 15.116 4.57566 15.0787L5.76733 14.9519C6.19289 14.9072 6.62167 14.9983 6.99233 15.2121C7.36277 15.4259 7.65583 15.7517 7.82936 16.1426Z" />
<path d="M10.0001 12.5C11.3808 12.5 12.5001 11.3807 12.5001 10C12.5001 8.61931 11.3808 7.50002 10.0001 7.50002C8.61939 7.50002 7.5001 8.61931 7.5001 10C7.5001 11.3807 8.61939 12.5 10.0001 12.5Z" />
</g>
</g>
</svg>
