<svg viewBox="0 0 18 18" fill="none" xmlns="http://www.w3.org/2000/svg"><mask id="prefix__a" style="mask-type:alpha" maskUnits="userSpaceOnUse" x="-8" y="-8" width="34" height="34"><path transform="rotate(-48.56 -8 9.992)" fill="#D9D9D9" d="M-8 9.992h24v24H-8z"/></mask><g mask="url(#prefix__a)"><path d="M12.023 12.996l-2.647 2.998c-.916 1.038-2.061 1.599-3.438 1.684-1.376.086-2.582-.329-3.62-1.244C1.283 15.518.72 14.372.636 12.996c-.086-1.376.329-2.583 1.244-3.62l2.648-2.998 1.5 1.323L3.378 10.7a2.893 2.893 0 00-.75 2.172c.05.823.389 1.51 1.013 2.062a2.893 2.893 0 002.172.75 2.893 2.893 0 002.063-1.013l2.647-2.999 1.5 1.324zm-4.984-.399l-1.5-1.323 5.296-5.997L12.334 6.6l-5.295 5.998zm6.308-1.1l-1.5-1.324 2.648-2.999a2.893 2.893 0 00.75-2.172 2.893 2.893 0 00-1.013-2.062 2.893 2.893 0 00-2.172-.75c-.824.05-1.511.389-2.063 1.013L7.35 6.202l-1.5-1.324L8.499 1.88C9.413.843 10.559.28 11.936.196c1.376-.086 2.582.329 3.62 1.245 1.036.915 1.598 2.061 1.683 3.437.086 1.376-.33 2.583-1.245 3.62l-2.647 2.999z"/></g></svg>