<svg viewBox="0 0 19 19" fill="none" xmlns="http://www.w3.org/2000/svg">
<style>.spinner_ajPY{transform-origin:center;animation:spinner_AtaB 1s infinite linear}@keyframes spinner_AtaB{100%{transform:rotate(360deg)}}</style>
<g id="load">
<circle id="Ellipse 1117" cx="9.4989" cy="9.49536" r="6.25" stroke="#282A33" stroke-width="1.5"/>
<g id="Ellipse 1118">
<mask id="path-2-inside-1_3708_36649" fill="white">
<path d="M3.58366 7.91476C3.11688 7.78969 2.63125 8.06671 2.56535 8.54544C2.41002 9.67381 2.53185 10.8278 2.9263 11.9056C3.42141 13.2586 4.32193 14.4258 5.50496 15.2481C6.688 16.0703 8.09592 16.5075 9.53661 16.4999C10.9773 16.4924 12.3806 16.0405 13.5549 15.2059C14.7293 14.3713 15.6175 13.1947 16.0985 11.8367C16.5794 10.4786 16.6295 9.00522 16.2421 7.61759C15.8547 6.22995 15.0485 4.99566 13.9336 4.08315C13.0454 3.35615 11.9957 2.86161 10.879 2.63721C10.4053 2.54201 9.98394 2.90953 9.94854 3.39148C9.91315 3.87343 10.2784 4.28561 10.7478 4.40047C11.5054 4.58586 12.216 4.9387 12.8252 5.43737C13.6614 6.12175 14.266 7.04747 14.5566 8.0882C14.8471 9.12892 14.8095 10.234 14.4488 11.2525C14.0881 12.2711 13.422 13.1535 12.5412 13.7794C11.6604 14.4054 10.608 14.7443 9.52745 14.75C8.44693 14.7556 7.39099 14.4277 6.50371 13.8111C5.61644 13.1944 4.94105 12.319 4.56971 11.3042C4.29915 10.5649 4.19961 9.77782 4.27369 9.00135C4.31959 8.52029 4.05045 8.03984 3.58366 7.91476Z"/>
</mask>
<path d="M3.58366 7.91476C3.11688 7.78969 2.63125 8.06671 2.56535 8.54544C2.41002 9.67381 2.53185 10.8278 2.9263 11.9056C3.42141 13.2586 4.32193 14.4258 5.50496 15.2481C6.688 16.0703 8.09592 16.5075 9.53661 16.4999C10.9773 16.4924 12.3806 16.0405 13.5549 15.2059C14.7293 14.3713 15.6175 13.1947 16.0985 11.8367C16.5794 10.4786 16.6295 9.00522 16.2421 7.61759C15.8547 6.22995 15.0485 4.99566 13.9336 4.08315C13.0454 3.35615 11.9957 2.86161 10.879 2.63721C10.4053 2.54201 9.98394 2.90953 9.94854 3.39148C9.91315 3.87343 10.2784 4.28561 10.7478 4.40047C11.5054 4.58586 12.216 4.9387 12.8252 5.43737C13.6614 6.12175 14.266 7.04747 14.5566 8.0882C14.8471 9.12892 14.8095 10.234 14.4488 11.2525C14.0881 12.2711 13.422 13.1535 12.5412 13.7794C11.6604 14.4054 10.608 14.7443 9.52745 14.75C8.44693 14.7556 7.39099 14.4277 6.50371 13.8111C5.61644 13.1944 4.94105 12.319 4.56971 11.3042C4.29915 10.5649 4.19961 9.77782 4.27369 9.00135C4.31959 8.52029 4.05045 8.03984 3.58366 7.91476Z" stroke="#869DFE" stroke-width="3" mask="url(#path-2-inside-1_3708_36649)" class="spinner_ajPY" />
</g>
</g>
</svg>
