<svg viewBox="0 0 12 12" fill="none" xmlns="http://www.w3.org/2000/svg">
<g id="icon" clip-path="url(#clip0_867_3265)">
<path id="Vector" d="M11.7619 4.50141C11.7098 4.36805 11.6144 4.25259 11.4885 4.17062C11.3626 4.08866 11.2124 4.04414 11.058 4.04308H8.01778C7.96648 4.04306 7.91644 4.02853 7.87445 4.00147C7.83247 3.9744 7.80059 3.93612 7.78315 3.89183L6.69485 1.05016C6.63814 0.92145 6.54083 0.811231 6.41541 0.733649C6.28999 0.656067 6.14218 0.614662 5.99095 0.614746C5.83713 0.615422 5.68733 0.659861 5.56216 0.741943C5.43699 0.824025 5.34262 0.939714 5.29204 1.07308L4.19875 3.901C4.18131 3.94529 4.14943 3.98357 4.10744 4.01063C4.06546 4.0377 4.01541 4.05223 3.96411 4.05225H0.923865C0.76937 4.05264 0.618792 4.09691 0.492772 4.17896C0.366753 4.26102 0.271463 4.37685 0.219965 4.51058C0.170442 4.64278 0.165384 4.78559 0.205449 4.92046C0.245513 5.05534 0.328846 5.17602 0.444614 5.26683L3.03057 7.23766C3.06943 7.26678 3.09783 7.30596 3.11208 7.35011C3.12633 7.39425 3.12576 7.44132 3.11045 7.48516L2.02215 10.4781C1.97089 10.6167 1.96914 10.7666 2.01715 10.9062C2.06515 11.0457 2.16041 11.1676 2.28906 11.254C2.41771 11.3404 2.57304 11.3869 2.73244 11.3866C2.89185 11.3864 3.04701 11.3395 3.17535 11.2527L5.84118 9.456C5.88361 9.42662 5.93531 9.41074 5.98845 9.41074C6.04159 9.41074 6.09329 9.42662 6.13572 9.456L8.80655 11.2527C8.9339 11.3499 9.09279 11.4057 9.25835 11.4112C9.42391 11.4167 9.58678 11.3717 9.72148 11.2831C9.85617 11.1946 9.95508 11.0675 10.0027 10.9218C10.0503 10.7762 10.044 10.6201 9.98471 10.4781L8.89641 7.48516C8.8811 7.44132 8.88053 7.39425 8.89478 7.35011C8.90903 7.30596 8.93743 7.26678 8.97628 7.23766L11.5672 5.26225C11.6794 5.1682 11.758 5.04524 11.7928 4.90948C11.8275 4.77371 11.8168 4.63148 11.7619 4.50141Z" />
</g>
</svg>
