<svg width="17" height="17" viewBox="0 0 17 17" fill="none" xmlns="http://www.w3.org/2000/svg">
<g id="icon" clip-path="url(#clip0_1152_4330)">
<g id="icon_2">
<path id="Subtract" fill-rule="evenodd" clip-rule="evenodd" d="M7.91104 0.758463C8.18024 0.593908 8.48963 0.506836 8.80514 0.506836C9.12065 0.506836 9.43003 0.593908 9.69923 0.758463C9.96843 0.923018 10.187 1.15867 10.3309 1.43948L10.3334 1.44446L16.6182 14.0143L16.6187 14.0151C16.7499 14.2758 16.8124 14.5659 16.8002 14.8575C16.788 15.1495 16.7013 15.4335 16.5484 15.6825C16.3955 15.9316 16.1816 16.1374 15.9267 16.2805C15.672 16.4236 15.3848 16.4991 15.0925 16.5H15.0908H2.51943H2.51769C2.22547 16.4991 1.93832 16.4236 1.68352 16.2805C1.42872 16.1374 1.21472 15.9316 1.06186 15.6825C0.90899 15.4335 0.822326 15.1495 0.810096 14.8575C0.79788 14.5659 0.860329 14.2759 0.991516 14.0152L0.991978 14.0143L7.27689 1.44447L7.27939 1.43946C7.42324 1.15866 7.64185 0.923018 7.91104 0.758463ZM8.80511 5.21443C9.27849 5.21443 9.66225 5.59818 9.66225 6.07157V9.78585C9.66225 10.2592 9.27849 10.643 8.80511 10.643C8.33172 10.643 7.94796 10.2592 7.94796 9.78585V6.07157C7.94796 5.59818 8.33172 5.21443 8.80511 5.21443ZM9.94796 12.9287C9.94796 13.5599 9.43628 14.0716 8.80511 14.0716C8.17393 14.0716 7.66225 13.5599 7.66225 12.9287C7.66225 12.2975 8.17393 11.7859 8.80511 11.7859C9.43628 11.7859 9.94796 12.2975 9.94796 12.9287Z" fill="#fff"/>
</g>
</g>
<defs>
<clipPath id="clip0_1152_4330">
<rect width="16" height="16" fill="white" transform="translate(0.804688 0.5)"/>
</clipPath>
</defs>
</svg>
