<svg width="17" height="17" viewBox="0 0 17 17" fill="none" xmlns="http://www.w3.org/2000/svg">
<g id="icon" clip-path="url(#clip0_1152_4336)">
<g id="icon_2">
<path id="Subtract" fill-rule="evenodd" clip-rule="evenodd" d="M8.30469 16.5C12.723 16.5 16.3047 12.9183 16.3047 8.5C16.3047 4.08173 12.723 0.5 8.30469 0.5C3.88641 0.5 0.304688 4.08173 0.304688 8.5C0.304688 12.9183 3.88641 16.5 8.30469 16.5ZM6.5904 11.2143C6.19591 11.2143 5.87612 11.5341 5.87612 11.9286C5.87612 12.3231 6.19591 12.6429 6.5904 12.6429H10.019C10.4135 12.6429 10.7333 12.3231 10.7333 11.9286C10.7333 11.5341 10.4135 11.2143 10.019 11.2143H9.01897V7.92857C9.01897 7.53408 8.69918 7.21429 8.30469 7.21429H7.16183C6.76734 7.21429 6.44755 7.53408 6.44755 7.92857C6.44755 8.32306 6.76734 8.64286 7.16183 8.64286H7.5904V11.2143H6.5904ZM9.44755 5.07143C9.44755 5.70261 8.93586 6.21429 8.30469 6.21429C7.67351 6.21429 7.16183 5.70261 7.16183 5.07143C7.16183 4.44025 7.67351 3.92857 8.30469 3.92857C8.93586 3.92857 9.44755 4.44025 9.44755 5.07143Z" fill="#fff"/>
</g>
</g>
<defs>
<clipPath id="clip0_1152_4336">
<rect width="16" height="16" fill="white" transform="translate(0.304688 0.5)"/>
</clipPath>
</defs>
</svg>
