<svg width="17" height="17" viewBox="0 0 17 17" fill="none" xmlns="http://www.w3.org/2000/svg">
<path fill-rule="evenodd" clip-rule="evenodd" d="M4.80469 0.5C2.59554 0.5 0.804688 2.29086 0.804688 4.5V12.5C0.804688 14.7091 2.59554 16.5 4.80469 16.5H12.8047C15.0138 16.5 16.8047 14.7091 16.8047 12.5V4.5C16.8047 2.29086 15.0138 0.5 12.8047 0.5H4.80469ZM12.8079 6.46402C13.1035 6.09437 13.0437 5.55498 12.6739 5.25926C12.3043 4.96353 11.7649 5.02346 11.4692 5.39312L7.41677 10.4587L5.79567 9.24286C5.41696 8.95882 4.8797 9.03558 4.59567 9.41429C4.31165 9.79299 4.38839 10.3303 4.7671 10.6143L7.05281 12.3286C7.42319 12.6064 7.94721 12.5398 8.23642 12.1783L12.8079 6.46402Z" fill="#fff"/>
</svg>
