<svg viewBox="0 0 17 17" fill="none" xmlns="http://www.w3.org/2000/svg">
<g id="icon" clip-path="url(#clip0_1152_4342)">
<g id="icon_2">
<path id="Subtract" fill-rule="evenodd" clip-rule="evenodd" d="M13.9618 2.84315C17.086 5.96735 17.086 11.0327 13.9618 14.1569C10.8376 17.281 5.77226 17.2811 2.64807 14.1569C-0.476127 11.0327 -0.476127 5.96734 2.64807 2.84315C5.77226 -0.281054 10.8376 -0.281046 13.9618 2.84315ZM5.27446 5.46954C5.60919 5.13481 6.15191 5.13481 6.48665 5.46954L8.30492 7.28782L10.1232 5.46954C10.4579 5.13482 11.0006 5.13481 11.3354 5.46954C11.6701 5.80427 11.6701 6.347 11.3354 6.68173L9.5171 8.5L11.3354 10.3183C11.6701 10.653 11.6701 11.1957 11.3354 11.5305C11.0006 11.8652 10.4579 11.8652 10.1232 11.5305L8.30492 9.71218L6.48665 11.5305C6.15191 11.8652 5.60919 11.8652 5.27446 11.5305C4.93973 11.1957 4.93973 10.653 5.27446 10.3183L7.09274 8.5L5.27446 6.68173C4.93973 6.34699 4.93973 5.80427 5.27446 5.46954Z" fill="#fff"/>
</g>
</g>
<defs>
<clipPath id="clip0_1152_4342">
<rect width="16" height="16" fill="white" transform="translate(0.304688 0.5)"/>
</clipPath>
</defs>
</svg>
