<svg width="18" height="18" viewBox="0 0 18 18" fill="none" xmlns="http://www.w3.org/2000/svg">
<g id="visible">
<g id="icon">
<path id="Vector" d="M16.4377 8.10041C16.6357 8.3472 16.7453 8.66783 16.7453 9.00028C16.7453 9.33273 16.6357 9.65336 16.4377 9.90015C15.1842 11.4178 12.3309 14.3726 9.00008 14.3726C5.66927 14.3726 2.816 11.4178 1.56246 9.90015C1.36448 9.65336 1.25488 9.33273 1.25488 9.00028C1.25488 8.66783 1.36448 8.3472 1.56246 8.10041C2.816 6.58272 5.66927 3.62793 9.00008 3.62793C12.3309 3.62793 15.1842 6.58272 16.4377 8.10041Z" stroke="#797A81" stroke-width="1.5" stroke-linecap="round" stroke-linejoin="round"/>
<path id="Vector_2" d="M8.99998 11.3877C10.3187 11.3877 11.3877 10.3187 11.3877 8.99998C11.3877 7.6813 10.3187 6.6123 8.99998 6.6123C7.6813 6.6123 6.6123 7.6813 6.6123 8.99998C6.6123 10.3187 7.6813 11.3877 8.99998 11.3877Z" stroke="#797A81" stroke-width="1.5" stroke-linecap="round" stroke-linejoin="round"/>
</g>
</g>
</svg>
