<svg viewBox="0 0 16 12" fill="none" xmlns="http://www.w3.org/2000/svg">
<path d="M1.18763 6.5094C1.09079 6.35537 1.04237 6.27836 1.01527 6.15957C0.99491 6.07035 0.99491 5.92963 1.01527 5.84041C1.04237 5.72162 1.09079 5.64461 1.18763 5.49058C1.98789 4.21773 4.36992 0.99999 8 0.99999C11.6301 0.99999 14.0121 4.21773 14.8124 5.49058C14.9092 5.6446 14.9576 5.72162 14.9847 5.84041C15.0051 5.92963 15.0051 6.07035 14.9847 6.15957C14.9576 6.27836 14.9092 6.35537 14.8124 6.5094C14.0121 7.78225 11.6301 11 8 11C4.36992 11 1.98789 7.78225 1.18763 6.5094Z" />
<path d="M8 8.14285C9.17816 8.14285 10.1332 7.18346 10.1332 5.99999C10.1332 4.81652 9.17816 3.85713 8 3.85713C6.82184 3.85713 5.86675 4.81652 5.86675 5.99999C5.86675 7.18346 6.82184 8.14285 8 8.14285Z" />
</svg>
