<svg width="120" height="86" viewBox="0 0 120 86" fill="none" xmlns="http://www.w3.org/2000/svg">
<path d="M31.6234 19.8187L28.8955 17.0908" stroke="white" stroke-linecap="round" stroke-linejoin="round"/>
<path d="M31.6234 11.9395L28.8955 14.6673" stroke="white" stroke-linecap="round" stroke-linejoin="round"/>
<path d="M23.7451 11.9395L26.473 14.6673" stroke="white" stroke-linecap="round" stroke-linejoin="round"/>
<path d="M23.7451 19.8187L26.473 17.0908" stroke="white" stroke-linecap="round" stroke-linejoin="round"/>
<path d="M115.307 48.9254L112.579 46.1997" stroke="white" stroke-linecap="round" stroke-linejoin="round"/>
<path d="M115.307 41.0461L112.579 43.774" stroke="white" stroke-linecap="round" stroke-linejoin="round"/>
<path d="M107.429 41.0461L110.157 43.774" stroke="white" stroke-linecap="round" stroke-linejoin="round"/>
<path d="M107.429 48.9254L110.157 46.1997" stroke="white" stroke-linecap="round" stroke-linejoin="round"/>
<path d="M8.22419 63.6299L6.86133 62.2649" stroke="white" stroke-linecap="round" stroke-linejoin="round"/>
<path d="M8.22419 59.6891L6.86133 61.0541" stroke="white" stroke-linecap="round" stroke-linejoin="round"/>
<path d="M4.28613 59.6891L5.649 61.0541" stroke="white" stroke-linecap="round" stroke-linejoin="round"/>
<path d="M4.28613 63.6299L5.649 62.2649" stroke="white" stroke-linecap="round" stroke-linejoin="round"/>
<path d="M22.4386 71.267L59.6239 10.6345C62.5382 5.88372 69.4425 5.88372 72.3568 10.6345L109.544 71.267C112.596 76.2428 109.015 82.6392 103.178 82.6392H28.8051C22.9679 82.6392 19.3872 76.2428 22.4386 71.267Z" fill="#214CE8"/>
<path d="M15.5812 67.8384L52.7665 7.20588C55.6808 2.45514 62.5851 2.45514 65.4994 7.20588L102.687 67.8384C105.738 72.8142 102.158 79.2107 96.3203 79.2107H21.9477C16.1105 79.2107 12.5298 72.8142 15.5812 67.8384Z" stroke="white" stroke-linecap="round" stroke-linejoin="round"/>
<path d="M66.2272 67.2049C67.0166 65.2992 66.1116 63.1143 64.2059 62.3249C62.3001 61.5355 60.1152 62.4405 59.3258 64.3463C58.5364 66.2521 59.4414 68.4369 61.3472 69.2263C63.253 70.0157 65.4379 69.1107 66.2272 67.2049Z" fill="#1C1D24"/>
<path d="M66.3262 25.3431H59.2248C58.4083 25.3431 57.7783 25.9989 57.7783 26.7896L59.9212 56.8562C59.9212 57.6726 60.5769 58.3027 61.3676 58.3027H64.1834C64.9998 58.3027 65.6298 57.6469 65.6298 56.8562L67.7727 26.7896C67.7727 25.9731 67.117 25.3431 66.3262 25.3431Z" fill="#1C1D24"/>
<path d="M62.5856 65.4895C63.375 63.5837 62.47 61.3988 60.5643 60.6095C58.6585 59.8201 56.4736 60.7251 55.6842 62.6308C54.8948 64.5366 55.7998 66.7215 57.7056 67.5109C59.6114 68.3003 61.7962 67.3953 62.5856 65.4895Z" stroke="white" stroke-linecap="round" stroke-linejoin="round"/>
<path d="M62.6837 23.6289H55.5822C54.7657 23.6289 54.1357 24.2846 54.1357 25.0753L56.2786 55.142C56.2786 55.9584 56.9343 56.5884 57.7251 56.5884H60.5408C61.3572 56.5884 61.9872 55.9327 61.9872 55.142L64.1301 25.0753C64.1301 24.2589 63.4744 23.6289 62.6837 23.6289Z" stroke="white" stroke-linecap="round" stroke-linejoin="round"/>
</svg>
