<svg id="Warstwa_1" xmlns="http://www.w3.org/2000/svg" viewBox="0 0 2646.92 720.06"><defs><style>.cls-1-light{fill:#fff;}.cls-2-light{fill:#161616;}.cls-3-light{fill:#214ce8;}</style></defs><g id="Sygnet"><path class="cls-3-light" d="m488.7,600.73l-167.1,112.6c-13.3,8.9-30.6,9-43.9.2l-171.1-113C40.1,556.62,0,482.13,0,402.42V128.92C0,93.02,24.1,61.62,58.7,52.43L215.2,10.73c53.4-14.3,109.7-14.3,163.1,0l156.5,41.7c34.6,9.2,58.7,40.6,58.7,76.5v274.9c.1,79-39.2,152.8-104.8,196.9Z"/></g><path class="cls-1-light" d="m435.3,241.33H158.3c-21.9,0-39.6-17.7-39.6-39.6h0c0-21.9,17.7-39.6,39.6-39.6h277c21.9,0,39.6,17.7,39.6,39.6h0c-.1,21.9-17.8,39.6-39.6,39.6Z"/><path class="cls-1-light" d="m257.2,360.02h-98.9c-21.9,0-39.6-17.7-39.6-39.6h0c0-21.9,17.7-39.6,39.6-39.6h98.9c21.9,0,39.6,17.7,39.6,39.6h0c0,21.9-17.7,39.6-39.6,39.6Z"/><path class="cls-2-light" d="m2639.2,327.32c-3.2-7.7-7.6-14.4-12.9-20-14-14.5-31.6-24-53.1-28.5-15.8-3.4-35.6-6-59.5-7.8-.3-.1-.5-.1-.8-.1-8-.6-16.5-1.1-25.6-1.6l-31-1.2-14.4-.6c-21-.5-36-1.2-45.1-2.2-9.2-.8-15.8-2.6-20.1-5.2s-6.3-6.7-6.3-12.4c0-7.5,3.3-13.4,10-17.8,5.8-3.8,14.3-6.7,25.4-8.5.3-.1.7-.1,1.1-.2,1.1-.1,2.5-.3,3.7-.5,5.1-.7,10.7-1.2,17-1.7.7-.1,1.6-.2,2.3-.1,11.3-1,23.1-1.5,35.5-1.5,51.5,0,99.4,3.1,143.7,9.2l4.9-22.3,14.4-65.9.1-.4c-6.5-1-13-2-19.6-2.9-35.8-4.9-73.8-7.9-114.2-8.7-9.6-.3-19.4-.4-29.2-.4-26.5,0-50.7,2-72.4,6-.1,0-.2,0-.2.1-13.6,2.4-26.2,5.7-38,9.8-30.7,10.6-54.1,25.7-70.2,45.5-5.9,7.2-10.7,15-14.5,23.2-4.1,9.1-6.9,18.6-8.3,28.9-.9,6-1.4,12.3-1.4,18.7s.4,12.3,1.2,17.9c1.5,9.7,4.2,18.2,8,25.9.1.1.1.3.2.4,2.9,5.8,6.4,11.1,10.8,15.8,13.5,14.8,31.7,25,54.7,30.9,22.9,5.8,50.8,9.3,83.5,10.1,7.1.4,18.4.7,34.1,1.1,24.9.6,43,1.5,54.3,2.4,11.3.8,19.9,2.7,25.8,5.4,5.8,2.8,8.7,7.2,8.7,13.2,0,8.4-3.2,14.7-9.6,18.9-3.7,2.5-8.5,4.5-14.6,6-4.4,1.2-9.5,2.2-15.2,2.8-10.6,1.2-24.6,2-41.8,2.3-3.8.1-7.7.1-11.7.1-2,0-3.9,0-5.8-.1-59.3-.2-117.2-5.7-173.8-16.4l-17.2,89.2c63.9,13.1,129.4,19.8,196.8,19.8,63.3,0,112.2-10.8,146.5-32.4,34.3-21.5,51.5-54.4,51.5-98.7.3-17.9-2.3-33.1-7.7-45.5Z"/><polygon class="cls-2-light" points="1697.1 215.33 1697.1 129.83 1367.2 129.83 1367.2 129.92 1311.5 129.92 1311.5 500.23 1422.8 500.23 1422.8 370.42 1656.5 370.42 1656.5 284.82 1422.8 284.82 1422.8 215.33 1697.1 215.33"/><path class="cls-2-light" d="m2083.7,500.23h120.3l-192.8-370.4h-121.3l-192.8,370.4h120.3l35.9-69h194.5l35.9,69Zm-185.9-154.4l52.8-101.4,52.8,101.4h-105.6Z"/><path class="cls-2-light" d="m1212.7,239.33c-1.7-38.1-17.9-65.5-48.3-82.5-32.3-18-78.2-27-137.6-27-31.7,0-64.2,2.5-97.4,7.5s-61.7,12-85.5,21l.2.5,23.5,85.2c18.4-5.3,39-9.7,61.9-13.2,33.2-5,65.7-7.5,97.4-7.5,13,0,25.4.4,37.2,1.3,3,.2,5.8.5,8.7.8,8.7,1,15.8,3.3,21,6.7,5.5,3.6,8.2,9.2,8.2,16.8,0,5.6-2.6,9.9-7.7,12.9s-11.8,5.1-20.1,6.5c-8.3,1.3-20.4,2.7-36.5,4.1-27.2,2.6-48.5,5.3-64,8.2-35.9,6.7-64.5,17.6-85.8,32.8-21.3,15.2-36.6,34.9-45.9,59.1-9.4,24.3-14,54.4-14,90.3,0,10.4.4,22.8,1.3,37.3h376.5v-88.5h-266.3c1.4-11.3,5.3-20,11.8-26.3s17-11.3,31.6-15.2c14.6-3.8,36.9-7.9,66.9-12.1,39.7-5.3,70.2-10.9,91.6-16.9s38.7-16.3,51.8-30.9c4.4-4.9,8-10.5,11-16.8,4.8-10.3,7.6-22.6,8.4-36.8.1-1.1.2-2.1.2-3.2.1-1.9.2-3.9.2-5.9v-.5c-.1-2.6-.1-5.2-.3-7.7Z"/><path class="cls-2-light" d="m911.1,606.12c0,18.8-13.8,31.7-32.4,31.7h-25.2v26.2h-24.3v-89.6h49.5c18.5.1,32.4,13,32.4,31.7Zm-24.3.4c0-6.5-4.7-10.8-11.4-10.8h-21.9v21.1h21.9c6.6.1,11.4-4,11.4-10.3Z"/><path class="cls-2-light" d="m1014,662.82v1.3h-26.4l-5.2-13.6h-38l-5.1,13.6h-26.4v-1.3l37.5-88.3h26.1l37.5,88.3Zm-39.4-32.6l-11.1-29.3-11.3,29.3h22.4Z"/><path class="cls-2-light" d="m1024.3,653.82l10.4-20.2c9.2,7.8,20,11,33.1,11,10.2,0,16.1-2.3,16.1-7.6,0-3.7-3.3-4.7-20.4-7.2-19.2-2.9-37.2-5.9-37.2-26.5,0-19.3,16.3-30.8,39.4-30.8,20.9,0,34,9.1,39.3,20.7l-19.5,9.9c-2.6-6.9-10.4-9.6-20.2-9.6-11.3,0-14.7,3.5-14.7,7.7,0,3.8,3.5,5.1,19.5,7.4,19.5,2.8,38.1,6.3,38.1,27.1s-17.5,30.2-42.1,30.2c-16.3.1-29.9-3.9-41.8-12.1Z"/><path class="cls-2-light" d="m1121,653.82l10.4-20.2c9.2,7.8,20,11,33.1,11,10.2,0,16.1-2.3,16.1-7.6,0-3.7-3.3-4.7-20.4-7.2-19.2-2.9-37.2-5.9-37.2-26.5,0-19.3,16.3-30.8,39.4-30.8,20.9,0,34,9.1,39.3,20.7l-19.5,9.9c-2.6-6.9-10.4-9.6-20.2-9.6-11.3,0-14.7,3.5-14.7,7.7,0,3.8,3.5,5.1,19.5,7.4,19.5,2.8,38.1,6.3,38.1,27.1s-17.5,30.2-42.1,30.2c-16.3.1-29.9-3.9-41.8-12.1Z"/><path class="cls-1-light" d="m191.5,438.82c3.8,0,6.6,3.5,5.9,7.2-3.4,18.4-19.5,32.4-38.9,32.4s-35.5-14-38.9-32.4c-.7-3.7,2.1-7.2,5.9-7.2h66Z"/><path class="cls-1-light" d="m138.1,427.32c-1.4,0-2.7-.3-4-1-4.3-2.2-6-7.5-3.8-11.8,5.4-10.6,16.2-17.2,28.1-17.2s22.7,6.6,28.1,17.2c2.2,4.3.5,9.6-3.8,11.8-1.2.6-2.6,1-4,1-3.3,0-6.3-1.8-7.8-4.8-2.4-4.7-7.2-7.6-12.5-7.6s-10.1,2.9-12.5,7.6c-1.4,2.9-4.4,4.8-7.8,4.8Z"/></svg>