<svg viewBox="0 0 128 128" fill="none" xmlns="http://www.w3.org/2000/svg"><path d="M98.073 106.766l-29.704 20.016a7.04 7.04 0 01-7.804.035L30.15 106.73A42.222 42.222 0 0111.2 71.515V22.899c0-6.382 4.284-11.964 10.435-13.6l27.82-7.412a56.067 56.067 0 0128.993 0l27.819 7.413c6.151 1.635 10.435 7.217 10.435 13.599v48.866a42.107 42.107 0 01-18.63 35.002z" fill="#214CE8"/><path d="M88.58 42.878H39.34a7.033 7.033 0 01-7.04-7.04 7.033 7.033 0 017.04-7.039h49.24a7.033 7.033 0 017.04 7.04c-.018 3.893-3.165 7.04-7.04 7.04zM56.92 63.978H39.34a7.033 7.033 0 01-7.04-7.039 7.033 7.033 0 017.04-7.04h17.58a7.033 7.033 0 017.04 7.04 7.033 7.033 0 01-7.04 7.04zM45.242 77.986c.675 0 1.173.622 1.048 1.28-.604 3.27-3.466 5.76-6.914 5.76-3.45 0-6.311-2.49-6.915-5.76a1.076 1.076 0 011.048-1.28h11.733zM35.749 75.942c-.249 0-.48-.054-.711-.178a1.56 1.56 0 01-.675-2.098 5.587 5.587 0 014.995-3.057 5.587 5.587 0 014.995 3.057 1.56 1.56 0 01-.676 2.098 1.537 1.537 0 01-2.098-.675 2.48 2.48 0 00-2.221-1.352 2.48 2.48 0 00-2.222 1.352 1.53 1.53 0 01-1.387.853z" fill="#fff"/></svg>