<svg width="49" height="102" viewBox="0 0 49 102" fill="none" xmlns="http://www.w3.org/2000/svg">
<path d="M38.9135 0.75H8.58646C4.2585 0.75 0.75 4.28862 0.75 8.65372V92.8463C0.75 97.2114 4.2585 100.75 8.58646 100.75H38.9135C43.2415 100.75 46.75 97.2114 46.75 92.8463V8.65372C46.75 4.28862 43.2415 0.75 38.9135 0.75Z" fill="#1C1D24" stroke="white" stroke-width="1.5" stroke-linecap="round" stroke-linejoin="round"/>
<path d="M25.75 6.75C25.75 5.64543 24.8546 4.75 23.75 4.75C22.6454 4.75 21.75 5.64543 21.75 6.75C21.75 7.85457 22.6454 8.75 23.75 8.75C24.8546 8.75 25.75 7.85457 25.75 6.75Z" fill="white"/>
<path d="M47.75 28.75H46.75V36.75H47.75V28.75Z" stroke="white" stroke-width="1.5" stroke-linecap="round" stroke-linejoin="round"/>
<path d="M47.75 41.75H46.75V54.75H47.75V41.75Z" stroke="white" stroke-width="1.5" stroke-linecap="round" stroke-linejoin="round"/>
<path d="M28.3278 57.3669L24.54 59.9193C24.2385 60.1211 23.8463 60.1233 23.5449 59.9239L19.6664 57.3624C18.159 56.367 17.25 54.6787 17.25 52.8719V46.672C17.25 45.8582 17.7963 45.1465 18.5806 44.9384L22.1281 43.9931C23.3386 43.669 24.6148 43.669 25.8253 43.9931L29.3728 44.9384C30.1571 45.1469 30.7034 45.8587 30.7034 46.6725V52.9038C30.7056 54.6946 29.8148 56.3675 28.3278 57.3671V57.3669Z" fill="#869DFE"/>
<path d="M27.1176 49.2204H20.8386C20.3421 49.2204 19.9409 48.8192 19.9409 48.3228C19.9409 47.8263 20.3421 47.4251 20.8386 47.4251H27.1176C27.614 47.4251 28.0152 47.8263 28.0152 48.3228C28.0129 48.8192 27.6117 49.2204 27.1176 49.2204Z" fill="#1C1D24"/>
<path d="M23.0804 51.9112H20.8386C20.3421 51.9112 19.9409 51.51 19.9409 51.0136C19.9409 50.5171 20.3421 50.1159 20.8386 50.1159H23.0804C23.5768 50.1159 23.9781 50.5171 23.9781 51.0136C23.9781 51.51 23.5768 51.9112 23.0804 51.9112Z" fill="#1C1D24"/>
<path d="M21.591 53.6964C21.6771 53.6964 21.7406 53.7757 21.7247 53.8596C21.6477 54.2766 21.2827 54.594 20.843 54.594C20.4032 54.594 20.0383 54.2766 19.9612 53.8596C19.9453 53.7757 20.0088 53.6964 20.0949 53.6964H21.591Z" fill="#1C1D24"/>
<path d="M20.3805 53.4369C20.3488 53.4369 20.3193 53.4301 20.2898 53.4143C20.1924 53.3644 20.1538 53.2443 20.2037 53.1468C20.3261 52.9065 20.5709 52.7569 20.8407 52.7569C21.1104 52.7569 21.3552 52.9065 21.4776 53.1468C21.5275 53.2443 21.489 53.3644 21.3915 53.4143C21.3643 53.4279 21.3326 53.4369 21.3008 53.4369C21.226 53.4369 21.158 53.3961 21.124 53.3281C21.0696 53.2216 20.9608 53.1559 20.8407 53.1559C20.7205 53.1559 20.6117 53.2216 20.5573 53.3281C20.5256 53.3939 20.4576 53.4369 20.3805 53.4369Z" fill="#1C1D24"/>
</svg>
