<svg width="78" height="122" viewBox="0 0 78 122" fill="none" xmlns="http://www.w3.org/2000/svg">
<path d="M73.3775 1L3.62249 1C2.17413 1 1 2.1842 1 3.64499L0.999995 118.355C0.999995 119.816 2.17412 121 3.62249 121L73.3775 121C74.8259 121 76 119.816 76 118.355L76 3.645C76 2.18421 74.8259 1 73.3775 1Z" fill="#1C1D24" stroke="white" stroke-width="2" stroke-linecap="round" stroke-linejoin="round"/>
<path d="M43.0778 66.6169L39.29 69.1693C38.9885 69.3711 38.5963 69.3733 38.2949 69.1739L34.4164 66.6124C32.909 65.617 32 63.9287 32 62.1219V55.922C32 55.1082 32.5463 54.3965 33.3306 54.1884L36.8781 53.2431C38.0886 52.919 39.3648 52.919 40.5753 53.2431L44.1228 54.1884C44.9071 54.3969 45.4534 55.1087 45.4534 55.9225V62.1538C45.4556 63.9446 44.5648 65.6175 43.0778 66.6171V66.6169Z" fill="#869DFE"/>
<path d="M41.8676 58.4704H35.5886C35.0921 58.4704 34.6909 58.0692 34.6909 57.5728C34.6909 57.0763 35.0921 56.6751 35.5886 56.6751H41.8676C42.364 56.6751 42.7652 57.0763 42.7652 57.5728C42.7629 58.0692 42.3617 58.4704 41.8676 58.4704Z" fill="#1C1D24"/>
<path d="M37.8304 61.1612H35.5886C35.0921 61.1612 34.6909 60.76 34.6909 60.2636C34.6909 59.7671 35.0921 59.3659 35.5886 59.3659H37.8304C38.3268 59.3659 38.7281 59.7671 38.7281 60.2636C38.7281 60.76 38.3268 61.1612 37.8304 61.1612Z" fill="#1C1D24"/>
<path d="M36.3412 62.9464C36.4274 62.9464 36.4909 63.0257 36.475 63.1096C36.3979 63.5266 36.033 63.844 35.5932 63.844C35.1534 63.844 34.7885 63.5266 34.7114 63.1096C34.6956 63.0257 34.759 62.9464 34.8452 62.9464H36.3412Z" fill="#1C1D24"/>
<path d="M35.1303 62.6869C35.0985 62.6869 35.0691 62.6801 35.0396 62.6643C34.9421 62.6144 34.9036 62.4943 34.9535 62.3968C35.0759 62.1565 35.3207 62.0069 35.5904 62.0069C35.8602 62.0069 36.105 62.1565 36.2274 62.3968C36.2773 62.4943 36.2387 62.6144 36.1412 62.6643C36.114 62.6779 36.0823 62.6869 36.0506 62.6869C35.9758 62.6869 35.9078 62.6461 35.8738 62.5781C35.8194 62.4716 35.7106 62.4059 35.5904 62.4059C35.4703 62.4059 35.3615 62.4716 35.3071 62.5781C35.2753 62.6439 35.2073 62.6869 35.1303 62.6869Z" fill="#1C1D24"/>
<path d="M77 16L76 16L76 23L77 23L77 16Z" stroke="white" stroke-width="1.5" stroke-linecap="round" stroke-linejoin="round"/>
<path d="M77 30L77 28L76 28L76 30L77 30Z" stroke="white" stroke-width="1.5" stroke-linecap="round" stroke-linejoin="round"/>
<path d="M73 56C72.5 56.426 72 57.0183 72 57.6729L72 62.9929" stroke="white" stroke-width="2" stroke-linecap="round" stroke-linejoin="round"/>
<path d="M72 63.3331L72 64.3271C72 64.9817 72.5 65.574 73 66" stroke="white" stroke-width="2" stroke-linecap="round" stroke-linejoin="round"/>
</svg>
