<svg width="75" height="103" viewBox="0 0 75 103" fill="none" xmlns="http://www.w3.org/2000/svg">
<path d="M67.3354 1.62344H6.66458C3.53612 1.62344 1 4.15291 1 7.27316V95.9737C1 99.094 3.53612 101.623 6.66458 101.623H67.3354C70.4639 101.623 73 99.094 73 95.9737V7.27316C73 4.15291 70.4639 1.62344 67.3354 1.62344Z" fill="white" stroke="#161616" stroke-width="2" stroke-linecap="round" stroke-linejoin="round"/>
<path d="M41.5778 57.7404L37.79 60.2928C37.4885 60.4945 37.0963 60.4968 36.7949 60.2973L32.9164 57.7358C31.409 56.7405 30.5 55.0522 30.5 53.2453V47.0454C30.5 46.2317 31.0463 45.5199 31.8306 45.3118L35.3781 44.3666C36.5886 44.0424 37.8648 44.0424 39.0753 44.3666L42.6228 45.3118C43.4071 45.5204 43.9534 46.2321 43.9534 47.0459V53.2773C43.9556 55.0681 43.0648 56.7409 41.5778 57.7406V57.7404Z" fill="#214CE8"/>
<path d="M40.3676 49.5938H34.0886C33.5921 49.5938 33.1909 49.1926 33.1909 48.6962C33.1909 48.1998 33.5921 47.7986 34.0886 47.7986H40.3676C40.864 47.7986 41.2652 48.1998 41.2652 48.6962C41.2629 49.1926 40.8617 49.5938 40.3676 49.5938Z" fill="white"/>
<path d="M36.3304 52.2846H34.0886C33.5921 52.2846 33.1909 51.8834 33.1909 51.387C33.1909 50.8906 33.5921 50.4893 34.0886 50.4893H36.3304C36.8268 50.4893 37.2281 50.8906 37.2281 51.387C37.2281 51.8834 36.8268 52.2846 36.3304 52.2846Z" fill="white"/>
<path d="M34.841 54.0698C34.9271 54.0698 34.9906 54.1491 34.9747 54.233C34.8977 54.6501 34.5327 54.9674 34.093 54.9674C33.6532 54.9674 33.2883 54.6501 33.2112 54.233C33.1953 54.1491 33.2588 54.0698 33.3449 54.0698H34.841Z" fill="white"/>
<path d="M33.6305 53.8104C33.5988 53.8104 33.5693 53.8036 33.5398 53.7877C33.4424 53.7378 33.4038 53.6177 33.4537 53.5202C33.5761 53.2799 33.8209 53.1303 34.0907 53.1303C34.3604 53.1303 34.6052 53.2799 34.7276 53.5202C34.7775 53.6177 34.739 53.7378 34.6415 53.7877C34.6143 53.8013 34.5826 53.8104 34.5508 53.8104C34.476 53.8104 34.408 53.7696 34.374 53.7016C34.3196 53.595 34.2108 53.5293 34.0907 53.5293C33.9705 53.5293 33.8617 53.595 33.8073 53.7016C33.7756 53.7673 33.7076 53.8104 33.6305 53.8104Z" fill="white"/>
<path d="M74 9.62344H73V13.6234H74V9.62344Z" stroke="#161616" stroke-width="1.24688" stroke-linecap="round" stroke-linejoin="round"/>
<path d="M61 0.623444V1.62344L66 1.62344V0.623444L61 0.623444Z" stroke="#161616" stroke-width="1.24688" stroke-linecap="round" stroke-linejoin="round"/>
<path d="M74 15.6234H73V19.6234H74V15.6234Z" stroke="#161616" stroke-width="1.24688" stroke-linecap="round" stroke-linejoin="round"/>
</svg>
