<svg width="50" height="102" viewBox="0 0 50 102" fill="none" xmlns="http://www.w3.org/2000/svg">
<path d="M39.9135 0.75H9.58646C5.2585 0.75 1.75 4.28862 1.75 8.65372V92.8463C1.75 97.2114 5.2585 100.75 9.58646 100.75H39.9135C44.2415 100.75 47.75 97.2114 47.75 92.8463V8.65372C47.75 4.28862 44.2415 0.75 39.9135 0.75Z" fill="white" stroke="#161616" stroke-width="1.5" stroke-linecap="round" stroke-linejoin="round"/>
<path d="M29.394 4.75H20.106C19.3571 4.75 18.75 5.42157 18.75 6.25C18.75 7.07843 19.3571 7.75 20.106 7.75H29.394C30.1429 7.75 30.75 7.07843 30.75 6.25C30.75 5.42157 30.1429 4.75 29.394 4.75Z" fill="#161616" stroke="#161616" stroke-width="1.5" stroke-linecap="round" stroke-linejoin="round"/>
<path d="M48.75 31.75H47.75V42.75H48.75V31.75Z" fill="white" stroke="#161616" stroke-width="1.5" stroke-linecap="round" stroke-linejoin="round"/>
<path d="M1.75 38.75H0.75V44.75H1.75V38.75Z" fill="white" stroke="#161616" stroke-width="1.5" stroke-linecap="round" stroke-linejoin="round"/>
<path d="M1.75 29.75H0.75V35.75H1.75V29.75Z" fill="white" stroke="#161616" stroke-width="1.5" stroke-linecap="round" stroke-linejoin="round"/>
<path d="M1.75 21.75H0.75V24.75H1.75V21.75Z" fill="white" stroke="#161616" stroke-width="1.5" stroke-linecap="round" stroke-linejoin="round"/>
<path d="M28.8278 57.3669L25.04 59.9193C24.7385 60.1211 24.3463 60.1233 24.0449 59.9239L20.1664 57.3624C18.659 56.367 17.75 54.6787 17.75 52.8719V46.672C17.75 45.8582 18.2963 45.1465 19.0806 44.9384L22.6281 43.9931C23.8386 43.669 25.1148 43.669 26.3253 43.9931L29.8728 44.9384C30.6571 45.1469 31.2034 45.8587 31.2034 46.6725V52.9038C31.2056 54.6946 30.3148 56.3675 28.8278 57.3671V57.3669Z" fill="#214CE8"/>
<path d="M27.6176 49.2204H21.3386C20.8421 49.2204 20.4409 48.8192 20.4409 48.3228C20.4409 47.8263 20.8421 47.4251 21.3386 47.4251H27.6176C28.114 47.4251 28.5152 47.8263 28.5152 48.3228C28.5129 48.8192 28.1117 49.2204 27.6176 49.2204Z" fill="white"/>
<path d="M23.5804 51.9112H21.3386C20.8421 51.9112 20.4409 51.51 20.4409 51.0136C20.4409 50.5171 20.8421 50.1159 21.3386 50.1159H23.5804C24.0768 50.1159 24.4781 50.5171 24.4781 51.0136C24.4781 51.51 24.0768 51.9112 23.5804 51.9112Z" fill="white"/>
<path d="M22.091 53.6964C22.1771 53.6964 22.2406 53.7757 22.2247 53.8596C22.1477 54.2766 21.7827 54.594 21.343 54.594C20.9032 54.594 20.5383 54.2766 20.4612 53.8596C20.4453 53.7757 20.5088 53.6964 20.5949 53.6964H22.091Z" fill="white"/>
<path d="M20.8805 53.4369C20.8488 53.4369 20.8193 53.4301 20.7898 53.4143C20.6924 53.3644 20.6538 53.2443 20.7037 53.1468C20.8261 52.9065 21.0709 52.7569 21.3407 52.7569C21.6104 52.7569 21.8552 52.9065 21.9776 53.1468C22.0275 53.2443 21.989 53.3644 21.8915 53.4143C21.8643 53.4279 21.8326 53.4369 21.8008 53.4369C21.726 53.4369 21.658 53.3961 21.624 53.3281C21.5696 53.2216 21.4608 53.1559 21.3407 53.1559C21.2205 53.1559 21.1117 53.2216 21.0573 53.3281C21.0256 53.3939 20.9576 53.4369 20.8805 53.4369Z" fill="white"/>
</svg>
