<svg viewBox="0 0 16 16" fill="none" xmlns="http://www.w3.org/2000/svg">
<path d="M1.66683 7.99984H3.92147C4.37828 7.99984 4.79587 8.25793 5.00016 8.6665C5.20445 9.07508 5.62205 9.33317 6.07885 9.33317H9.92147C10.3783 9.33317 10.7959 9.07508 11.0002 8.6665C11.2045 8.25793 11.622 7.99984 12.0789 7.99984H14.3335M5.97787 2.6665H10.0225C10.7404 2.6665 11.0993 2.6665 11.4162 2.77581C11.6965 2.87248 11.9517 3.03023 12.1635 3.23767C12.403 3.47223 12.5636 3.7933 12.8846 4.43542L14.329 7.32417C14.455 7.57616 14.518 7.70216 14.5624 7.8342C14.6019 7.95147 14.6304 8.07215 14.6475 8.19468C14.6668 8.33265 14.6668 8.47352 14.6668 8.75525V10.1332C14.6668 11.2533 14.6668 11.8133 14.4488 12.2412C14.2571 12.6175 13.9511 12.9234 13.5748 13.1152C13.147 13.3332 12.5869 13.3332 11.4668 13.3332H4.5335C3.41339 13.3332 2.85334 13.3332 2.42552 13.1152C2.04919 12.9234 1.74323 12.6175 1.55148 12.2412C1.3335 11.8133 1.3335 11.2533 1.3335 10.1332V8.75525C1.3335 8.47352 1.3335 8.33265 1.35281 8.19468C1.36997 8.07215 1.39845 7.95147 1.43791 7.8342C1.48234 7.70216 1.54533 7.57616 1.67133 7.32417L3.1157 4.43542C3.43677 3.7933 3.5973 3.47224 3.83679 3.23767C4.04858 3.03023 4.30384 2.87248 4.58409 2.77581C4.901 2.6665 5.25996 2.6665 5.97787 2.6665Z" />
</svg>
