<svg viewBox="0 0 11 11" fill="none" xmlns="http://www.w3.org/2000/svg">
<path d="M7.55561 4.44442V3.55554C7.55561 2.32824 6.56069 1.33331 5.33339 1.33331C4.10609 1.33331 3.11117 2.32824 3.11117 3.55554V4.44442M5.33339 6.44442V7.33331M3.91117 9.33331H6.75561C7.50235 9.33331 7.87572 9.33331 8.16093 9.18799C8.41181 9.06016 8.61579 8.85618 8.74362 8.6053C8.88894 8.32009 8.88894 7.94672 8.88894 7.19998V6.57776C8.88894 5.83102 8.88894 5.45765 8.74362 5.17244C8.61579 4.92155 8.41181 4.71758 8.16093 4.58975C7.87572 4.44442 7.50235 4.44442 6.75561 4.44442H3.91117C3.16443 4.44442 2.79106 4.44442 2.50584 4.58975C2.25496 4.71758 2.05099 4.92155 1.92316 5.17244C1.77783 5.45765 1.77783 5.83102 1.77783 6.57776V7.19998C1.77783 7.94672 1.77783 8.32009 1.92316 8.6053C2.05099 8.85618 2.25496 9.06016 2.50584 9.18799C2.79106 9.33331 3.16443 9.33331 3.91117 9.33331Z" />
</svg>
