<svg viewBox="0 0 11 11" fill="none" xmlns="http://www.w3.org/2000/svg">
<path d="M9.77756 4.44445H0.888672M4.88867 6.22223H2.66645M0.888672 3.64445L0.888672 7.02223C0.888672 7.52005 0.888672 7.76896 0.985555 7.95911C1.07078 8.12636 1.20676 8.26235 1.37401 8.34757C1.56416 8.44445 1.81307 8.44445 2.31089 8.44445L8.35534 8.44445C8.85316 8.44445 9.10208 8.44445 9.29222 8.34757C9.45947 8.26235 9.59546 8.12636 9.68068 7.95911C9.77756 7.76897 9.77756 7.52005 9.77756 7.02223V3.64445C9.77756 3.14663 9.77756 2.89772 9.68068 2.70757C9.59546 2.54032 9.45947 2.40433 9.29222 2.31911C9.10208 2.22223 8.85316 2.22223 8.35534 2.22223L2.31089 2.22223C1.81307 2.22223 1.56416 2.22223 1.37401 2.31911C1.20676 2.40433 1.07078 2.54032 0.985555 2.70757C0.888672 2.89771 0.888672 3.14663 0.888672 3.64445Z" />
</svg>
