<svg viewBox="0 0 11 11" fill="none" xmlns="http://www.w3.org/2000/svg">
<path d="M8.00023 4.44445L6.22245 2.66667M1.11133 9.55556L2.61549 9.38843C2.79927 9.36801 2.89115 9.3578 2.97704 9.33C3.05323 9.30533 3.12575 9.27048 3.19261 9.22639C3.26797 9.17669 3.33335 9.11132 3.4641 8.98057L9.33356 3.11112C9.82448 2.6202 9.82448 1.82426 9.33356 1.33334C8.84264 0.842419 8.0467 0.842419 7.55578 1.33334L1.68632 7.20279C1.55557 7.33354 1.4902 7.39892 1.4405 7.47428C1.39641 7.54114 1.36156 7.61365 1.33689 7.68985C1.30909 7.77574 1.29888 7.86763 1.27846 8.0514L1.11133 9.55556Z" />
</svg>
