<svg viewBox="0 0 12 12" fill="none" xmlns="http://www.w3.org/2000/svg">
<g clip-path="url(#clip0_93_818)">
<path d="M1.89062 11.4H10.1154C11.3738 11.4 12 10.7899 12 9.58145V2.41859C12 1.21011 11.3738 0.600006 10.1154 0.600006H1.89062C0.632212 0.600006 0 1.20424 0 2.41859V9.58145C0 10.7958 0.632212 11.4 1.89062 11.4ZM1.8003 10.4556C1.26442 10.4556 0.969395 10.1798 0.969395 9.63425V4.10224C0.969395 3.56253 1.26442 3.28095 1.8003 3.28095H10.1937C10.7295 3.28095 11.0306 3.56253 11.0306 4.10224V9.63425C11.0306 10.1798 10.7295 10.4556 10.1937 10.4556H1.8003Z" />
<path d="M2.84796 5.46324H9.17006C9.3808 5.46324 9.54339 5.29899 9.54339 5.09366C9.54339 4.89421 9.3808 4.74168 9.17006 4.74168H2.84796C2.62518 4.74168 2.46864 4.89421 2.46864 5.09366C2.46864 5.29899 2.62518 5.46324 2.84796 5.46324ZM2.84796 7.22904H9.17006C9.3808 7.22904 9.54339 7.07652 9.54339 6.87708C9.54339 6.66586 9.3808 6.50747 9.17006 6.50747H2.84796C2.62518 6.50747 2.46864 6.66586 2.46864 6.87708C2.46864 7.07652 2.62518 7.22904 2.84796 7.22904ZM2.84796 8.99479H6.86401C7.07475 8.99479 7.23734 8.84227 7.23734 8.64283C7.23734 8.4375 7.07475 8.27327 6.86401 8.27327H2.84796C2.62518 8.27327 2.46864 8.4375 2.46864 8.64283C2.46864 8.84227 2.62518 8.99479 2.84796 8.99479Z" />
</g>
</svg>
