<svg viewBox="0 0 11 11" fill="none" xmlns="http://www.w3.org/2000/svg">
<path d="M6.66683 3.99998H6.67127M6.66683 6.66665C8.13959 6.66665 9.3335 5.47274 9.3335 3.99998C9.3335 2.52722 8.13959 1.33331 6.66683 1.33331C5.19407 1.33331 4.00016 2.52722 4.00016 3.99998C4.00016 4.12161 4.00831 4.24135 4.02408 4.35866C4.05002 4.55162 4.06299 4.64809 4.05426 4.70913C4.04516 4.77272 4.03359 4.80698 4.00225 4.86305C3.97216 4.91687 3.91915 4.96989 3.81311 5.07592L1.54178 7.34726C1.46491 7.42412 1.42647 7.46256 1.39899 7.50741C1.37462 7.54717 1.35666 7.59053 1.34578 7.63588C1.3335 7.68703 1.3335 7.74138 1.3335 7.85009V8.6222C1.3335 8.87112 1.3335 8.99557 1.38194 9.09064C1.42455 9.17427 1.49254 9.24226 1.57617 9.28487C1.67124 9.33331 1.7957 9.33331 2.04461 9.33331H2.81672C2.92543 9.33331 2.97978 9.33331 3.03093 9.32103C3.07628 9.31015 3.11964 9.29219 3.1594 9.26782C3.20425 9.24034 3.24269 9.2019 3.31955 9.12504L5.59089 6.8537C5.69692 6.74766 5.74994 6.69465 5.80376 6.66456C5.85983 6.63322 5.89409 6.62165 5.95768 6.61255C6.01872 6.60382 6.11519 6.61679 6.30815 6.64273C6.42546 6.6585 6.5452 6.66665 6.66683 6.66665Z" />
</svg>
